<svg xmlns="http://www.w3.org/2000/svg" xmlns:xlink="http://www.w3.org/1999/xlink" viewBox="0 0 819.24 568.38"><defs><style>.cls-1,.cls-27,.cls-28,.cls-39{fill:none;}.cls-2{clip-path:url(#clip-path);}.cls-3{fill:#fff;}.cls-4{font-size:9.35px;}.cls-21,.cls-23,.cls-24,.cls-25,.cls-26,.cls-33,.cls-37,.cls-38,.cls-4,.cls-40{font-family:Arial;}.cls-5{letter-spacing:-0.02em;}.cls-6{letter-spacing:-0.01em;}.cls-7{letter-spacing:-0.01em;}.cls-8{letter-spacing:-0.01em;}.cls-9{letter-spacing:0em;}.cls-10{letter-spacing:-0.01em;}.cls-11{letter-spacing:-0.01em;}.cls-12{letter-spacing:0em;}.cls-13{letter-spacing:-0.01em;}.cls-14{letter-spacing:-0.01em;}.cls-15{letter-spacing:-0.01em;}.cls-16{letter-spacing:-0.01em;}.cls-17{letter-spacing:-0.02em;}.cls-18{letter-spacing:-0.01em;}.cls-19{letter-spacing:0em;}.cls-20{letter-spacing:-0.01em;}.cls-21{font-size:23.52px;}.cls-22{letter-spacing:0em;}.cls-23{font-size:22.45px;}.cls-24,.cls-33,.cls-37{font-size:22.99px;}.cls-25{font-size:21.91px;}.cls-26{font-size:17.08px;}.cls-27,.cls-28,.cls-39{stroke:#000;stroke-linecap:round;stroke-linejoin:round;}.cls-27{stroke-width:0.24px;}.cls-28{stroke-width:0.48px;}.cls-29{letter-spacing:0em;}.cls-30{letter-spacing:0.01em;}.cls-31{letter-spacing:0em;}.cls-32{letter-spacing:0em;}.cls-33,.cls-36{letter-spacing:0.01em;}.cls-34{letter-spacing:0em;}.cls-35{letter-spacing:0em;}.cls-37{letter-spacing:0em;}.cls-38{font-size:20.62px;}.cls-39{stroke-width:1.32px;}.cls-40{font-size:44.15px;}.cls-41{letter-spacing:0em;}.cls-42{letter-spacing:0em;}</style><clipPath id="clip-path" transform="translate(-11.22 -8.03)"><rect class="cls-1" width="841.89" height="595.28"/></clipPath></defs><title>III5</title><g id="Layer_2" data-name="Layer 2"><g id="Layer_1-2" data-name="Layer 1"><g id="III5"><g class="cls-2"><rect class="cls-3" x="0.66" y="40.57" width="231.6" height="10.44"/><text class="cls-4" transform="translate(0.66 48.96)"><tspan class="cls-5">M</tspan><tspan x="7.29" y="0">i</tspan><tspan class="cls-6" x="9.48" y="0">t</tspan><tspan x="12.47" y="0">rovačk</tspan><tspan class="cls-7" x="38.22" y="0">a </tspan><tspan class="cls-8" x="44.56" y="0">G</tspan><tspan class="cls-9" x="50.53" y="0">imn</tspan><tspan class="cls-10" x="65.69" y="0">a</tspan><tspan class="cls-11" x="70.11" y="0">z</tspan><tspan x="74" y="0">i</tspan><tspan class="cls-8" x="76.19" y="0">j</tspan><tspan class="cls-12" x="78.39" y="0">a</tspan><tspan class="cls-11" x="82.9" y="0">,</tspan><tspan class="cls-7" x="84.72" y="0"> </tspan><tspan class="cls-9" x="86.63" y="0">u</tspan><tspan class="cls-13" x="91.78" y="0">l</tspan><tspan class="cls-7" x="93.92" y="0">. </tspan><tspan class="cls-11" x="97.68" y="0">S</tspan><tspan x="102.18" y="0">v</tspan><tspan class="cls-14" x="106.67" y="0">.</tspan><tspan class="cls-7" x="108.54" y="0"> </tspan><tspan class="cls-15" x="110.45" y="0">S</tspan><tspan x="114.94" y="0">av</tspan><tspan class="cls-14" x="123.94" y="0">e</tspan><tspan class="cls-7" x="128.56" y="0"> </tspan><tspan x="130.46" y="0">2</tspan><tspan class="cls-15" x="135.26" y="0">,</tspan><tspan class="cls-7" x="137.08" y="0"> </tspan><tspan class="cls-11" x="138.98" y="0">S</tspan><tspan x="143.48" y="0">remska</tspan><tspan class="cls-16" x="171.6" y="0"> </tspan><tspan class="cls-5" x="173.48" y="0">M</tspan><tspan x="180.77" y="0">i</tspan><tspan class="cls-6" x="182.95" y="0">t</tspan><tspan x="185.94" y="0">rovica</tspan></text><text class="cls-4" transform="translate(0.66 566.05)">.</text><text class="cls-4" transform="translate(759.89 566.05)">a<tspan class="cls-17" x="4.5" y="0">S</tspan><tspan x="8.97" y="0">c</tspan><tspan class="cls-8" x="13.16" y="0"> </tspan><tspan x="15.07" y="0">R</tspan><tspan class="cls-18" x="20.1" y="0">a</tspan><tspan class="cls-19" x="24.55" y="0">sp</tspan><tspan class="cls-20" x="33.57" y="0">o</tspan><tspan x="38.63" y="0">red</tspan></text><text class="cls-21" transform="translate(249.43 183.49)">B<tspan class="cls-22" x="12.75" y="0">i</tspan><tspan x="18.32" y="0">o</tspan></text><text class="cls-21" transform="translate(277.02 127.58)">9</text><text class="cls-21" transform="translate(351.31 183.49)">IDR</text><text class="cls-21" transform="translate(382.27 127.58)">3</text><text class="cls-23" transform="translate(110.57 183.72)">MBP</text><text class="cls-24" transform="translate(156.65 127.22)">18</text><text class="cls-25" transform="translate(400.5 156.37)">NP</text><text class="cls-26" transform="translate(438.42 149.03)">6</text><line class="cls-27" x1="397.98" y1="132.37" x2="450.54" y2="132.37"/><line class="cls-27" x1="397.98" y1="162.73" x2="450.54" y2="162.73"/><text class="cls-21" transform="translate(189.06 183.49)">Dma</text><text class="cls-21" transform="translate(224.47 127.58)">5</text><text class="cls-21" transform="translate(299.46 183.49)">Mat</text><text class="cls-21" transform="translate(316.49 127.58)">35</text><line class="cls-28" x1="187.62" y1="102.01" x2="187.62" y2="193.09"/><line class="cls-28" x1="240.18" y1="102.01" x2="240.18" y2="193.09"/><line class="cls-28" x1="292.74" y1="102.01" x2="292.74" y2="193.09"/><line class="cls-28" x1="345.3" y1="102.01" x2="345.3" y2="193.09"/><line class="cls-28" x1="397.98" y1="102.01" x2="397.98" y2="193.09"/><line class="cls-28" x1="450.54" y1="102.01" x2="450.54" y2="193.09"/><line class="cls-28" x1="503.1" y1="102.01" x2="503.1" y2="193.09"/><line class="cls-28" x1="555.66" y1="102.01" x2="555.66" y2="193.09"/><line class="cls-28" x1="608.34" y1="102.01" x2="608.34" y2="193.09"/><line class="cls-28" x1="660.9" y1="102.01" x2="660.9" y2="193.09"/><line class="cls-28" x1="713.46" y1="102.01" x2="713.46" y2="193.09"/><line class="cls-28" x1="766.02" y1="102.01" x2="766.02" y2="193.09"/><line class="cls-28" x1="818.58" y1="102.01" x2="818.58" y2="193.09"/><text class="cls-23" transform="translate(324.65 274.82)">PPJ</text><text class="cls-24" transform="translate(367.03 218.3)">18</text><text class="cls-21" transform="translate(249.43 274.58)">B<tspan class="cls-22" x="12.75" y="0">i</tspan><tspan x="18.32" y="0">o</tspan></text><text class="cls-21" transform="translate(277.02 218.66)">9</text><text class="cls-21" transform="translate(145.5 274.58)">F<tspan class="cls-29" x="11.46" y="0">i</tspan><tspan x="17.03" y="0">z</tspan></text><text class="cls-21" transform="translate(158.81 218.66)">25</text><text class="cls-25" transform="translate(400.5 217.08)">N</text><text class="cls-26" transform="translate(428.94 209.76)">21</text><line class="cls-27" x1="397.98" y1="223.45" x2="450.54" y2="223.45"/><text class="cls-21" transform="translate(457.87 274.58)">Fzč</text><text class="cls-25" transform="translate(400.5 247.45)">NP</text><text class="cls-26" transform="translate(428.94 240.11)">34</text><line class="cls-27" x1="397.98" y1="223.45" x2="450.54" y2="223.45"/><line class="cls-27" x1="397.98" y1="253.81" x2="450.54" y2="253.81"/><text class="cls-21" transform="translate(192.9 274.58)">Eng</text><text class="cls-21" transform="translate(211.39 218.66)">19</text><text class="cls-25" transform="translate(400.5 277.8)">F</text><text class="cls-26" transform="translate(428.94 270.48)">30</text><line class="cls-27" x1="397.98" y1="253.81" x2="450.54" y2="253.81"/><line class="cls-28" x1="134.94" y1="193.09" x2="134.94" y2="284.17"/><line class="cls-28" x1="187.62" y1="193.09" x2="187.62" y2="284.17"/><line class="cls-28" x1="240.18" y1="193.09" x2="240.18" y2="284.17"/><line class="cls-28" x1="292.74" y1="193.09" x2="292.74" y2="284.17"/><line class="cls-28" x1="397.98" y1="193.09" x2="397.98" y2="284.17"/><line class="cls-28" x1="450.54" y1="193.09" x2="450.54" y2="284.17"/><line class="cls-28" x1="503.1" y1="193.09" x2="503.1" y2="284.17"/><line class="cls-28" x1="555.66" y1="193.09" x2="555.66" y2="284.17"/><line class="cls-28" x1="608.34" y1="193.09" x2="608.34" y2="284.17"/><line class="cls-28" x1="660.9" y1="193.09" x2="660.9" y2="284.17"/><line class="cls-28" x1="713.46" y1="193.09" x2="713.46" y2="284.17"/><line class="cls-28" x1="766.02" y1="193.09" x2="766.02" y2="284.17"/><line class="cls-28" x1="818.58" y1="193.09" x2="818.58" y2="284.17"/><text class="cls-21" transform="translate(300.66 365.66)">Srp</text><text class="cls-21" transform="translate(329.57 309.74)">6</text><text class="cls-23" transform="translate(363.54 365.9)">BP-PR</text><text class="cls-24" transform="translate(400.27 309.37)">1<tspan class="cls-30" x="11.79" y="0">8</tspan><tspan class="cls-31" x="23.7" y="0">,</tspan><tspan x="28.55" y="0">4</tspan></text><text class="cls-23" transform="translate(112.5 365.9)">NTP</text><text class="cls-24" transform="translate(156.65 309.37)">18</text><text class="cls-23" transform="translate(221.47 365.9)">Mat</text><text class="cls-24" transform="translate(261.77 309.37)">35</text><line class="cls-28" x1="187.62" y1="284.17" x2="187.62" y2="375.25"/><line class="cls-28" x1="292.74" y1="284.17" x2="292.74" y2="375.25"/><line class="cls-28" x1="345.3" y1="284.17" x2="345.3" y2="375.25"/><line class="cls-28" x1="450.54" y1="284.17" x2="450.54" y2="375.25"/><line class="cls-28" x1="503.1" y1="284.17" x2="503.1" y2="375.25"/><line class="cls-28" x1="555.66" y1="284.17" x2="555.66" y2="375.25"/><line class="cls-28" x1="608.34" y1="284.17" x2="608.34" y2="375.25"/><line class="cls-28" x1="660.9" y1="284.17" x2="660.9" y2="375.25"/><line class="cls-28" x1="713.46" y1="284.17" x2="713.46" y2="375.25"/><line class="cls-28" x1="766.02" y1="284.17" x2="766.02" y2="375.25"/><line class="cls-28" x1="818.58" y1="284.17" x2="818.58" y2="375.25"/><text class="cls-21" transform="translate(195.53 456.74)">Srp</text><text class="cls-21" transform="translate(211.39 400.8)">22</text><text class="cls-21" transform="translate(91.63 456.74)">B<tspan class="cls-22" x="12.75" y="0">i</tspan><tspan x="18.32" y="0">o</tspan></text><text class="cls-21" transform="translate(119.22 400.8)">9</text><text class="cls-21" transform="translate(250.74 456.74)">F<tspan class="cls-29" x="11.46" y="0">i</tspan><tspan class="cls-32" x="17.03" y="0">z</tspan></text><text class="cls-21" transform="translate(263.94 400.8)">25</text><text class="cls-25" transform="translate(400.5 399.24)">N</text><text class="cls-26" transform="translate(428.94 391.93)">19</text><line class="cls-27" x1="397.98" y1="405.61" x2="450.54" y2="405.61"/><text class="cls-21" transform="translate(350.7 456.74)">Eng</text><text class="cls-21" transform="translate(369.19 400.8)">19</text><text class="cls-21" transform="translate(294.19 456.74)">Dma</text><text class="cls-21" transform="translate(329.57 400.8)">3</text><text class="cls-25" transform="translate(400.5 459.98)">F</text><text class="cls-26" transform="translate(428.94 452.64)">30</text><line class="cls-27" x1="397.98" y1="435.97" x2="450.54" y2="435.97"/><text class="cls-21" transform="translate(141.66 456.74)">Mat</text><text class="cls-21" transform="translate(158.81 400.8)">35</text><line class="cls-28" x1="134.94" y1="375.25" x2="134.94" y2="466.33"/><line class="cls-28" x1="187.62" y1="375.25" x2="187.62" y2="466.33"/><line class="cls-28" x1="240.18" y1="375.25" x2="240.18" y2="466.33"/><line class="cls-28" x1="292.74" y1="375.25" x2="292.74" y2="466.33"/><line class="cls-28" x1="345.3" y1="375.25" x2="345.3" y2="466.33"/><line class="cls-28" x1="397.98" y1="375.25" x2="397.98" y2="466.33"/><line class="cls-28" x1="450.54" y1="375.25" x2="450.54" y2="466.33"/><line class="cls-28" x1="503.1" y1="375.25" x2="503.1" y2="466.33"/><line class="cls-28" x1="555.66" y1="375.25" x2="555.66" y2="466.33"/><line class="cls-28" x1="608.34" y1="375.25" x2="608.34" y2="466.33"/><line class="cls-28" x1="660.9" y1="375.25" x2="660.9" y2="466.33"/><line class="cls-28" x1="713.46" y1="375.25" x2="713.46" y2="466.33"/><line class="cls-28" x1="766.02" y1="375.25" x2="766.02" y2="466.33"/><line class="cls-28" x1="818.58" y1="375.25" x2="818.58" y2="466.33"/><text class="cls-21" transform="translate(300.66 547.82)">Srp</text><text class="cls-21" transform="translate(316.49 491.88)">22</text><text class="cls-21" transform="translate(250.74 547.82)">F<tspan class="cls-29" x="11.46" y="0">i</tspan><tspan class="cls-32" x="17.03" y="0">z</tspan></text><text class="cls-21" transform="translate(263.94 491.88)">25</text><text class="cls-21" transform="translate(194.94 547.82)">Fzč</text><text class="cls-23" transform="translate(363.54 548.05)">BP-PR</text><text class="cls-24" transform="translate(400.27 491.53)">1<tspan class="cls-30" x="11.79" y="0">8</tspan><tspan class="cls-31" x="23.7" y="0">,</tspan><tspan x="28.55" y="0">2</tspan></text><text class="cls-21" transform="translate(141.66 547.82)">Mat</text><text class="cls-21" transform="translate(158.81 491.88)">35</text><line class="cls-28" x1="134.94" y1="466.33" x2="134.94" y2="557.41"/><line class="cls-28" x1="187.62" y1="466.33" x2="187.62" y2="557.41"/><line class="cls-28" x1="240.18" y1="466.33" x2="240.18" y2="557.41"/><line class="cls-28" x1="292.74" y1="466.33" x2="292.74" y2="557.41"/><line class="cls-28" x1="345.3" y1="466.33" x2="345.3" y2="557.41"/><line class="cls-28" x1="450.54" y1="466.33" x2="450.54" y2="557.41"/><line class="cls-28" x1="503.1" y1="466.33" x2="503.1" y2="557.41"/><line class="cls-28" x1="555.66" y1="466.33" x2="555.66" y2="557.41"/><line class="cls-28" x1="608.34" y1="466.33" x2="608.34" y2="557.41"/><line class="cls-28" x1="660.9" y1="466.33" x2="660.9" y2="557.41"/><line class="cls-28" x1="713.46" y1="466.33" x2="713.46" y2="557.41"/><line class="cls-28" x1="766.02" y1="466.33" x2="766.02" y2="557.41"/><line class="cls-28" x1="818.58" y1="466.33" x2="818.58" y2="557.41"/><line class="cls-28" x1="82.38" y1="193.09" x2="134.94" y2="193.09"/><line class="cls-28" x1="134.94" y1="193.09" x2="187.62" y2="193.09"/><line class="cls-28" x1="187.62" y1="193.09" x2="240.18" y2="193.09"/><line class="cls-28" x1="240.18" y1="193.09" x2="292.74" y2="193.09"/><line class="cls-28" x1="292.74" y1="193.09" x2="345.3" y2="193.09"/><line class="cls-28" x1="345.3" y1="193.09" x2="397.98" y2="193.09"/><line class="cls-28" x1="397.98" y1="193.09" x2="450.54" y2="193.09"/><line class="cls-28" x1="450.54" y1="193.09" x2="503.1" y2="193.09"/><line class="cls-28" x1="503.1" y1="193.09" x2="555.66" y2="193.09"/><line class="cls-28" x1="555.66" y1="193.09" x2="608.34" y2="193.09"/><line class="cls-28" x1="608.34" y1="193.09" x2="660.9" y2="193.09"/><line class="cls-28" x1="660.9" y1="193.09" x2="713.46" y2="193.09"/><line class="cls-28" x1="713.46" y1="193.09" x2="766.02" y2="193.09"/><line class="cls-28" x1="766.02" y1="193.09" x2="818.58" y2="193.09"/><line class="cls-28" x1="82.38" y1="284.17" x2="134.94" y2="284.17"/><line class="cls-28" x1="134.94" y1="284.17" x2="187.62" y2="284.17"/><line class="cls-28" x1="187.62" y1="284.17" x2="240.18" y2="284.17"/><line class="cls-28" x1="240.18" y1="284.17" x2="292.74" y2="284.17"/><line class="cls-28" x1="292.74" y1="284.17" x2="345.3" y2="284.17"/><line class="cls-28" x1="345.3" y1="284.17" x2="397.98" y2="284.17"/><line class="cls-28" x1="397.98" y1="284.17" x2="450.54" y2="284.17"/><line class="cls-28" x1="450.54" y1="284.17" x2="503.1" y2="284.17"/><line class="cls-28" x1="503.1" y1="284.17" x2="555.66" y2="284.17"/><line class="cls-28" x1="555.66" y1="284.17" x2="608.34" y2="284.17"/><line class="cls-28" x1="608.34" y1="284.17" x2="660.9" y2="284.17"/><line class="cls-28" x1="660.9" y1="284.17" x2="713.46" y2="284.17"/><line class="cls-28" x1="713.46" y1="284.17" x2="766.02" y2="284.17"/><line class="cls-28" x1="766.02" y1="284.17" x2="818.58" y2="284.17"/><line class="cls-28" x1="82.38" y1="375.25" x2="134.94" y2="375.25"/><line class="cls-28" x1="134.94" y1="375.25" x2="187.62" y2="375.25"/><line class="cls-28" x1="187.62" y1="375.25" x2="240.18" y2="375.25"/><line class="cls-28" x1="240.18" y1="375.25" x2="292.74" y2="375.25"/><line class="cls-28" x1="292.74" y1="375.25" x2="345.3" y2="375.25"/><line class="cls-28" x1="345.3" y1="375.25" x2="397.98" y2="375.25"/><line class="cls-28" x1="397.98" y1="375.25" x2="450.54" y2="375.25"/><line class="cls-28" x1="450.54" y1="375.25" x2="503.1" y2="375.25"/><line class="cls-28" x1="503.1" y1="375.25" x2="555.66" y2="375.25"/><line class="cls-28" x1="555.66" y1="375.25" x2="608.34" y2="375.25"/><line class="cls-28" x1="608.34" y1="375.25" x2="660.9" y2="375.25"/><line class="cls-28" x1="660.9" y1="375.25" x2="713.46" y2="375.25"/><line class="cls-28" x1="713.46" y1="375.25" x2="766.02" y2="375.25"/><line class="cls-28" x1="766.02" y1="375.25" x2="818.58" y2="375.25"/><line class="cls-28" x1="82.38" y1="466.33" x2="134.94" y2="466.33"/><line class="cls-28" x1="134.94" y1="466.33" x2="187.62" y2="466.33"/><line class="cls-28" x1="187.62" y1="466.33" x2="240.18" y2="466.33"/><line class="cls-28" x1="240.18" y1="466.33" x2="292.74" y2="466.33"/><line class="cls-28" x1="292.74" y1="466.33" x2="345.3" y2="466.33"/><line class="cls-28" x1="345.3" y1="466.33" x2="397.98" y2="466.33"/><line class="cls-28" x1="397.98" y1="466.33" x2="450.54" y2="466.33"/><line class="cls-28" x1="450.54" y1="466.33" x2="503.1" y2="466.33"/><line class="cls-28" x1="503.1" y1="466.33" x2="555.66" y2="466.33"/><line class="cls-28" x1="555.66" y1="466.33" x2="608.34" y2="466.33"/><line class="cls-28" x1="608.34" y1="466.33" x2="660.9" y2="466.33"/><line class="cls-28" x1="660.9" y1="466.33" x2="713.46" y2="466.33"/><line class="cls-28" x1="713.46" y1="466.33" x2="766.02" y2="466.33"/><line class="cls-28" x1="766.02" y1="466.33" x2="818.58" y2="466.33"/><line class="cls-28" x1="82.38" y1="557.41" x2="134.94" y2="557.41"/><line class="cls-28" x1="134.94" y1="557.41" x2="187.62" y2="557.41"/><line class="cls-28" x1="187.62" y1="557.41" x2="240.18" y2="557.41"/><line class="cls-28" x1="240.18" y1="557.41" x2="292.74" y2="557.41"/><line class="cls-28" x1="292.74" y1="557.41" x2="345.3" y2="557.41"/><line class="cls-28" x1="345.3" y1="557.41" x2="397.98" y2="557.41"/><line class="cls-28" x1="397.98" y1="557.41" x2="450.54" y2="557.41"/><line class="cls-28" x1="450.54" y1="557.41" x2="503.1" y2="557.41"/><line class="cls-28" x1="503.1" y1="557.41" x2="555.66" y2="557.41"/><line class="cls-28" x1="555.66" y1="557.41" x2="608.34" y2="557.41"/><line class="cls-28" x1="608.34" y1="557.41" x2="660.9" y2="557.41"/><line class="cls-28" x1="660.9" y1="557.41" x2="713.46" y2="557.41"/><line class="cls-28" x1="713.46" y1="557.41" x2="766.02" y2="557.41"/><line class="cls-28" x1="766.02" y1="557.41" x2="818.58" y2="557.41"/><line class="cls-28" x1="818.58" y1="102.01" x2="818.58" y2="193.09"/><line class="cls-28" x1="818.58" y1="193.09" x2="818.58" y2="284.17"/><line class="cls-28" x1="818.58" y1="284.17" x2="818.58" y2="375.25"/><line class="cls-28" x1="818.58" y1="375.25" x2="818.58" y2="466.33"/><line class="cls-28" x1="818.58" y1="466.33" x2="818.58" y2="557.41"/><line class="cls-28" x1="0.66" y1="193.09" x2="82.38" y2="193.09"/><text class="cls-33" transform="translate(27.31 155.41)">P<tspan class="cls-34" x="12.37" y="0">o</tspan></text><line class="cls-28" x1="0.66" y1="284.17" x2="82.38" y2="284.17"/><text class="cls-24" transform="translate(29.81 246.5)"><tspan class="cls-35">U</tspan><tspan x="14.94" y="0">t</tspan></text><line class="cls-28" x1="0.66" y1="375.25" x2="82.38" y2="375.25"/><text class="cls-24" transform="translate(29.81 337.57)"><tspan class="cls-36">S</tspan><tspan x="11.47" y="0">r</tspan></text><line class="cls-28" x1="0.66" y1="466.33" x2="82.38" y2="466.33"/><text class="cls-37" transform="translate(26.71 428.64)">Č<tspan class="cls-34" x="13.4" y="0">e</tspan></text><line class="cls-28" x1="0.66" y1="557.41" x2="82.38" y2="557.41"/><text class="cls-33" transform="translate(27.31 519.73)">P<tspan class="cls-34" x="12.37" y="0">e</tspan></text><line class="cls-28" x1="82.38" y1="102.01" x2="82.38" y2="557.41"/><line class="cls-28" x1="134.94" y1="51.49" x2="134.94" y2="102.01"/><text class="cls-38" transform="translate(102.79 83.77)">0</text><line class="cls-28" x1="187.62" y1="51.49" x2="187.62" y2="102.01"/><text class="cls-38" transform="translate(155.46 83.77)">1</text><line class="cls-28" x1="240.18" y1="51.49" x2="240.18" y2="102.01"/><text class="cls-38" transform="translate(208.03 83.77)">2</text><line class="cls-28" x1="292.74" y1="51.49" x2="292.74" y2="102.01"/><text class="cls-38" transform="translate(260.58 83.77)">3</text><line class="cls-28" x1="345.3" y1="51.49" x2="345.3" y2="102.01"/><text class="cls-38" transform="translate(313.15 83.77)">4</text><line class="cls-28" x1="397.98" y1="51.49" x2="397.98" y2="102.01"/><text class="cls-38" transform="translate(365.83 83.77)">5</text><line class="cls-28" x1="450.54" y1="51.49" x2="450.54" y2="102.01"/><text class="cls-38" transform="translate(418.38 83.77)">6</text><line class="cls-28" x1="503.1" y1="51.49" x2="503.1" y2="102.01"/><text class="cls-38" transform="translate(470.95 83.77)">6</text><line class="cls-28" x1="555.66" y1="51.49" x2="555.66" y2="102.01"/><text class="cls-38" transform="translate(523.52 83.77)">5</text><line class="cls-28" x1="608.34" y1="51.49" x2="608.34" y2="102.01"/><text class="cls-38" transform="translate(576.19 83.77)">4</text><line class="cls-28" x1="660.9" y1="51.49" x2="660.9" y2="102.01"/><text class="cls-38" transform="translate(628.74 83.77)">3</text><line class="cls-28" x1="713.46" y1="51.49" x2="713.46" y2="102.01"/><text class="cls-38" transform="translate(681.31 83.77)">2</text><line class="cls-28" x1="766.02" y1="51.49" x2="766.02" y2="102.01"/><text class="cls-38" transform="translate(733.86 83.77)">1</text><line class="cls-28" x1="818.58" y1="51.49" x2="818.58" y2="102.01"/><text class="cls-38" transform="translate(786.43 83.77)">0</text><line class="cls-28" x1="82.38" y1="102.01" x2="818.58" y2="102.01"/><line class="cls-39" x1="818.58" y1="51.49" x2="818.58" y2="557.41"/><line class="cls-39" x1="0.66" y1="51.49" x2="0.66" y2="557.41"/><line class="cls-39" x1="0.66" y1="51.49" x2="818.58" y2="51.49"/><line class="cls-39" x1="0.66" y1="557.41" x2="818.58" y2="557.41"/><line class="cls-39" x1="82.38" y1="51.49" x2="82.38" y2="557.41"/><line class="cls-39" x1="0.66" y1="102.01" x2="818.58" y2="102.01"/><text class="cls-40" transform="translate(365.44 36.95)">I<tspan class="cls-41" x="10.55" y="0">I</tspan><tspan class="cls-42" x="21.06" y="0">I-5</tspan></text></g></g></g></g></svg>