<svg xmlns="http://www.w3.org/2000/svg" xmlns:xlink="http://www.w3.org/1999/xlink" viewBox="0 0 819.24 568.38"><defs><style>.cls-1,.cls-25,.cls-28,.cls-40{fill:none;}.cls-2{clip-path:url(#clip-path);}.cls-3{fill:#fff;}.cls-4{font-size:9.35px;}.cls-21,.cls-26,.cls-27,.cls-29,.cls-30,.cls-31,.cls-33,.cls-34,.cls-38,.cls-39,.cls-4,.cls-41{font-family:Arial;}.cls-5{letter-spacing:-0.02em;}.cls-6{letter-spacing:-0.01em;}.cls-7{letter-spacing:-0.01em;}.cls-8{letter-spacing:-0.01em;}.cls-9{letter-spacing:0em;}.cls-10{letter-spacing:-0.01em;}.cls-11{letter-spacing:-0.01em;}.cls-12{letter-spacing:0em;}.cls-13{letter-spacing:-0.01em;}.cls-14{letter-spacing:-0.01em;}.cls-15{letter-spacing:-0.01em;}.cls-16{letter-spacing:-0.01em;}.cls-17{letter-spacing:-0.02em;}.cls-18{letter-spacing:-0.01em;}.cls-19{letter-spacing:0em;}.cls-20{letter-spacing:-0.01em;}.cls-21{font-size:23.52px;}.cls-22{letter-spacing:0em;}.cls-23{letter-spacing:0em;}.cls-24{letter-spacing:0em;}.cls-25,.cls-28,.cls-40{stroke:#000;stroke-linecap:round;stroke-linejoin:round;}.cls-25{stroke-width:0.48px;}.cls-26{font-size:15.15px;}.cls-27{font-size:15.36px;}.cls-28{stroke-width:0.24px;}.cls-29{font-size:22.45px;}.cls-30,.cls-34,.cls-38{font-size:22.99px;}.cls-31{font-size:14.72px;}.cls-32{letter-spacing:0em;}.cls-33{font-size:15.04px;}.cls-34,.cls-37{letter-spacing:0.01em;}.cls-35{letter-spacing:0em;}.cls-36{letter-spacing:0em;}.cls-38{letter-spacing:0em;}.cls-39{font-size:20.62px;}.cls-40{stroke-width:1.32px;}.cls-41{font-size:44.15px;}.cls-42{letter-spacing:0em;}</style><clipPath id="clip-path" transform="translate(-11.22 -8.03)"><rect class="cls-1" width="841.89" height="595.28"/></clipPath></defs><title>IV6</title><g id="Layer_2" data-name="Layer 2"><g id="Layer_1-2" data-name="Layer 1"><g id="IV6"><g class="cls-2"><rect class="cls-3" x="0.66" y="40.57" width="231.6" height="10.44"/><text class="cls-4" transform="translate(0.66 48.96)"><tspan class="cls-5">M</tspan><tspan x="7.29" y="0">i</tspan><tspan class="cls-6" x="9.48" y="0">t</tspan><tspan x="12.47" y="0">rovačk</tspan><tspan class="cls-7" x="38.22" y="0">a </tspan><tspan class="cls-8" x="44.56" y="0">G</tspan><tspan class="cls-9" x="50.53" y="0">imn</tspan><tspan class="cls-10" x="65.69" y="0">a</tspan><tspan class="cls-11" x="70.11" y="0">z</tspan><tspan x="74" y="0">i</tspan><tspan class="cls-8" x="76.19" y="0">j</tspan><tspan class="cls-12" x="78.39" y="0">a</tspan><tspan class="cls-11" x="82.9" y="0">,</tspan><tspan class="cls-7" x="84.72" y="0"> </tspan><tspan class="cls-9" x="86.63" y="0">u</tspan><tspan class="cls-13" x="91.78" y="0">l</tspan><tspan class="cls-7" x="93.92" y="0">. </tspan><tspan class="cls-11" x="97.68" y="0">S</tspan><tspan x="102.18" y="0">v</tspan><tspan class="cls-14" x="106.67" y="0">.</tspan><tspan class="cls-7" x="108.54" y="0"> </tspan><tspan class="cls-15" x="110.45" y="0">S</tspan><tspan x="114.94" y="0">av</tspan><tspan class="cls-14" x="123.94" y="0">e</tspan><tspan class="cls-7" x="128.56" y="0"> </tspan><tspan x="130.46" y="0">2</tspan><tspan class="cls-15" x="135.26" y="0">,</tspan><tspan class="cls-7" x="137.08" y="0"> </tspan><tspan class="cls-11" x="138.98" y="0">S</tspan><tspan x="143.48" y="0">remska</tspan><tspan class="cls-16" x="171.6" y="0"> </tspan><tspan class="cls-5" x="173.48" y="0">M</tspan><tspan x="180.77" y="0">i</tspan><tspan class="cls-6" x="182.95" y="0">t</tspan><tspan x="185.94" y="0">rovica</tspan></text><text class="cls-4" transform="translate(0.66 566.05)">.</text><text class="cls-4" transform="translate(759.89 566.05)">a<tspan class="cls-17" x="4.5" y="0">S</tspan><tspan x="8.97" y="0">c</tspan><tspan class="cls-8" x="13.16" y="0"> </tspan><tspan x="15.07" y="0">R</tspan><tspan class="cls-18" x="20.1" y="0">a</tspan><tspan class="cls-19" x="24.55" y="0">sp</tspan><tspan class="cls-20" x="33.57" y="0">o</tspan><tspan x="38.63" y="0">red</tspan></text><text class="cls-21" transform="translate(569.59 183.49)">I<tspan class="cls-22" x="5.62" y="0">s</tspan><tspan x="14.89" y="0">t</tspan></text><text class="cls-21" transform="translate(579.54 127.58)">31</text><text class="cls-21" transform="translate(459.78 183.49)">B<tspan class="cls-23" x="12.75" y="0">i</tspan><tspan class="cls-24" x="18.32" y="0">o</tspan></text><text class="cls-21" transform="translate(487.39 127.58)">9</text><text class="cls-21" transform="translate(511.01 183.49)">Srp</text><text class="cls-21" transform="translate(539.95 127.58)">6</text><text class="cls-21" transform="translate(727.27 183.49)">F<tspan class="cls-23" x="11.46" y="0">i</tspan><tspan x="17.03" y="0">l</tspan></text><text class="cls-21" transform="translate(750.3 127.58)">0</text><text class="cls-21" transform="translate(615.67 183.49)">Fzč</text><text class="cls-21" transform="translate(674.1 183.49)">Inf</text><text class="cls-21" transform="translate(697.75 127.58)">3</text><line class="cls-25" x1="134.94" y1="102.01" x2="134.94" y2="193.09"/><line class="cls-25" x1="187.62" y1="102.01" x2="187.62" y2="193.09"/><line class="cls-25" x1="240.18" y1="102.01" x2="240.18" y2="193.09"/><line class="cls-25" x1="292.74" y1="102.01" x2="292.74" y2="193.09"/><line class="cls-25" x1="345.3" y1="102.01" x2="345.3" y2="193.09"/><line class="cls-25" x1="397.98" y1="102.01" x2="397.98" y2="193.09"/><line class="cls-25" x1="450.54" y1="102.01" x2="450.54" y2="193.09"/><line class="cls-25" x1="503.1" y1="102.01" x2="503.1" y2="193.09"/><line class="cls-25" x1="555.66" y1="102.01" x2="555.66" y2="193.09"/><line class="cls-25" x1="608.34" y1="102.01" x2="608.34" y2="193.09"/><line class="cls-25" x1="660.9" y1="102.01" x2="660.9" y2="193.09"/><line class="cls-25" x1="713.46" y1="102.01" x2="713.46" y2="193.09"/><line class="cls-25" x1="766.02" y1="102.01" x2="766.02" y2="193.09"/><line class="cls-25" x1="818.58" y1="102.01" x2="818.58" y2="193.09"/><text class="cls-21" transform="translate(569.59 274.58)">I<tspan class="cls-22" x="5.62" y="0">s</tspan><tspan x="14.89" y="0">t</tspan></text><text class="cls-21" transform="translate(579.54 218.66)">31</text><text class="cls-21" transform="translate(669.54 274.58)">Ust</text><text class="cls-21" transform="translate(697.75 218.66)">5</text><text class="cls-21" transform="translate(618.89 274.58)">F<tspan class="cls-23" x="11.46" y="0">i</tspan><tspan x="17.03" y="0">z</tspan></text><text class="cls-21" transform="translate(632.11 218.66)">25</text><text class="cls-26" transform="translate(505.6 243.38)">Š</text><text class="cls-27" transform="translate(544.49 244.21)">1</text><line class="cls-28" x1="503.1" y1="229.57" x2="555.66" y2="229.57"/><line class="cls-28" x1="503.1" y1="247.69" x2="555.66" y2="247.69"/><text class="cls-26" transform="translate(505.6 261.61)">F</text><text class="cls-27" transform="translate(544.49 262.33)">5</text><line class="cls-28" x1="503.1" y1="247.69" x2="555.66" y2="247.69"/><line class="cls-28" x1="503.1" y1="265.93" x2="555.66" y2="265.93"/><text class="cls-26" transform="translate(505.6 279.85)">I</text><text class="cls-27" transform="translate(544.49 280.57)">6</text><line class="cls-28" x1="503.1" y1="265.93" x2="555.66" y2="265.93"/><text class="cls-26" transform="translate(505.6 225.25)">N+</text><text class="cls-27" transform="translate(535.96 225.96)">33</text><line class="cls-28" x1="503.1" y1="211.33" x2="555.66" y2="211.33"/><line class="cls-28" x1="503.1" y1="229.57" x2="555.66" y2="229.57"/><text class="cls-21" transform="translate(458.46 274.58)">Srp</text><text class="cls-21" transform="translate(487.39 218.66)">6</text><text class="cls-21" transform="translate(718.75 274.58)">Eng</text><text class="cls-21" transform="translate(737.22 218.66)">19</text><line class="cls-25" x1="134.94" y1="193.09" x2="134.94" y2="284.17"/><line class="cls-25" x1="187.62" y1="193.09" x2="187.62" y2="284.17"/><line class="cls-25" x1="240.18" y1="193.09" x2="240.18" y2="284.17"/><line class="cls-25" x1="292.74" y1="193.09" x2="292.74" y2="284.17"/><line class="cls-25" x1="345.3" y1="193.09" x2="345.3" y2="284.17"/><line class="cls-25" x1="397.98" y1="193.09" x2="397.98" y2="284.17"/><line class="cls-25" x1="450.54" y1="193.09" x2="450.54" y2="284.17"/><line class="cls-25" x1="503.1" y1="193.09" x2="503.1" y2="284.17"/><line class="cls-25" x1="555.66" y1="193.09" x2="555.66" y2="284.17"/><line class="cls-25" x1="608.34" y1="193.09" x2="608.34" y2="284.17"/><line class="cls-25" x1="660.9" y1="193.09" x2="660.9" y2="284.17"/><line class="cls-25" x1="713.46" y1="193.09" x2="713.46" y2="284.17"/><line class="cls-25" x1="766.02" y1="193.09" x2="766.02" y2="284.17"/><line class="cls-25" x1="818.58" y1="193.09" x2="818.58" y2="284.17"/><text class="cls-21" transform="translate(670.15 365.66)">B<tspan class="cls-23" x="12.75" y="0">i</tspan><tspan class="cls-24" x="18.32" y="0">o</tspan></text><text class="cls-21" transform="translate(697.75 309.74)">9</text><text class="cls-21" transform="translate(614.35 365.66)">Soc</text><text class="cls-21" transform="translate(645.19 309.74)">6</text><text class="cls-29" transform="translate(485.58 365.9)">Srp</text><text class="cls-30" transform="translate(537.55 309.37)">6</text><text class="cls-29" transform="translate(747.32 365.9)">Mat</text><text class="cls-30" transform="translate(800.47 309.37)">3</text><text class="cls-21" transform="translate(557.1 365.66)">Hem</text><text class="cls-21" transform="translate(579.54 309.74)">22</text><line class="cls-25" x1="134.94" y1="284.17" x2="134.94" y2="375.25"/><line class="cls-25" x1="187.62" y1="284.17" x2="187.62" y2="375.25"/><line class="cls-25" x1="240.18" y1="284.17" x2="240.18" y2="375.25"/><line class="cls-25" x1="292.74" y1="284.17" x2="292.74" y2="375.25"/><line class="cls-25" x1="345.3" y1="284.17" x2="345.3" y2="375.25"/><line class="cls-25" x1="397.98" y1="284.17" x2="397.98" y2="375.25"/><line class="cls-25" x1="450.54" y1="284.17" x2="450.54" y2="375.25"/><line class="cls-25" x1="555.66" y1="284.17" x2="555.66" y2="375.25"/><line class="cls-25" x1="608.34" y1="284.17" x2="608.34" y2="375.25"/><line class="cls-25" x1="660.9" y1="284.17" x2="660.9" y2="375.25"/><line class="cls-25" x1="713.46" y1="284.17" x2="713.46" y2="375.25"/><line class="cls-25" x1="818.58" y1="284.17" x2="818.58" y2="375.25"/><text class="cls-21" transform="translate(618.89 456.74)">F<tspan class="cls-23" x="11.46" y="0">i</tspan><tspan x="17.03" y="0">z</tspan></text><text class="cls-21" transform="translate(632.11 400.8)">25</text><text class="cls-26" transform="translate(453.05 389.18)">N</text><text class="cls-27" transform="translate(483.4 389.88)">31</text><line class="cls-28" x1="450.54" y1="393.49" x2="503.1" y2="393.49"/><text class="cls-26" transform="translate(505.6 443.77)">F</text><text class="cls-27" transform="translate(534.29 444.49)">6P</text><line class="cls-28" x1="503.1" y1="429.85" x2="555.66" y2="429.85"/><line class="cls-28" x1="503.1" y1="448.09" x2="555.66" y2="448.09"/><text class="cls-26" transform="translate(505.6 462.01)">I</text><text class="cls-27" transform="translate(544.49 462.74)">0</text><line class="cls-28" x1="503.1" y1="448.09" x2="555.66" y2="448.09"/><text class="cls-26" transform="translate(505.6 407.29)">N+</text><text class="cls-27" transform="translate(535.96 408.13)">33</text><line class="cls-28" x1="503.1" y1="393.49" x2="555.66" y2="393.49"/><line class="cls-28" x1="503.1" y1="411.61" x2="555.66" y2="411.61"/><text class="cls-21" transform="translate(569.47 456.74)">F<tspan class="cls-23" x="11.46" y="0">i</tspan><tspan x="17.03" y="0">l</tspan></text><text class="cls-21" transform="translate(592.62 400.8)">0</text><text class="cls-21" transform="translate(773.35 456.74)">Fzč</text><text class="cls-29" transform="translate(693.44 456.97)">Eng</text><text class="cls-30" transform="translate(735.08 400.46)">19</text><line class="cls-25" x1="134.94" y1="375.25" x2="134.94" y2="466.33"/><line class="cls-25" x1="187.62" y1="375.25" x2="187.62" y2="466.33"/><line class="cls-25" x1="240.18" y1="375.25" x2="240.18" y2="466.33"/><line class="cls-25" x1="292.74" y1="375.25" x2="292.74" y2="466.33"/><line class="cls-25" x1="345.3" y1="375.25" x2="345.3" y2="466.33"/><line class="cls-25" x1="397.98" y1="375.25" x2="397.98" y2="466.33"/><line class="cls-25" x1="450.54" y1="375.25" x2="450.54" y2="466.33"/><line class="cls-25" x1="503.1" y1="375.25" x2="503.1" y2="466.33"/><line class="cls-25" x1="555.66" y1="375.25" x2="555.66" y2="466.33"/><line class="cls-25" x1="608.34" y1="375.25" x2="608.34" y2="466.33"/><line class="cls-25" x1="660.9" y1="375.25" x2="660.9" y2="466.33"/><line class="cls-25" x1="766.02" y1="375.25" x2="766.02" y2="466.33"/><line class="cls-25" x1="818.58" y1="375.25" x2="818.58" y2="466.33"/><text class="cls-21" transform="translate(614.35 547.82)">Soc</text><text class="cls-21" transform="translate(645.19 491.88)">0</text><text class="cls-31" transform="translate(493.51 498.49)"><tspan class="cls-32">N</tspan><tspan x="9.62" y="0">+</tspan></text><text class="cls-33" transform="translate(533.58 498.73)">33</text><line class="cls-28" x1="450.54" y1="484.45" x2="555.66" y2="484.45"/><line class="cls-28" x1="450.54" y1="502.69" x2="555.66" y2="502.69"/><text class="cls-26" transform="translate(453.05 480.12)">N</text><text class="cls-27" transform="translate(483.4 480.97)">31</text><line class="cls-25" x1="503.1" y1="466.33" x2="503.1" y2="484.45"/><line class="cls-28" x1="450.54" y1="484.45" x2="503.1" y2="484.45"/><text class="cls-26" transform="translate(453.05 516.61)">Š</text><text class="cls-27" transform="translate(481.73 517.32)">6P</text><line class="cls-25" x1="503.1" y1="502.69" x2="503.1" y2="520.93"/><line class="cls-28" x1="450.54" y1="502.69" x2="503.1" y2="502.69"/><line class="cls-28" x1="450.54" y1="520.93" x2="503.1" y2="520.93"/><text class="cls-21" transform="translate(779.82 547.82)">F<tspan class="cls-23" x="11.46" y="0">i</tspan><tspan x="17.03" y="0">l</tspan></text><text class="cls-21" transform="translate(802.87 491.88)">0</text><text class="cls-29" transform="translate(694.74 548.05)">Mat</text><text class="cls-30" transform="translate(747.9 491.53)">3</text><text class="cls-21" transform="translate(557.1 547.82)">Hem</text><text class="cls-21" transform="translate(579.54 491.88)">38</text><line class="cls-25" x1="134.94" y1="466.33" x2="134.94" y2="557.41"/><line class="cls-25" x1="187.62" y1="466.33" x2="187.62" y2="557.41"/><line class="cls-25" x1="240.18" y1="466.33" x2="240.18" y2="557.41"/><line class="cls-25" x1="292.74" y1="466.33" x2="292.74" y2="557.41"/><line class="cls-25" x1="345.3" y1="466.33" x2="345.3" y2="557.41"/><line class="cls-25" x1="397.98" y1="466.33" x2="397.98" y2="557.41"/><line class="cls-25" x1="450.54" y1="466.33" x2="450.54" y2="557.41"/><line class="cls-25" x1="555.66" y1="466.33" x2="555.66" y2="557.41"/><line class="cls-25" x1="608.34" y1="466.33" x2="608.34" y2="557.41"/><line class="cls-25" x1="660.9" y1="466.33" x2="660.9" y2="557.41"/><line class="cls-25" x1="766.02" y1="466.33" x2="766.02" y2="557.41"/><line class="cls-25" x1="818.58" y1="466.33" x2="818.58" y2="557.41"/><line class="cls-25" x1="82.38" y1="193.09" x2="134.94" y2="193.09"/><line class="cls-25" x1="134.94" y1="193.09" x2="187.62" y2="193.09"/><line class="cls-25" x1="187.62" y1="193.09" x2="240.18" y2="193.09"/><line class="cls-25" x1="240.18" y1="193.09" x2="292.74" y2="193.09"/><line class="cls-25" x1="292.74" y1="193.09" x2="345.3" y2="193.09"/><line class="cls-25" x1="345.3" y1="193.09" x2="397.98" y2="193.09"/><line class="cls-25" x1="397.98" y1="193.09" x2="450.54" y2="193.09"/><line class="cls-25" x1="450.54" y1="193.09" x2="503.1" y2="193.09"/><line class="cls-25" x1="503.1" y1="193.09" x2="555.66" y2="193.09"/><line class="cls-25" x1="555.66" y1="193.09" x2="608.34" y2="193.09"/><line class="cls-25" x1="608.34" y1="193.09" x2="660.9" y2="193.09"/><line class="cls-25" x1="660.9" y1="193.09" x2="713.46" y2="193.09"/><line class="cls-25" x1="713.46" y1="193.09" x2="766.02" y2="193.09"/><line class="cls-25" x1="766.02" y1="193.09" x2="818.58" y2="193.09"/><line class="cls-25" x1="82.38" y1="284.17" x2="134.94" y2="284.17"/><line class="cls-25" x1="134.94" y1="284.17" x2="187.62" y2="284.17"/><line class="cls-25" x1="187.62" y1="284.17" x2="240.18" y2="284.17"/><line class="cls-25" x1="240.18" y1="284.17" x2="292.74" y2="284.17"/><line class="cls-25" x1="292.74" y1="284.17" x2="345.3" y2="284.17"/><line class="cls-25" x1="345.3" y1="284.17" x2="397.98" y2="284.17"/><line class="cls-25" x1="397.98" y1="284.17" x2="450.54" y2="284.17"/><line class="cls-25" x1="450.54" y1="284.17" x2="503.1" y2="284.17"/><line class="cls-25" x1="503.1" y1="284.17" x2="555.66" y2="284.17"/><line class="cls-25" x1="555.66" y1="284.17" x2="608.34" y2="284.17"/><line class="cls-25" x1="608.34" y1="284.17" x2="660.9" y2="284.17"/><line class="cls-25" x1="660.9" y1="284.17" x2="713.46" y2="284.17"/><line class="cls-25" x1="713.46" y1="284.17" x2="766.02" y2="284.17"/><line class="cls-25" x1="766.02" y1="284.17" x2="818.58" y2="284.17"/><line class="cls-25" x1="82.38" y1="375.25" x2="134.94" y2="375.25"/><line class="cls-25" x1="134.94" y1="375.25" x2="187.62" y2="375.25"/><line class="cls-25" x1="187.62" y1="375.25" x2="240.18" y2="375.25"/><line class="cls-25" x1="240.18" y1="375.25" x2="292.74" y2="375.25"/><line class="cls-25" x1="292.74" y1="375.25" x2="345.3" y2="375.25"/><line class="cls-25" x1="345.3" y1="375.25" x2="397.98" y2="375.25"/><line class="cls-25" x1="397.98" y1="375.25" x2="450.54" y2="375.25"/><line class="cls-25" x1="450.54" y1="375.25" x2="503.1" y2="375.25"/><line class="cls-25" x1="503.1" y1="375.25" x2="555.66" y2="375.25"/><line class="cls-25" x1="555.66" y1="375.25" x2="608.34" y2="375.25"/><line class="cls-25" x1="608.34" y1="375.25" x2="660.9" y2="375.25"/><line class="cls-25" x1="660.9" y1="375.25" x2="713.46" y2="375.25"/><line class="cls-25" x1="713.46" y1="375.25" x2="766.02" y2="375.25"/><line class="cls-25" x1="766.02" y1="375.25" x2="818.58" y2="375.25"/><line class="cls-25" x1="82.38" y1="466.33" x2="134.94" y2="466.33"/><line class="cls-25" x1="134.94" y1="466.33" x2="187.62" y2="466.33"/><line class="cls-25" x1="187.62" y1="466.33" x2="240.18" y2="466.33"/><line class="cls-25" x1="240.18" y1="466.33" x2="292.74" y2="466.33"/><line class="cls-25" x1="292.74" y1="466.33" x2="345.3" y2="466.33"/><line class="cls-25" x1="345.3" y1="466.33" x2="397.98" y2="466.33"/><line class="cls-25" x1="397.98" y1="466.33" x2="450.54" y2="466.33"/><line class="cls-25" x1="450.54" y1="466.33" x2="503.1" y2="466.33"/><line class="cls-25" x1="503.1" y1="466.33" x2="555.66" y2="466.33"/><line class="cls-25" x1="555.66" y1="466.33" x2="608.34" y2="466.33"/><line class="cls-25" x1="608.34" y1="466.33" x2="660.9" y2="466.33"/><line class="cls-25" x1="660.9" y1="466.33" x2="713.46" y2="466.33"/><line class="cls-25" x1="713.46" y1="466.33" x2="766.02" y2="466.33"/><line class="cls-25" x1="766.02" y1="466.33" x2="818.58" y2="466.33"/><line class="cls-25" x1="82.38" y1="557.41" x2="134.94" y2="557.41"/><line class="cls-25" x1="134.94" y1="557.41" x2="187.62" y2="557.41"/><line class="cls-25" x1="187.62" y1="557.41" x2="240.18" y2="557.41"/><line class="cls-25" x1="240.18" y1="557.41" x2="292.74" y2="557.41"/><line class="cls-25" x1="292.74" y1="557.41" x2="345.3" y2="557.41"/><line class="cls-25" x1="345.3" y1="557.41" x2="397.98" y2="557.41"/><line class="cls-25" x1="397.98" y1="557.41" x2="450.54" y2="557.41"/><line class="cls-25" x1="450.54" y1="557.41" x2="503.1" y2="557.41"/><line class="cls-25" x1="503.1" y1="557.41" x2="555.66" y2="557.41"/><line class="cls-25" x1="555.66" y1="557.41" x2="608.34" y2="557.41"/><line class="cls-25" x1="608.34" y1="557.41" x2="660.9" y2="557.41"/><line class="cls-25" x1="660.9" y1="557.41" x2="713.46" y2="557.41"/><line class="cls-25" x1="713.46" y1="557.41" x2="766.02" y2="557.41"/><line class="cls-25" x1="766.02" y1="557.41" x2="818.58" y2="557.41"/><line class="cls-25" x1="818.58" y1="102.01" x2="818.58" y2="193.09"/><line class="cls-25" x1="818.58" y1="193.09" x2="818.58" y2="284.17"/><line class="cls-25" x1="818.58" y1="284.17" x2="818.58" y2="375.25"/><line class="cls-25" x1="818.58" y1="375.25" x2="818.58" y2="466.33"/><line class="cls-25" x1="818.58" y1="466.33" x2="818.58" y2="557.41"/><line class="cls-25" x1="0.66" y1="193.09" x2="82.38" y2="193.09"/><text class="cls-34" transform="translate(27.31 155.41)">P<tspan class="cls-35" x="12.37" y="0">o</tspan></text><line class="cls-25" x1="0.66" y1="284.17" x2="82.38" y2="284.17"/><text class="cls-30" transform="translate(29.81 246.5)"><tspan class="cls-36">U</tspan><tspan x="14.94" y="0">t</tspan></text><line class="cls-25" x1="0.66" y1="375.25" x2="82.38" y2="375.25"/><text class="cls-30" transform="translate(29.81 337.57)"><tspan class="cls-37">S</tspan><tspan x="11.47" y="0">r</tspan></text><line class="cls-25" x1="0.66" y1="466.33" x2="82.38" y2="466.33"/><text class="cls-38" transform="translate(26.71 428.64)">Č<tspan class="cls-35" x="13.4" y="0">e</tspan></text><line class="cls-25" x1="0.66" y1="557.41" x2="82.38" y2="557.41"/><text class="cls-34" transform="translate(27.31 519.73)">P<tspan class="cls-35" x="12.37" y="0">e</tspan></text><line class="cls-25" x1="82.38" y1="102.01" x2="82.38" y2="557.41"/><line class="cls-25" x1="134.94" y1="51.49" x2="134.94" y2="102.01"/><text class="cls-39" transform="translate(102.79 83.77)">0</text><line class="cls-25" x1="187.62" y1="51.49" x2="187.62" y2="102.01"/><text class="cls-39" transform="translate(155.46 83.77)">1</text><line class="cls-25" x1="240.18" y1="51.49" x2="240.18" y2="102.01"/><text class="cls-39" transform="translate(208.03 83.77)">2</text><line class="cls-25" x1="292.74" y1="51.49" x2="292.74" y2="102.01"/><text class="cls-39" transform="translate(260.58 83.77)">3</text><line class="cls-25" x1="345.3" y1="51.49" x2="345.3" y2="102.01"/><text class="cls-39" transform="translate(313.15 83.77)">4</text><line class="cls-25" x1="397.98" y1="51.49" x2="397.98" y2="102.01"/><text class="cls-39" transform="translate(365.83 83.77)">5</text><line class="cls-25" x1="450.54" y1="51.49" x2="450.54" y2="102.01"/><text class="cls-39" transform="translate(418.38 83.77)">6</text><line class="cls-25" x1="503.1" y1="51.49" x2="503.1" y2="102.01"/><text class="cls-39" transform="translate(470.95 83.77)">6</text><line class="cls-25" x1="555.66" y1="51.49" x2="555.66" y2="102.01"/><text class="cls-39" transform="translate(523.52 83.77)">5</text><line class="cls-25" x1="608.34" y1="51.49" x2="608.34" y2="102.01"/><text class="cls-39" transform="translate(576.19 83.77)">4</text><line class="cls-25" x1="660.9" y1="51.49" x2="660.9" y2="102.01"/><text class="cls-39" transform="translate(628.74 83.77)">3</text><line class="cls-25" x1="713.46" y1="51.49" x2="713.46" y2="102.01"/><text class="cls-39" transform="translate(681.31 83.77)">2</text><line class="cls-25" x1="766.02" y1="51.49" x2="766.02" y2="102.01"/><text class="cls-39" transform="translate(733.86 83.77)">1</text><line class="cls-25" x1="818.58" y1="51.49" x2="818.58" y2="102.01"/><text class="cls-39" transform="translate(786.43 83.77)">0</text><line class="cls-25" x1="82.38" y1="102.01" x2="818.58" y2="102.01"/><line class="cls-40" x1="818.58" y1="51.49" x2="818.58" y2="557.41"/><line class="cls-40" x1="0.66" y1="51.49" x2="0.66" y2="557.41"/><line class="cls-40" x1="0.66" y1="51.49" x2="818.58" y2="51.49"/><line class="cls-40" x1="0.66" y1="557.41" x2="818.58" y2="557.41"/><line class="cls-40" x1="82.38" y1="51.49" x2="82.38" y2="557.41"/><line class="cls-40" x1="0.66" y1="102.01" x2="818.58" y2="102.01"/><text class="cls-41" transform="translate(363.06 36.95)">I<tspan class="cls-42" x="10.55" y="0">V</tspan><tspan x="35.14" y="0">-6</tspan></text></g></g></g></g></svg>