<?xml version="1.0" encoding="utf-8"?>
<!-- Generator: Adobe Illustrator 23.0.0, SVG Export Plug-In . SVG Version: 6.00 Build 0)  -->
<svg version="1.1" id="Layer_1" xmlns="http://www.w3.org/2000/svg" xmlns:xlink="http://www.w3.org/1999/xlink" x="0px" y="0px"
	 viewBox="0 0 16 16" style="enable-background:new 0 0 16 16;" xml:space="preserve">
<g>
	<g id="Layer_1-2">
		<path d="M3,5.3c0.9,0,1.6,0.1,2.1,0.2c0.5,0.2,1,0.5,1.4,0.9c0.4,0.5,0.6,1,0.6,1.7c0,0.6-0.2,1.1-0.5,1.6l1.5,0.8L16,6.2L8.1,1.9
			L1.8,5.3H3z"/>
		<path d="M8.1,11.4l-2-1.1c-0.2,0.1-0.3,0.2-0.5,0.3l1.1,1.5c0.4,0.6,0.7,0.8,0.8,0.9c0.2,0.1,0.4,0.2,0.8,0.2l0.5,0
			c0.1,0,0.2,0.1,0.2,0.2v0.3l3.3-1.8L12.4,9L8.1,11.4z"/>
		<path d="M5.9,14.1h2.2V14c0-0.1,0-0.1-0.1-0.1c-0.4-0.1-0.7-0.2-1-0.3c-0.3-0.2-0.6-0.5-1-1.1l-1.7-2.3C5,10,5.5,9.8,5.9,9.4
			c0.3-0.4,0.5-0.8,0.5-1.3c0-0.5-0.1-0.9-0.4-1.2c-0.3-0.3-0.6-0.6-1-0.7C4.5,6.1,3.8,6,3,6H0v0.2h0.3c0.3,0,0.5,0.1,0.7,0.3
			c0.1,0.1,0.2,0.4,0.2,1v5.2c0,0.5,0,0.8-0.1,0.9c-0.1,0.2-0.4,0.3-0.7,0.3H0v0.2h3.5v-0.2H3.2c-0.3,0-0.5-0.1-0.7-0.3
			c-0.1-0.1-0.2-0.4-0.2-1v-2.4c0.1,0,0.1,0,0.2,0s0.1,0,0.2,0c0.1,0,0.3,0,0.5,0L5.9,14.1z M2.6,10c0,0-0.1,0-0.1,0
			c-0.1,0-0.1,0-0.2,0V6.6C2.7,6.5,3,6.5,3.3,6.5c0.5,0,0.9,0.2,1.3,0.5C4.8,7.3,5,7.7,5,8.2c0,0.5-0.2,1-0.6,1.3
			C4,9.8,3.4,10,2.6,10z"/>
	</g>
</g>
</svg>
