<svg xmlns="http://www.w3.org/2000/svg" xmlns:xlink="http://www.w3.org/1999/xlink" viewBox="0 0 700 930"><defs><style>.a{clip-path:url(#b);}.b{fill:#e4e4e4;}.c{fill:#9e9e9e;font-family:Calibri-Bold, Calibri;font-weight:700;}.c,.e{font-size:40px;}.d{fill:#fff;}.e{fill:#4b4b4b;font-family:Calibri;}.f{fill:#f5f5f5;}</style><clipPath id="b"><rect width="700" height="930"/></clipPath></defs><g id="a" class="a"><rect class="d" width="700" height="930"/><rect class="b" width="700" height="60"/><text class="c" transform="translate(350 43)"><tspan x="-85.137" y="0">Pre podne</tspan></text><rect class="d" width="700" height="60" transform="translate(0 58)"/><text class="e" transform="translate(175 100)"><tspan x="-15.186" y="0">0.</tspan></text><text class="e" transform="translate(525 100)"><tspan x="-86.689" y="0">7:15 - 7:55</tspan></text><rect class="f" width="700" height="60" transform="translate(0 116)"/><text class="e" transform="translate(175 158)"><tspan x="-15.186" y="0">1.</tspan></text><text class="e" transform="translate(525 158)"><tspan x="-86.689" y="0">8:00 - 8:45</tspan></text><rect class="d" width="700" height="60" transform="translate(0 174)"/><text class="e" transform="translate(175 216)"><tspan x="-15.186" y="0">2.</tspan></text><text class="e" transform="translate(525 216)"><tspan x="-86.689" y="0">8:50 - 9:35</tspan></text><rect class="f" width="700" height="60" transform="translate(0 232)"/><text class="e" transform="translate(175 274)"><tspan x="-15.186" y="0">3.</tspan></text><text class="e" transform="translate(525 274)"><tspan x="-101.348" y="0">9:50 - 10:35 </tspan></text><rect class="d" width="700" height="60" transform="translate(0 290)"/><text class="e" transform="translate(175 332)"><tspan x="-15.186" y="0">4.</tspan></text><text class="e" transform="translate(525 332)"><tspan x="-106.963" y="0">10:40 - 11:25</tspan></text><rect class="f" width="700" height="60" transform="translate(0 348)"/><text class="e" transform="translate(175 390)"><tspan x="-15.186" y="0">5.</tspan></text><text class="e" transform="translate(525 390)"><tspan x="-106.963" y="0">11:30 - 12:15</tspan></text><rect class="d" width="700" height="60" transform="translate(0 406)"/><text class="e" transform="translate(175 448)"><tspan x="-15.186" y="0">6.</tspan></text><text class="e" transform="translate(525 448)"><tspan x="-106.963" y="0">12:20 - 13:00</tspan></text><rect class="b" width="700" height="60" transform="translate(0 464)"/><text class="c" transform="translate(350 507)"><tspan x="-101.572" y="0">Posle podne</tspan></text><rect class="f" width="700" height="60" transform="translate(0 522)"/><text class="e" transform="translate(175 564)"><tspan x="-15.186" y="0">1.</tspan></text><text class="e" transform="translate(525 564)"><tspan x="-106.963" y="0">13:05 - 13:50</tspan></text><rect class="d" width="700" height="60" transform="translate(0 580)"/><text class="e" transform="translate(175 622)"><tspan x="-15.186" y="0">2.</tspan></text><text class="e" transform="translate(525 622)"><tspan x="-106.963" y="0">13:55 - 14:40</tspan></text><rect class="f" width="700" height="60" transform="translate(0 638)"/><text class="e" transform="translate(175 680)"><tspan x="-15.186" y="0">3.</tspan></text><text class="e" transform="translate(525 680)"><tspan x="-106.963" y="0">14:55 - 15:40</tspan></text><rect class="d" width="700" height="60" transform="translate(0 696)"/><text class="e" transform="translate(175 738)"><tspan x="-15.186" y="0">4.</tspan></text><text class="e" transform="translate(525 738)"><tspan x="-106.963" y="0">15:45 - 16:30</tspan></text><rect class="f" width="700" height="60" transform="translate(0 754)"/><text class="e" transform="translate(175 796)"><tspan x="-15.186" y="0">5.</tspan></text><text class="e" transform="translate(525 796)"><tspan x="-106.963" y="0">16:35 - 17:20</tspan></text><rect class="d" width="700" height="60" transform="translate(0 812)"/><text class="e" transform="translate(175 854)"><tspan x="-15.186" y="0">6.</tspan></text><text class="e" transform="translate(525 854)"><tspan x="-106.963" y="0">17:25 - 18:10</tspan></text><rect class="f" width="700" height="60" transform="translate(0 870)"/><text class="e" transform="translate(175 912)"><tspan x="-15.186" y="0">7.</tspan></text><text class="e" transform="translate(525 912)"><tspan x="-106.963" y="0">18:15 - 19:00</tspan></text></g></svg>