<?xml version="1.0" encoding="UTF-8" standalone="no"?>
<!DOCTYPE svg PUBLIC "-//W3C//DTD SVG 1.1//EN"
"http://www.w3.org/Graphics/SVG/1.1/DTD/svg11.dtd">


<!-- Page 9 -->
<svg x="0" y="0" width="1286" height="909" viewBox="0 0 1286 909" version="1.1" xmlns="http://www.w3.org/2000/svg" xmlns:xlink="http://www.w3.org/1999/xlink"
style="display: block;margin-left: auto;margin-right: auto;">
<defs>

<style type="text/css"><![CDATA[
text { white-space: pre; }
path, image { pointer-events: none; }
text::-moz-selection {
	color: transparent;
	background: rgba(0, 106, 173, 0.4);
}
text::selection {
	color: transparent;
	background: rgba(0, 106, 173, 0.4);
}

.s1_9{
font-size: 14.11px;
font-family: ArialMT_3o;
fill: TRANSPARENT;
}
.s2_9{
font-size: 51.20px;
font-family: ArialMT_3o;
fill: TRANSPARENT;
}
.s3_9{
font-size: 30.52px;
font-family: ArialMT_3o;
fill: TRANSPARENT;
}
.s4_9{
font-size: 44.96px;
font-family: ArialMT_3o;
fill: TRANSPARENT;
}
.s5_9{
font-size: 30.19px;
font-family: ArialMT_3o;
fill: TRANSPARENT;
}
.s6_9{
font-size: 49.56px;
font-family: ArialMT_3o;
fill: TRANSPARENT;
}
.s7_9{
font-size: 22.97px;
font-family: ArialMT_3o;
fill: TRANSPARENT;
}
.s8_9{
font-size: 42.67px;
font-family: Arial-BoldMT_3u;
fill: TRANSPARENT;
}

.g0_9{
fill: #FFFFFF;
}
.g1_9{
fill: none;
stroke: #000000;
stroke-width: 1.4665139;
stroke-linecap: round;
stroke-linejoin: round;
}
.g2_9{
fill: none;
stroke: #000000;
stroke-width: 4.0331807;
stroke-linecap: round;
stroke-linejoin: round;
}

]]></style>

</defs>
<path d="M0,0
L0,909
L1286,909
L1286,0 Z " 
fill="#FFFFFF" stroke="none" />
<path d="M18,88.8H369.2V73.4H18V88.8Z" class="g0_9" />
<g fill="#000000" >
<use xlink:href="#f0_1d" transform="matrix(9.2,0,0,9.2,18,85.9)" />
<use xlink:href="#f0_25" transform="matrix(9.2,0,0,9.2,29.3,85.9)" />
<use xlink:href="#f0_2g" transform="matrix(9.2,0,0,9.2,32.6,85.9)" />
<use xlink:href="#f0_2e" transform="matrix(9.2,0,0,9.2,36.7,85.9)" />
<use xlink:href="#f0_2b" transform="matrix(9.2,0,0,9.2,41.4,85.9)" />
<use xlink:href="#f0_2i" transform="matrix(9.2,0,0,9.2,49.1,85.9)" />
<use xlink:href="#f0_1x" transform="matrix(9.2,0,0,9.2,56.1,85.9)" />
<use xlink:href="#f0_73" transform="matrix(9.2,0,0,9.2,63.8,85.9)" />
<use xlink:href="#f0_27" transform="matrix(9.2,0,0,9.2,70.8,85.9)" />
<use xlink:href="#f0_1x" transform="matrix(9.2,0,0,9.2,77.7,85.9)" />
<use xlink:href="#f0_17" transform="matrix(9.2,0,0,9.2,89.5,85.9)" />
<use xlink:href="#f0_25" transform="matrix(9.2,0,0,9.2,100.5,85.9)" />
<use xlink:href="#f0_29" transform="matrix(9.2,0,0,9.2,103.8,85.9)" />
<use xlink:href="#f0_2a" transform="matrix(9.2,0,0,9.2,115.8,85.9)" />
<use xlink:href="#f0_1x" transform="matrix(9.2,0,0,9.2,123.6,85.9)" />
<use xlink:href="#f0_2m" transform="matrix(9.2,0,0,9.2,131.3,85.9)" />
<use xlink:href="#f0_25" transform="matrix(9.2,0,0,9.2,137.9,85.9)" />
<use xlink:href="#f0_26" transform="matrix(9.2,0,0,9.2,141.2,85.9)" />
<use xlink:href="#f0_1x" transform="matrix(9.2,0,0,9.2,144.4,85.9)" />
<use xlink:href="#f0_g" transform="matrix(9.2,0,0,9.2,152.1,85.9)" />
<use xlink:href="#f0_2h" transform="matrix(9.2,0,0,9.2,160.2,85.9)" />
<use xlink:href="#f0_28" transform="matrix(9.2,0,0,9.2,167.9,85.9)" />
<use xlink:href="#f0_i" transform="matrix(9.2,0,0,9.2,171.2,85.9)" />
<use xlink:href="#f0_1j" transform="matrix(9.2,0,0,9.2,179.2,85.9)" />
<use xlink:href="#f0_2i" transform="matrix(9.2,0,0,9.2,188.4,85.9)" />
<use xlink:href="#f0_i" transform="matrix(9.2,0,0,9.2,195.4,85.9)" />
<use xlink:href="#f0_1j" transform="matrix(9.2,0,0,9.2,203.4,85.9)" />
<use xlink:href="#f0_1x" transform="matrix(9.2,0,0,9.2,212.6,85.9)" />
<use xlink:href="#f0_2i" transform="matrix(9.2,0,0,9.2,220.3,85.9)" />
<use xlink:href="#f0_21" transform="matrix(9.2,0,0,9.2,227.3,85.9)" />
<use xlink:href="#f0_m" transform="matrix(9.2,0,0,9.2,238.6,85.9)" />
<use xlink:href="#f0_g" transform="matrix(9.2,0,0,9.2,246.3,85.9)" />
<use xlink:href="#f0_1j" transform="matrix(9.2,0,0,9.2,254.4,85.9)" />
<use xlink:href="#f0_2e" transform="matrix(9.2,0,0,9.2,263.6,85.9)" />
<use xlink:href="#f0_21" transform="matrix(9.2,0,0,9.2,268.3,85.9)" />
<use xlink:href="#f0_29" transform="matrix(9.2,0,0,9.2,275.7,85.9)" />
<use xlink:href="#f0_2f" transform="matrix(9.2,0,0,9.2,287.8,85.9)" />
<use xlink:href="#f0_27" transform="matrix(9.2,0,0,9.2,294.7,85.9)" />
<use xlink:href="#f0_1x" transform="matrix(9.2,0,0,9.2,301.7,85.9)" />
<use xlink:href="#f0_1d" transform="matrix(9.2,0,0,9.2,313.4,85.9)" />
<use xlink:href="#f0_25" transform="matrix(9.2,0,0,9.2,324.8,85.9)" />
<use xlink:href="#f0_2g" transform="matrix(9.2,0,0,9.2,328.1,85.9)" />
<use xlink:href="#f0_2e" transform="matrix(9.2,0,0,9.2,332.1,85.9)" />
<use xlink:href="#f0_2b" transform="matrix(9.2,0,0,9.2,336.9,85.9)" />
<use xlink:href="#f0_2i" transform="matrix(9.2,0,0,9.2,344.6,85.9)" />
<use xlink:href="#f0_25" transform="matrix(9.2,0,0,9.2,351.6,85.9)" />
<use xlink:href="#f0_1z" transform="matrix(9.2,0,0,9.2,354.8,85.9)" />
<use xlink:href="#f0_1x" transform="matrix(9.2,0,0,9.2,361.8,85.9)" />
<use xlink:href="#f0_i" transform="matrix(9.2,0,0,9.2,18,876.8)" />
</g>
<text x="17" y="85" dx="0,-0.4,0.2,0.1,0.1,-0.1,-0.1,-0.1,-0.1,-0.1,-0.1,0.1,0,0.2,0.3,-0.1,-0.1,-0.5,0.2,0.2,-0.1,0.1,0.1,-0.1,0.2,0.1,0.1,-0.2,-0.1,0.1,0.1,-0.2,-0.1,-0.1,-0.5,0.1,-0.1,0.1,0.1,-0.2,0.1,-0.5,0.3,-0.1,-0.1,-0.1,0.1,-0.4,0.2,0.1,0.1,-0.1,-0.1,0.2,-0.1" class="s1_9">Mitrovačka Gimnazija, ul. Sv. Save 2, Sremska Mitrovica</text>
<g fill="#000000" >
<use xlink:href="#f0_1x" transform="matrix(9.2,0,0,9.2,1180.7,876.8)" />
<use xlink:href="#f0_1j" transform="matrix(9.2,0,0,9.2,1188.4,876.8)" />
<use xlink:href="#f0_1z" transform="matrix(9.2,0,0,9.2,1197.5,876.8)" />
<use xlink:href="#f0_1i" transform="matrix(9.2,0,0,9.2,1208.5,876.8)" />
<use xlink:href="#f0_1x" transform="matrix(9.2,0,0,9.2,1218.5,876.8)" />
<use xlink:href="#f0_2f" transform="matrix(9.2,0,0,9.2,1226.2,876.8)" />
<use xlink:href="#f0_2c" transform="matrix(9.2,0,0,9.2,1233.1,876.8)" />
<use xlink:href="#f0_2b" transform="matrix(9.2,0,0,9.2,1240.8,876.8)" />
<use xlink:href="#f0_2e" transform="matrix(9.2,0,0,9.2,1248.5,876.8)" />
<use xlink:href="#f0_21" transform="matrix(9.2,0,0,9.2,1253.3,876.8)" />
<use xlink:href="#f0_20" transform="matrix(9.2,0,0,9.2,1260.6,876.8)" />
<use xlink:href="#f0_19" transform="matrix(33.5,0,0,33.5,192.5,288.6)" />
</g>
<text x="17" y="876" class="s1_9">.</text>
<text x="1180" y="876" dx="0,-0.1,-0.2,-0.1,0.1,-0.3,-0.1,-0.1,-0.1,-0.1,0.1,-0.5" class="s1_9">aSc Raspored</text>
<g fill="#000000" >
<use xlink:href="#f0_19" transform="matrix(33.5,0,0,33.5,206.8,288.6)" />
<use xlink:href="#f0_19" transform="matrix(33.5,0,0,33.5,221.1,288.6)" />
<use xlink:href="#f0_l" transform="matrix(33.5,0,0,33.5,235.4,288.6)" />
<use xlink:href="#f0_l" transform="matrix(20,0,0,20,231.7,201.7)" />
</g>
<text x="192" y="288" dx="0,0.1,0.1,0.1" class="s2_9">III1</text>
<g fill="#000000" >
<use xlink:href="#f0_t" transform="matrix(20,0,0,20,248.6,201.7)" />
<use xlink:href="#f0_19" transform="matrix(33.5,0,0,33.5,289.7,288.6)" />
</g>
<text x="231" y="201" dx="0,-0.1" class="s3_9">19</text>
<g fill="#000000" >
<use xlink:href="#f0_o" transform="matrix(33.5,0,0,33.5,304,288.6)" />
<use xlink:href="#f0_l" transform="matrix(20,0,0,20,314.6,201.7)" />
</g>
<text x="289" y="288" dx="0,0.1" class="s2_9">I4</text>
<g fill="#000000" >
<use xlink:href="#f0_t" transform="matrix(20,0,0,20,331.5,201.7)" />
<use xlink:href="#f0_19" transform="matrix(33.5,0,0,33.5,109.3,288.6)" />
</g>
<text x="314" y="201" dx="0,-0.1" class="s3_9">19</text>
<g fill="#000000" >
<use xlink:href="#f0_19" transform="matrix(33.5,0,0,33.5,123.6,288.6)" />
<use xlink:href="#f0_19" transform="matrix(33.5,0,0,33.5,137.8,288.6)" />
<use xlink:href="#f0_o" transform="matrix(33.5,0,0,33.5,152.1,288.6)" />
<use xlink:href="#f0_l" transform="matrix(20,0,0,20,148.5,201.7)" />
</g>
<text x="109" y="288" dx="0,0.1,0.1,0.1" class="s2_9">III4</text>
<g fill="#000000" >
<use xlink:href="#f0_t" transform="matrix(20,0,0,20,165.4,201.7)" />
</g>
<text x="148" y="201" dx="0,-0.1" class="s3_9">19</text>
<path d="M186.6,167.6V307M269.9,167.6V307M352.7,167.6V307M436,167.6V307M519.2,167.6V307M602.4,167.6V307M685.7,167.6V307M768.9,167.6V307M852.1,167.6V307M935.4,167.6V307m83.2,-139.4V307m83.2,-139.4V307m83.3,-139.4V307m83.2,-139.4V307" class="g1_9" />
<g fill="#000000" >
<use xlink:href="#f0_19" transform="matrix(29.4,0,0,29.4,993.7,429.1)" />
<use xlink:href="#f0_19" transform="matrix(29.4,0,0,29.4,1006.2,429.1)" />
<use xlink:href="#f0_l" transform="matrix(29.4,0,0,29.4,1018.7,429.1)" />
<use xlink:href="#f0_l" transform="matrix(19.8,0,0,19.8,1059.7,340.7)" />
</g>
<text x="993" y="429" class="s4_9">II1</text>
<g fill="#000000" >
<use xlink:href="#f0_t" transform="matrix(19.8,0,0,19.8,1076.5,340.7)" />
<use xlink:href="#f0_19" transform="matrix(33.5,0,0,33.5,1197.9,427.6)" />
</g>
<text x="1059" y="340" dx="0,0.1" class="s5_9">19</text>
<g fill="#000000" >
<use xlink:href="#f0_19" transform="matrix(33.5,0,0,33.5,1212.2,427.6)" />
<use xlink:href="#f0_m" transform="matrix(33.5,0,0,33.5,1226.5,427.6)" />
<use xlink:href="#f0_l" transform="matrix(20,0,0,20,1230.2,340.7)" />
</g>
<text x="1197" y="427" dx="0,0.1,0.1" class="s2_9">II2</text>
<g fill="#000000" >
<use xlink:href="#f0_t" transform="matrix(20,0,0,20,1247,340.7)" />
<use xlink:href="#f0_19" transform="matrix(33.5,0,0,33.5,1104.8,427.6)" />
</g>
<text x="1230" y="340" dx="0,-0.1" class="s3_9">19</text>
<g fill="#000000" >
<use xlink:href="#f0_1m" transform="matrix(33.5,0,0,33.5,1119.1,427.6)" />
<use xlink:href="#f0_q" transform="matrix(33.5,0,0,33.5,1153.2,427.6)" />
<use xlink:href="#f0_l" transform="matrix(20,0,0,20,1146.9,340.7)" />
</g>
<text x="1104" y="427" dx="0,0.1,-0.1" class="s2_9">IV6</text>
<g fill="#000000" >
<use xlink:href="#f0_t" transform="matrix(20,0,0,20,1163.8,340.7)" />
</g>
<text x="1146" y="340" dx="0,-0.1" class="s3_9">19</text>
<path d="M186.6,307V445.9M269.9,307V445.9M352.7,307V445.9M436,307V445.9M519.2,307V445.9M602.4,307V445.9M685.7,307V445.9M768.9,307V445.9M852.1,307V445.9M935.4,307V445.9M1101.8,307V445.9M1185.1,307V445.9M1268.3,307V445.9" class="g1_9" />
<g fill="#000000" >
<use xlink:href="#f0_19" transform="matrix(29.4,0,0,29.4,238.3,568.4)" />
<use xlink:href="#f0_19" transform="matrix(29.4,0,0,29.4,250.8,568.4)" />
<use xlink:href="#f0_19" transform="matrix(29.4,0,0,29.4,263.3,568.4)" />
<use xlink:href="#f0_l" transform="matrix(29.4,0,0,29.4,275.8,568.4)" />
<use xlink:href="#f0_l" transform="matrix(19.8,0,0,19.8,310.6,480)" />
</g>
<text x="238" y="568" class="s4_9">III1</text>
<g fill="#000000" >
<use xlink:href="#f0_t" transform="matrix(19.8,0,0,19.8,327.4,480)" />
<use xlink:href="#f0_19" transform="matrix(33.5,0,0,33.5,441.8,566.9)" />
</g>
<text x="310" y="480" dx="0,0.1" class="s5_9">19</text>
<g fill="#000000" >
<use xlink:href="#f0_19" transform="matrix(33.5,0,0,33.5,456.1,566.9)" />
<use xlink:href="#f0_19" transform="matrix(33.5,0,0,33.5,470.4,566.9)" />
<use xlink:href="#f0_o" transform="matrix(33.5,0,0,33.5,484.7,566.9)" />
<use xlink:href="#f0_l" transform="matrix(20,0,0,20,481.1,480)" />
</g>
<text x="441" y="566" dx="0,0.1,0.1,0.1" class="s2_9">III4</text>
<g fill="#000000" >
<use xlink:href="#f0_t" transform="matrix(20,0,0,20,497.9,480)" />
</g>
<text x="481" y="480" dx="0,-0.1" class="s3_9">19</text>
<path d="M186.6,445.9V585.3M352.7,445.9V585.3M436,445.9V585.3M519.2,445.9V585.3M602.4,445.9V585.3M685.7,445.9V585.3M768.9,445.9V585.3M852.1,445.9V585.3M935.4,445.9V585.3m83.2,-139.4V585.3m83.2,-139.4V585.3m83.3,-139.4V585.3m83.2,-139.4V585.3" class="g1_9" />
<g fill="#000000" >
<use xlink:href="#f0_19" transform="matrix(33.5,0,0,33.5,781.7,705.9)" />
<use xlink:href="#f0_19" transform="matrix(33.5,0,0,33.5,796,705.9)" />
<use xlink:href="#f0_l" transform="matrix(33.5,0,0,33.5,810.3,705.9)" />
<use xlink:href="#f0_l" transform="matrix(20,0,0,20,814,619)" />
</g>
<text x="781" y="705" dx="0,0.1,0.1" class="s2_9">II1</text>
<g fill="#000000" >
<use xlink:href="#f0_t" transform="matrix(20,0,0,20,830.9,619)" />
<use xlink:href="#f0_19" transform="matrix(29.4,0,0,29.4,910.4,707.4)" />
</g>
<text x="814" y="618" dx="0,-0.1" class="s3_9">19</text>
<g fill="#000000" >
<use xlink:href="#f0_19" transform="matrix(29.4,0,0,29.4,922.9,707.4)" />
<use xlink:href="#f0_m" transform="matrix(29.4,0,0,29.4,935.4,707.4)" />
<use xlink:href="#f0_l" transform="matrix(19.8,0,0,19.8,976.4,619)" />
</g>
<text x="910" y="707" class="s4_9">II2</text>
<g fill="#000000" >
<use xlink:href="#f0_t" transform="matrix(19.8,0,0,19.8,993.3,619)" />
<use xlink:href="#f0_19" transform="matrix(29.4,0,0,29.4,1068.1,707.4)" />
</g>
<text x="976" y="618" dx="0,0.1" class="s5_9">19</text>
<g fill="#000000" >
<use xlink:href="#f0_1m" transform="matrix(29.4,0,0,29.4,1080.6,707.4)" />
<use xlink:href="#f0_q" transform="matrix(29.4,0,0,29.4,1110.3,707.4)" />
<use xlink:href="#f0_l" transform="matrix(19.8,0,0,19.8,1142.9,619)" />
</g>
<text x="1068" y="707" dx="0,0,-0.3" class="s4_9">IV6</text>
<g fill="#000000" >
<use xlink:href="#f0_t" transform="matrix(19.8,0,0,19.8,1159.8,619)" />
</g>
<text x="1142" y="618" dx="0,0.1" class="s5_9">19</text>
<path d="M186.6,585.3V724.2M269.9,585.3V724.2M352.7,585.3V724.2M436,585.3V724.2M519.2,585.3V724.2M602.4,585.3V724.2M685.7,585.3V724.2M768.9,585.3V724.2M852.1,585.3V724.2M1018.6,585.3V724.2M1185.1,585.3V724.2m83.2,-138.9V724.2" class="g1_9" />
<g fill="#000000" >
<use xlink:href="#f0_19" transform="matrix(29.4,0,0,29.4,321.6,846.7)" />
<use xlink:href="#f0_19" transform="matrix(29.4,0,0,29.4,334.1,846.7)" />
<use xlink:href="#f0_19" transform="matrix(29.4,0,0,29.4,346.6,846.7)" />
<use xlink:href="#f0_l" transform="matrix(29.4,0,0,29.4,359.1,846.7)" />
<use xlink:href="#f0_l" transform="matrix(19.8,0,0,19.8,393.8,758.3)" />
</g>
<text x="321" y="846" class="s4_9">III1</text>
<g fill="#000000" >
<use xlink:href="#f0_t" transform="matrix(19.8,0,0,19.8,410.7,758.3)" />
<use xlink:href="#f0_19" transform="matrix(33.5,0,0,33.5,456.1,845.2)" />
</g>
<text x="393" y="758" dx="0,0.1" class="s5_9">19</text>
<g fill="#000000" >
<use xlink:href="#f0_o" transform="matrix(33.5,0,0,33.5,470.4,845.2)" />
<use xlink:href="#f0_l" transform="matrix(20,0,0,20,481.1,758.3)" />
</g>
<text x="456" y="845" dx="0,0.1" class="s2_9">I4</text>
<g fill="#000000" >
<use xlink:href="#f0_t" transform="matrix(20,0,0,20,497.9,758.3)" />
</g>
<text x="481" y="758" dx="0,-0.1" class="s3_9">19</text>
<path d="M186.6,724.2V863.6M269.9,724.2V863.6M436,724.2V863.6M519.2,724.2V863.6M602.4,724.2V863.6M685.7,724.2V863.6M768.9,724.2V863.6M852.1,724.2V863.6M935.4,724.2V863.6m83.2,-139.4V863.6m83.2,-139.4V863.6m83.3,-139.4V863.6m83.2,-139.4V863.6M103.4,307h83.2m0,0h83.3m0,0h82.8m0,0H436m0,0h83.2m0,0h83.2m0,0h83.3m0,0h83.2m0,0h83.2m0,0h83.3m0,0h83.2m0,0h83.2m0,0h83.3m0,0h83.2M103.4,445.9h83.2m0,0h83.3m0,0h82.8m0,0H436m0,0h83.2m0,0h83.2m0,0h83.3m0,0h83.2m0,0h83.2m0,0h83.3m0,0h83.2m0,0h83.2m0,0h83.3m0,0h83.2M103.4,585.3h83.2m0,0h83.3m0,0h82.8m0,0H436m0,0h83.2m0,0h83.2m0,0h83.3m0,0h83.2m0,0h83.2m0,0h83.3m0,0h83.2m0,0h83.2m0,0h83.3m0,0h83.2M103.4,724.2h83.2m0,0h83.3m0,0h82.8m0,0H436m0,0h83.2m0,0h83.2m0,0h83.3m0,0h83.2m0,0h83.2m0,0h83.3m0,0h83.2m0,0h83.2m0,0h83.3m0,0h83.2M103.4,863.6h83.2m0,0h83.3m0,0h82.8m0,0H436m0,0h83.2m0,0h83.2m0,0h83.3m0,0h83.2m0,0h83.2m0,0h83.3m0,0h83.2m0,0h83.2m0,0h83.3m0,0h83.2m0,-696V307m0,0V445.9m0,0V585.3m0,0V724.2m0,0V863.6M18,307h85.4" class="g1_9" />
<g fill="#000000" >
<use xlink:href="#f0_1g" transform="matrix(32.4,0,0,32.4,30.1,253.8)" />
<use xlink:href="#f0_2b" transform="matrix(32.4,0,0,32.4,63.1,253.8)" />
</g>
<text x="30" y="253" class="s6_9">Po</text>
<path d="M18,445.9h85.4" class="g1_9" />
<g fill="#000000" >
<use xlink:href="#f0_1l" transform="matrix(32.4,0,0,32.4,35.6,393.1)" />
<use xlink:href="#f0_2g" transform="matrix(32.4,0,0,32.4,71.2,393.1)" />
</g>
<text x="35" y="393" dx="0,-0.2" class="s6_9">Ut</text>
<path d="M18,585.3h85.4" class="g1_9" />
<g fill="#000000" >
<use xlink:href="#f0_1j" transform="matrix(32.4,0,0,32.4,35.6,532.1)" />
<use xlink:href="#f0_2e" transform="matrix(32.4,0,0,32.4,68.6,532.1)" />
</g>
<text x="35" y="532" class="s6_9">Sr</text>
<path d="M18,724.2h85.4" class="g1_9" />
<g fill="#000000" >
<use xlink:href="#f0_72" transform="matrix(32.4,0,0,32.4,29,671.4)" />
<use xlink:href="#f0_21" transform="matrix(32.4,0,0,32.4,64.6,671.4)" />
</g>
<text x="28" y="671" dx="0,-0.2" class="s6_9">Če</text>
<path d="M18,863.6h85.4" class="g1_9" />
<g fill="#000000" >
<use xlink:href="#f0_1g" transform="matrix(32.4,0,0,32.4,30.1,810.4)" />
<use xlink:href="#f0_21" transform="matrix(32.4,0,0,32.4,63.1,810.4)" />
</g>
<text x="30" y="810" class="s6_9">Pe</text>
<path d="M103.4,167.6v696m83.2,-773v77" class="g1_9" />
<g fill="#000000" >
<use xlink:href="#f0_k" transform="matrix(15,0,0,15,138.6,136.8)" />
</g>
<text x="138" y="136" class="s7_9">0</text>
<path d="M269.9,90.6v77" class="g1_9" />
<g fill="#000000" >
<use xlink:href="#f0_l" transform="matrix(15,0,0,15,221.8,136.8)" />
</g>
<text x="221" y="136" class="s7_9">1</text>
<path d="M352.7,90.6v77" class="g1_9" />
<g fill="#000000" >
<use xlink:href="#f0_m" transform="matrix(15,0,0,15,304.7,136.8)" />
</g>
<text x="304" y="136" class="s7_9">2</text>
<path d="M436,90.6v77" class="g1_9" />
<g fill="#000000" >
<use xlink:href="#f0_n" transform="matrix(15,0,0,15,387.9,136.8)" />
</g>
<text x="387" y="136" class="s7_9">3</text>
<path d="M519.2,90.6v77" class="g1_9" />
<g fill="#000000" >
<use xlink:href="#f0_o" transform="matrix(15,0,0,15,471.2,136.8)" />
</g>
<text x="471" y="136" class="s7_9">4</text>
<path d="M602.4,90.6v77" class="g1_9" />
<g fill="#000000" >
<use xlink:href="#f0_p" transform="matrix(15,0,0,15,554.4,136.8)" />
</g>
<text x="554" y="136" class="s7_9">5</text>
<path d="M685.7,90.6v77" class="g1_9" />
<g fill="#000000" >
<use xlink:href="#f0_q" transform="matrix(15,0,0,15,637.6,136.8)" />
</g>
<text x="637" y="136" class="s7_9">6</text>
<path d="M768.9,90.6v77" class="g1_9" />
<g fill="#000000" >
<use xlink:href="#f0_q" transform="matrix(15,0,0,15,720.9,136.8)" />
</g>
<text x="720" y="136" class="s7_9">6</text>
<path d="M852.1,90.6v77" class="g1_9" />
<g fill="#000000" >
<use xlink:href="#f0_p" transform="matrix(15,0,0,15,804.1,136.8)" />
</g>
<text x="804" y="136" class="s7_9">5</text>
<path d="M935.4,90.6v77" class="g1_9" />
<g fill="#000000" >
<use xlink:href="#f0_o" transform="matrix(15,0,0,15,887.3,136.8)" />
</g>
<text x="887" y="136" class="s7_9">4</text>
<path d="M1018.6,90.6v77" class="g1_9" />
<g fill="#000000" >
<use xlink:href="#f0_n" transform="matrix(15,0,0,15,970.6,136.8)" />
</g>
<text x="970" y="136" class="s7_9">3</text>
<path d="M1101.8,90.6v77" class="g1_9" />
<g fill="#000000" >
<use xlink:href="#f0_m" transform="matrix(15,0,0,15,1053.8,136.8)" />
</g>
<text x="1053" y="136" class="s7_9">2</text>
<path d="M1185.1,90.6v77" class="g1_9" />
<g fill="#000000" >
<use xlink:href="#f0_l" transform="matrix(15,0,0,15,1137,136.8)" />
</g>
<text x="1137" y="136" class="s7_9">1</text>
<path d="M1268.3,90.6v77" class="g1_9" />
<g fill="#000000" >
<use xlink:href="#f0_k" transform="matrix(15,0,0,15,1220.3,136.8)" />
</g>
<text x="1220" y="136" class="s7_9">0</text>
<path d="M103.4,167.6H1268.3" class="g1_9" />
<path d="M1268.3,90.6v773M18,90.6v773m0,-773H1268.3M18,863.6H1268.3M103.4,90.6v773M18,167.6H1268.3" class="g2_9" />
<g fill="#000000" >
<use xlink:href="#f1_16" transform="matrix(27.9,0,0,27.9,495.7,59.8)" />
<use xlink:href="#f1_1x" transform="matrix(27.9,0,0,27.9,521,59.8)" />
<use xlink:href="#f1_1y" transform="matrix(27.9,0,0,27.9,544.2,59.8)" />
<use xlink:href="#f1_2e" transform="matrix(27.9,0,0,27.9,569.5,59.8)" />
<use xlink:href="#f1_25" transform="matrix(27.9,0,0,27.9,585.6,59.8)" />
<use xlink:href="#f1_1e" transform="matrix(27.9,0,0,27.9,608.4,59.8)" />
<use xlink:href="#f1_21" transform="matrix(27.9,0,0,27.9,638.5,59.8)" />
<use xlink:href="#f1_20" transform="matrix(27.9,0,0,27.9,661.6,59.8)" />
<use xlink:href="#f1_21" transform="matrix(27.9,0,0,27.9,686.9,59.8)" />
<use xlink:href="#f1_28" transform="matrix(27.9,0,0,27.9,710.1,59.8)" />
<use xlink:href="#f1_26" transform="matrix(27.9,0,0,27.9,721.5,59.8)" />
<use xlink:href="#f1_27" transform="matrix(27.9,0,0,27.9,732.9,59.8)" />
<use xlink:href="#f1_1x" transform="matrix(27.9,0,0,27.9,756,59.8)" />
</g>
<text x="495" y="59" dx="0,-0.8,-0.6,-0.8,-0.4,-0.5,-0.5,-0.7,-0.6,-0.8,-0.6,-0.5,-0.5,-0.6" class="s8_9">Fabri Nedeljka</text>

<defs>
<path d="M112,0V1093H330L590,319c0,0,35,-108,52,-162c0,0,19,60,58,175l264,761h194V0H1018V915L699,0H569L252,931V0Z" 
id="f0_1d"
transform="scale(0.001,-0.001)" />

<path d="M102,0V792H236V0Zm0,939v154H236V939Z" 
id="f0_25"
transform="scale(0.001,-0.001)" />

<path d="M312,-10c0,0,-73,0,-114,22c0,0,-40,23,-56,61c0,0,-17,38,-17,159V687H26V792h99V988l134,81V792H394V687H259V224c0,0,0,-57,7,-74c0,0,7,-16,23,-26c0,0,16,-10,46,-10c0,0,23,0,59,6L414,1c0,0,-57,-11,-102,-11Z" 
id="f0_2g"
transform="scale(0.001,-0.001)" />

<path d="M99,0V792H219V672c0,0,46,84,86,111c0,0,39,27,86,27c0,0,68,0,138,-43L482,642c0,0,-49,29,-98,29c0,0,-44,0,-79,-27c0,0,-35,-26,-50,-73c0,0,-22,-72,-22,-157V0Z" 
id="f0_2e"
transform="scale(0.001,-0.001)" />

<path d="M422,93c0,0,100,0,167,76c0,0,66,76,66,231c0,0,0,147,-67,223c0,0,-66,75,-166,75c0,0,-100,0,-167,-75c0,0,-66,-75,-66,-227c0,0,0,-152,66,-228c0,0,67,-75,167,-75Zm0,-110c0,0,-166,0,-269,106C153,89,51,196,51,396c0,0,0,220,122,326c0,0,102,88,249,88c0,0,164,0,267,-107c0,0,104,-107,104,-296c0,0,0,-153,-46,-240C747,167,701,79,614,31c0,0,-88,-48,-192,-48Z" 
id="f0_2b"
transform="scale(0.001,-0.001)" />

<path d="M320,0L20,792H161L331,318c0,0,28,-77,51,-160c0,0,18,63,50,151L608,792H746L447,0Z" 
id="f0_2i"
transform="scale(0.001,-0.001)" />

<path d="M358,88c0,0,78,0,139,34c0,0,60,34,89,92c0,0,21,46,21,134l1,49c0,0,-73,-30,-221,-51c0,0,-83,-11,-117,-26c0,0,-35,-15,-54,-44c0,0,-18,-28,-18,-63c0,0,0,-54,40,-89c0,0,41,-36,120,-36ZM326,-17c0,0,-131,0,-201,63c0,0,-70,64,-70,163c0,0,0,58,26,106c0,0,27,48,70,77c0,0,43,29,97,44c0,0,39,11,119,20c0,0,163,20,240,47c0,0,1,27,1,35c0,0,0,81,-38,115c0,0,-52,45,-153,45c0,0,-95,0,-141,-33c0,0,-45,-33,-67,-116L78,566c0,0,18,84,59,136c0,0,41,52,119,80c0,0,78,28,180,28c0,0,102,0,165,-24c0,0,64,-24,94,-60c0,0,29,-36,41,-91c0,0,7,-35,7,-124V332c0,0,0,-187,9,-236c0,0,8,-50,33,-96H645c0,0,-20,42,-26,98C619,98,544,34,475,8c0,0,-70,-25,-149,-25Z" 
id="f0_1x"
transform="scale(0.001,-0.001)" />

<path d="M420,-17c0,0,-163,0,-261,105c0,0,-99,107,-99,305c0,0,0,128,42,225c0,0,43,96,130,144c0,0,87,48,189,48c0,0,129,0,211,-65c0,0,82,-65,105,-186L606,539c0,0,-18,80,-66,120c0,0,-47,41,-114,41c0,0,-101,0,-165,-73c0,0,-63,-73,-63,-230c0,0,0,-160,61,-232c0,0,61,-72,160,-72c0,0,79,0,132,48c0,0,53,48,67,149L750,273C750,273,728,137,639,59c0,0,-89,-76,-219,-76ZM341,891L180,1100H333L418,973l82,127H652L484,891Z" 
id="f0_73"
transform="scale(0.001,-0.001)" />

<path d="M101,0V1093H235V470L554,792H728L425,498L758,0H592L329,405L235,314V0Z" 
id="f0_27"
transform="scale(0.001,-0.001)" />

<path d="M640,-18c0,0,-161,0,-293,68c0,0,-132,69,-199,200c0,0,-67,131,-67,292c0,0,0,160,67,298c0,0,67,138,192,206c0,0,125,67,289,67c0,0,118,0,214,-39c0,0,96,-38,150,-107c0,0,55,-69,83,-179L946,752c0,0,-25,83,-62,131c0,0,-36,48,-104,77c0,0,-68,29,-150,29c0,0,-100,0,-172,-31c0,0,-72,-30,-117,-79c0,0,-44,-49,-69,-108c0,0,-41,-102,-41,-220c0,0,0,-146,50,-245c0,0,50,-98,147,-146c0,0,96,-48,204,-48c0,0,94,0,183,37c0,0,90,36,136,76V428H630V557h463V152C1093,152,986,67,873,24c0,0,-114,-42,-233,-42Z" 
id="f0_17"
transform="scale(0.001,-0.001)" />

<path d="M101,0V792H220V681c0,0,37,58,99,93c0,0,62,36,141,36c0,0,88,0,145,-37c0,0,56,-36,79,-102c0,0,94,139,245,139c0,0,118,0,182,-66c0,0,63,-65,63,-201V0H1040V499c0,0,0,80,-13,116c0,0,-13,35,-47,57c0,0,-35,21,-81,21c0,0,-83,0,-139,-55c0,0,-55,-56,-55,-178V0H571V514c0,0,0,90,-33,135c0,0,-33,44,-107,44c0,0,-57,0,-105,-30c0,0,-48,-29,-70,-87c0,0,-21,-57,-21,-165V0Z" 
id="f0_29"
transform="scale(0.001,-0.001)" />

<path d="M101,0V792H221V679c0,0,87,131,252,131c0,0,72,0,132,-26c0,0,60,-26,90,-68c0,0,30,-41,42,-99c0,0,7,-37,7,-130V0H610V482c0,0,0,82,-16,122c0,0,-15,41,-55,65c0,0,-40,24,-94,24c0,0,-86,0,-148,-54c0,0,-62,-55,-62,-207V0Z" 
id="f0_2a"
transform="scale(0.001,-0.001)" />

<path d="M30,0V109L534,688c0,0,-86,-5,-151,-5H60V792H707V704L278,201L195,109c0,0,91,6,170,6H731V0Z" 
id="f0_2m"
transform="scale(0.001,-0.001)" />

<path d="M35,-321c0,0,-54,0,-105,15l26,114c0,0,40,-10,62,-10c0,0,42,0,62,27c0,0,20,27,20,136V792H234V-42c0,0,0,-147,-38,-204c0,0,-49,-75,-161,-75ZM100,938v155H234V938Z" 
id="f0_26"
transform="scale(0.001,-0.001)" />

<path d="M164,-216l-37,58c0,0,42,18,63,55c0,0,20,36,22,103H136V153H288V0c0,0,0,-84,-29,-136c0,0,-30,-52,-95,-80Z" 
id="f0_g"
transform="scale(0.001,-0.001)" />

<path d="M369,-17c0,0,-70,0,-131,26c0,0,-61,27,-91,68c0,0,-29,40,-41,99c0,0,-8,40,-8,125V792H232V353c0,0,0,-105,8,-142c0,0,13,-53,54,-83c0,0,41,-30,101,-30c0,0,61,0,114,31c0,0,53,31,75,84c0,0,22,53,22,155V792H740V0H621V116c0,0,-93,-133,-252,-133Z" 
id="f0_2h"
transform="scale(0.001,-0.001)" />

<path d="M98,0V1093H232V0Z" 
id="f0_28"
transform="scale(0.001,-0.001)" />

<path d="M139,0V153H291V0Z" 
id="f0_i"
transform="scale(0.001,-0.001)" />

<path d="M535,-18c0,0,-149,0,-249,43c0,0,-100,43,-158,130c0,0,-57,87,-60,197l137,12c0,0,10,-83,45,-135c0,0,36,-53,110,-86c0,0,75,-32,168,-32c0,0,83,0,146,24c0,0,63,25,94,68c0,0,31,43,31,94c0,0,0,51,-30,90c0,0,-30,38,-98,64c0,0,-44,17,-195,54c0,0,-151,36,-211,68c0,0,-79,41,-117,102c0,0,-38,61,-38,136c0,0,0,83,47,155c0,0,47,72,137,109c0,0,90,38,200,38c0,0,122,0,215,-39c0,0,93,-40,143,-116c0,0,50,-76,54,-172L767,775c0,0,-11,104,-76,158c0,0,-64,53,-190,53c0,0,-132,0,-192,-49c0,0,-60,-48,-60,-116c0,0,0,-59,43,-97c0,0,42,-38,218,-78c0,0,176,-40,242,-70c0,0,96,-44,141,-111c0,0,46,-68,46,-156c0,0,0,-87,-50,-165C889,144,839,67,745,24c0,0,-93,-42,-210,-42Z" 
id="f0_1j"
transform="scale(0.001,-0.001)" />

<path d="M644,472c0,0,-9,100,-50,150c0,0,-65,77,-167,77c0,0,-93,0,-156,-62c0,0,-63,-61,-70,-165ZM433,-17c0,0,-174,0,-275,106C158,89,56,196,56,389c0,0,0,200,103,310c0,0,103,111,267,111c0,0,159,0,259,-108c0,0,101,-109,101,-304c0,0,0,-12,-1,-36H194c0,0,7,-131,74,-200c0,0,66,-69,166,-69c0,0,74,0,126,39c0,0,52,39,83,124L782,239C782,239,749,117,660,50c0,0,-89,-67,-227,-67Z" 
id="f0_21"
transform="scale(0.001,-0.001)" />

<path d="M46,0c0,0,-2,48,16,93c0,0,27,74,88,146c0,0,61,71,176,165c0,0,178,146,241,232c0,0,63,85,63,161c0,0,0,80,-57,135c0,0,-58,55,-149,55c0,0,-98,0,-156,-59c0,0,-58,-58,-59,-160L71,782c0,0,15,154,107,235c0,0,93,81,249,81c0,0,157,0,249,-87c0,0,92,-88,92,-217c0,0,0,-65,-27,-129c0,0,-27,-63,-89,-133c0,0,-62,-70,-207,-193C445,339,324,238,290,202c0,0,-35,-36,-57,-73H770V0Z" 
id="f0_m"
transform="scale(0.001,-0.001)" />

<path d="M386,-17c0,0,-155,0,-236,64c0,0,-81,64,-103,190l133,20c0,0,11,-79,62,-122c0,0,51,-42,143,-42c0,0,93,0,138,37c0,0,44,38,44,89c0,0,0,45,-39,71c0,0,-28,18,-138,46c0,0,-147,37,-204,64c0,0,-58,27,-87,75c0,0,-30,48,-30,107c0,0,0,52,25,98c0,0,24,45,66,74c0,0,31,24,85,40c0,0,54,16,116,16c0,0,93,0,164,-27c0,0,70,-27,104,-73c0,0,33,-46,46,-122L544,570c0,0,-9,61,-52,95c0,0,-43,34,-121,34c0,0,-93,0,-132,-30c0,0,-40,-31,-40,-72c0,0,0,-26,17,-47c0,0,16,-21,51,-35c0,0,20,-8,119,-35c0,0,142,-38,199,-62c0,0,56,-24,88,-70c0,0,32,-47,32,-115c0,0,0,-67,-39,-126c0,0,-39,-60,-113,-92c0,0,-74,-32,-167,-32Z" 
id="f0_2f"
transform="scale(0.001,-0.001)" />

<path d="M420,-17c0,0,-163,0,-262,106c0,0,-98,106,-98,304c0,0,0,128,42,224c0,0,43,96,129,145c0,0,87,48,189,48c0,0,129,0,211,-66c0,0,82,-65,106,-185L606,539c0,0,-19,80,-66,120c0,0,-48,40,-115,40c0,0,-101,0,-164,-72c0,0,-63,-73,-63,-230c0,0,0,-160,61,-232c0,0,61,-72,159,-72c0,0,79,0,132,48c0,0,53,49,67,149L749,273C749,273,728,137,639,59c0,0,-90,-76,-219,-76Z" 
id="f0_1z"
transform="scale(0.001,-0.001)" />

<path d="M576,610c0,0,99,0,155,21c0,0,56,20,85,65c0,0,29,45,29,98c0,0,0,78,-56,128c0,0,-56,50,-178,50H265V610ZM120,0V1093H605c0,0,147,0,223,-29c0,0,76,-30,121,-104c0,0,46,-75,46,-165c0,0,0,-117,-76,-197c0,0,-75,-80,-232,-101c0,0,57,-28,87,-55c0,0,63,-58,120,-145L1084,0H902L757,227c0,0,-63,98,-104,151c0,0,-41,52,-73,73c0,0,-33,21,-67,29c0,0,-24,5,-80,5H265V0Z" 
id="f0_1i"
transform="scale(0.001,-0.001)" />

<path d="M433,93c0,0,90,0,154,75c0,0,63,76,63,235c0,0,0,151,-62,226c0,0,-62,75,-149,75c0,0,-85,0,-151,-80c0,0,-66,-80,-66,-233c0,0,0,-152,62,-225c0,0,62,-73,149,-73ZM101,-303V792H223V688c0,0,43,61,98,91c0,0,54,31,132,31c0,0,101,0,179,-53c0,0,77,-52,117,-147c0,0,39,-95,39,-208c0,0,0,-122,-44,-219C744,183,701,86,618,34c0,0,-84,-51,-175,-51c0,0,-67,0,-121,28c0,0,-53,28,-87,71V-303Z" 
id="f0_2c"
transform="scale(0.001,-0.001)" />

<path d="M406,93c0,0,88,0,149,72c0,0,62,72,62,219c0,0,0,162,-63,238c0,0,-63,76,-154,76c0,0,-90,0,-150,-73c0,0,-60,-73,-60,-230c0,0,0,-152,64,-227c0,0,64,-75,152,-75ZM393,-17c0,0,-95,0,-174,52c0,0,-80,52,-123,145c0,0,-44,94,-44,215c0,0,0,119,39,215c0,0,40,97,119,148c0,0,79,52,177,52c0,0,71,0,127,-31c0,0,56,-30,91,-79v393H739V0H615V100c0,0,-75,-117,-222,-117Z" 
id="f0_20"
transform="scale(0.001,-0.001)" />

<path d="M143,0V1093H287V0Z" 
id="f0_19"
transform="scale(0.001,-0.001)" />

<path d="M435,0V856c0,0,-48,-47,-127,-93c0,0,-79,-46,-142,-69V824c0,0,113,52,197,128c0,0,85,75,120,146h86V0Z" 
id="f0_l"
transform="scale(0.001,-0.001)" />

<path d="M420,489c0,0,93,0,153,65c0,0,60,65,60,181c0,0,0,116,-62,184c0,0,-61,68,-148,68c0,0,-90,0,-156,-74c0,0,-66,-73,-66,-189c0,0,0,-105,63,-170c0,0,63,-65,156,-65ZM391,-18c0,0,-128,0,-209,71c0,0,-82,71,-98,200l129,12c0,0,17,-91,63,-132c0,0,46,-41,118,-41c0,0,62,0,109,28c0,0,47,29,76,76c0,0,30,47,50,128c0,0,20,80,20,164c0,0,0,9,-1,27c0,0,-40,-65,-110,-105c0,0,-69,-39,-151,-39c0,0,-135,0,-229,98c0,0,-94,99,-94,260c0,0,0,166,98,268c0,0,98,101,245,101c0,0,107,0,195,-57c0,0,89,-58,134,-164c0,0,46,-106,46,-308c0,0,0,-209,-45,-334C737,235,691,111,602,46c0,0,-90,-64,-211,-64Z" 
id="f0_t"
transform="scale(0.001,-0.001)" />

<path d="M494,385V878L152,385ZM494,0V262H20V385l498,708H628V385H775V262H628V0Z" 
id="f0_o"
transform="scale(0.001,-0.001)" />

<path d="M430,0L7,1093H163L448,299c0,0,34,-96,57,-179c0,0,25,89,59,179l295,794h148L580,0Z" 
id="f0_1m"
transform="scale(0.001,-0.001)" />

<path d="M435,92c0,0,86,0,147,69c0,0,60,68,60,186c0,0,0,114,-60,179c0,0,-60,66,-152,66c0,0,-91,0,-154,-66c0,0,-64,-65,-64,-171c0,0,0,-70,30,-133c0,0,29,-64,82,-97c0,0,52,-33,111,-33Zm3,-110c0,0,-168,0,-274,123C164,105,58,228,58,512c0,0,0,317,117,461c0,0,102,125,275,125c0,0,129,0,212,-72c0,0,82,-72,99,-200L627,815c0,0,-18,79,-51,115c0,0,-54,58,-134,58c0,0,-64,0,-113,-36c0,0,-63,-46,-99,-135c0,0,-37,-89,-38,-253c0,0,48,74,118,110c0,0,70,36,147,36c0,0,135,0,229,-99c0,0,94,-99,94,-256c0,0,0,-103,-44,-191C736,164,691,75,614,28c0,0,-78,-46,-176,-46Z" 
id="f0_q"
transform="scale(0.001,-0.001)" />

<path d="M545,573c0,0,140,0,199,52c0,0,59,52,59,147c0,0,0,69,-35,118c0,0,-34,49,-91,64c0,0,-36,10,-135,10H263V573ZM118,0V1093H531c0,0,108,0,166,-10c0,0,80,-14,135,-51c0,0,54,-38,87,-106c0,0,34,-68,34,-149c0,0,0,-140,-89,-236c0,0,-89,-97,-321,-97H263V0Z" 
id="f0_1g"
transform="scale(0.001,-0.001)" />

<path d="M553,-18c0,0,-154,0,-252,52c0,0,-97,53,-139,154c0,0,-42,100,-42,274v631H265V463c0,0,0,-143,26,-210c0,0,27,-68,91,-104c0,0,65,-37,158,-37c0,0,160,0,228,73c0,0,67,72,67,278v630H980V462c0,0,0,-165,-37,-262c0,0,-37,-97,-135,-158c0,0,-97,-60,-255,-60Z" 
id="f0_1l"
transform="scale(0.001,-0.001)" />

<path d="M590,-18c0,0,-177,0,-287,71c0,0,-111,72,-169,209c0,0,-58,136,-58,293c0,0,0,171,65,298c0,0,66,127,186,193c0,0,121,66,265,66c0,0,164,0,276,-83c0,0,112,-84,156,-235L882,760c0,0,-38,120,-111,174c0,0,-72,54,-182,54c0,0,-126,0,-210,-60c0,0,-85,-60,-119,-162c0,0,-35,-102,-35,-210c0,0,0,-140,41,-244c0,0,41,-104,126,-155c0,0,86,-52,186,-52c0,0,122,0,206,70c0,0,84,70,114,208l145,-36c0,0,-46,-178,-164,-272c0,0,-118,-93,-289,-93ZM512,1161L351,1369H505l84,-126l82,126H823L656,1161Z" 
id="f0_72"
transform="scale(0.001,-0.001)" />

<path d="M420,92c0,0,92,0,155,89c0,0,64,89,64,358c0,0,0,270,-63,359c0,0,-63,89,-158,89c0,0,-92,0,-147,-79c0,0,-70,-100,-70,-369c0,0,0,-269,63,-358c0,0,63,-89,156,-89Zm0,-110c0,0,-158,0,-248,112C172,94,64,231,64,539c0,0,0,194,39,313c0,0,40,118,119,182c0,0,79,64,198,64c0,0,88,0,155,-35c0,0,66,-36,109,-103c0,0,43,-66,68,-162c0,0,24,-96,24,-259c0,0,0,-192,-39,-311C737,228,697,110,619,46c0,0,-79,-64,-199,-64Z" 
id="f0_k"
transform="scale(0.001,-0.001)" />

<path d="M412,-18c0,0,-144,0,-239,85c0,0,-95,86,-108,222l133,18c0,0,24,-114,79,-164c0,0,55,-50,135,-50c0,0,96,0,161,65c0,0,65,66,65,163c0,0,0,92,-61,152c0,0,-60,60,-153,60c0,0,-38,0,-95,-15l15,119c0,0,13,-2,21,-2c0,0,86,0,155,45c0,0,69,44,69,137c0,0,0,74,-50,122c0,0,-50,49,-129,49c0,0,-79,0,-131,-50c0,0,-52,-49,-67,-147L78,815c0,0,25,135,112,209c0,0,87,74,217,74c0,0,89,0,164,-38c0,0,76,-39,116,-105c0,0,40,-66,40,-141c0,0,0,-70,-39,-129c0,0,-38,-58,-112,-92c0,0,97,-22,151,-93c0,0,53,-70,53,-176c0,0,0,-143,-104,-243c0,0,-105,-99,-264,-99Z" 
id="f0_n"
transform="scale(0.001,-0.001)" />

<path d="M415,-18c0,0,-149,0,-244,83c0,0,-94,84,-107,222l140,11c0,0,16,-103,73,-154c0,0,56,-52,137,-52c0,0,98,0,165,73c0,0,66,73,66,194c0,0,0,115,-64,182c0,0,-64,66,-169,66c0,0,-65,0,-117,-29c0,0,-52,-30,-82,-77L87,517l106,562H736V951H300L241,657c0,0,99,69,207,69c0,0,143,0,242,-100c0,0,98,-99,98,-255c0,0,0,-149,-86,-257C702,114,597,-18,415,-18Z" 
id="f0_p"
transform="scale(0.001,-0.001)" />

<path d="M112,0V1093H863V908H333V649H791V464H333V0Z" 
id="f1_16"
transform="scale(0.001,-0.001)" />

<path d="M380,130c0,0,57,0,108,37c0,0,38,29,50,70c0,0,9,27,9,102v42c0,0,-41,-13,-128,-32c0,0,-87,-19,-114,-36c0,0,-41,-30,-41,-74c0,0,0,-45,33,-77c0,0,33,-32,83,-32ZM318,-17c0,0,-122,0,-193,66c0,0,-70,66,-70,168c0,0,0,67,32,120c0,0,32,53,90,81c0,0,57,28,166,49c0,0,147,27,204,51v21c0,0,0,60,-30,86c0,0,-30,25,-112,25c0,0,-56,0,-87,-22c0,0,-32,-22,-51,-77L76,586c0,0,32,114,111,169c0,0,78,56,232,56c0,0,141,0,209,-34c0,0,69,-33,97,-84c0,0,28,-51,28,-188L750,260c0,0,0,-104,10,-154c0,0,10,-49,38,-106H591c0,0,-9,21,-21,62c0,0,-5,19,-7,25C563,87,509,35,448,8c0,0,-61,-25,-130,-25Z" 
id="f1_1x"
transform="scale(0.001,-0.001)" />

<path d="M492,148c0,0,70,0,119,59c0,0,48,59,48,187c0,0,0,136,-49,196c0,0,-49,60,-126,60c0,0,-76,0,-126,-58c0,0,-50,-59,-50,-178c0,0,0,-124,39,-183c0,0,54,-83,145,-83ZM543,-17c0,0,-68,0,-134,33c0,0,-66,34,-114,100V0H101V1093H310V700c0,0,97,111,230,111c0,0,145,0,240,-105c0,0,95,-105,95,-301c0,0,0,-203,-97,-313C778,92,681,-17,543,-17Z" 
id="f1_1y"
transform="scale(0.001,-0.001)" />

<path d="M101,0V792H295V679c0,0,50,80,90,106c0,0,40,26,91,26c0,0,72,0,138,-40L549,589c0,0,-53,34,-99,34c0,0,-44,0,-74,-24c0,0,-31,-25,-48,-88c0,0,-18,-64,-18,-266V0Z" 
id="f1_2e"
transform="scale(0.001,-0.001)" />

<path d="M110,0V792H319V0Zm0,900v193H319V900Z" 
id="f1_25"
transform="scale(0.001,-0.001)" />

<path d="M113,0V1093H327L777,361v732H981V0H760L318,716V0Z" 
id="f1_1e"
transform="scale(0.001,-0.001)" />

<path d="M580,464c0,0,-2,91,-47,139c0,0,-45,47,-108,47c0,0,-69,0,-113,-50c0,0,-45,-50,-44,-136ZM433,-17c0,0,-207,0,-306,134c0,0,-78,109,-78,274c0,0,0,196,103,308c0,0,103,112,260,112c0,0,176,0,278,-117c0,0,103,-117,98,-358H264c0,0,2,-93,51,-145c0,0,48,-52,120,-52c0,0,49,0,83,27c0,0,33,27,50,86L777,217C777,217,737,102,650,42c0,0,-87,-59,-217,-59Z" 
id="f1_21"
transform="scale(0.001,-0.001)" />

<path d="M454,148c0,0,73,0,123,61c0,0,51,62,51,184c0,0,0,137,-49,197c0,0,-49,60,-126,60c0,0,-75,0,-125,-59c0,0,-50,-60,-50,-177c0,0,0,-127,35,-184c0,0,50,-82,141,-82ZM394,-17c0,0,-137,0,-234,109c0,0,-97,110,-97,307c0,0,0,202,94,307c0,0,95,105,240,105c0,0,133,0,230,-111v393H836V0H642V116C642,116,593,48,527,15c0,0,-66,-32,-133,-32Z" 
id="f1_20"
transform="scale(0.001,-0.001)" />

<path d="M110,0V1093H319V0Z" 
id="f1_28"
transform="scale(0.001,-0.001)" />

<path d="M75,-321c0,0,-32,0,-68,6c0,0,-35,6,-77,17l36,179c0,0,15,-3,29,-5c0,0,12,-2,23,-2c0,0,33,0,53,14c0,0,21,14,28,33c0,0,7,19,7,115V792H315V24c0,0,0,-150,-20,-212c0,0,-20,-63,-76,-98c0,0,-57,-35,-144,-35ZM106,900v193H315V900Z" 
id="f1_26"
transform="scale(0.001,-0.001)" />

<path d="M103,0V1093H312V513L557,792H815L545,503L835,0H609L409,356L312,254V0Z" 
id="f1_27"
transform="scale(0.001,-0.001)" />


</defs>

<!-- Any embedded fonts defined here -->
<style type="text/css" ><![CDATA[

@font-face {
	font-family: Arial-BoldMT_3u;
	src: url("fonts/Arial-BoldMT_3u.woff") format("woff");
}

@font-face {
	font-family: ArialMT_3o;
	src: url("fonts/ArialMT_3o.woff") format("woff");
}

]]></style>

</svg>
