<svg xmlns="http://www.w3.org/2000/svg" xmlns:xlink="http://www.w3.org/1999/xlink" viewBox="0 0 819.24 568.39"><defs><style>.cls-1,.cls-26,.cls-27,.cls-44{fill:none;}.cls-2{clip-path:url(#clip-path);}.cls-3{fill:#fff;}.cls-4{font-size:9.35px;}.cls-21,.cls-24,.cls-25,.cls-28,.cls-29,.cls-30,.cls-31,.cls-38,.cls-39,.cls-4,.cls-42,.cls-43,.cls-45{font-family:Arial;}.cls-5{letter-spacing:-0.02em;}.cls-6{letter-spacing:-0.01em;}.cls-7{letter-spacing:-0.01em;}.cls-8{letter-spacing:-0.01em;}.cls-9{letter-spacing:0em;}.cls-10{letter-spacing:-0.01em;}.cls-11{letter-spacing:-0.01em;}.cls-12{letter-spacing:0em;}.cls-13{letter-spacing:-0.01em;}.cls-14{letter-spacing:-0.01em;}.cls-15{letter-spacing:-0.01em;}.cls-16{letter-spacing:-0.01em;}.cls-17{letter-spacing:-0.02em;}.cls-18{letter-spacing:-0.01em;}.cls-19{letter-spacing:0em;}.cls-20{letter-spacing:-0.01em;}.cls-21{font-size:23.52px;}.cls-22{letter-spacing:0em;}.cls-23{letter-spacing:0em;}.cls-24,.cls-30{font-size:18.69px;}.cls-24,.cls-36{letter-spacing:0em;}.cls-25,.cls-31{font-size:10.53px;}.cls-26,.cls-27,.cls-44{stroke:#000;stroke-linecap:round;stroke-linejoin:round;}.cls-26{stroke-width:0.24px;}.cls-27{stroke-width:0.48px;}.cls-28{font-size:22.45px;}.cls-29,.cls-39,.cls-42{font-size:22.99px;}.cls-31{letter-spacing:-0.01em;}.cls-32{letter-spacing:0em;}.cls-33{letter-spacing:0em;}.cls-34{letter-spacing:0em;}.cls-35{letter-spacing:0em;}.cls-37,.cls-39{letter-spacing:0.01em;}.cls-38{font-size:23.95px;}.cls-40{letter-spacing:0em;}.cls-41{letter-spacing:0em;}.cls-42{letter-spacing:0em;}.cls-43{font-size:20.62px;}.cls-44{stroke-width:1.32px;}.cls-45{font-size:44.15px;}</style><clipPath id="clip-path" transform="translate(-11.22 -8.03)"><rect class="cls-1" width="841.89" height="595.28"/></clipPath></defs><title>I1</title><g id="Layer_2" data-name="Layer 2"><g id="Layer_1-2" data-name="Layer 1"><g id="I1"><g class="cls-2"><rect class="cls-3" x="0.66" y="40.57" width="231.6" height="10.44"/><text class="cls-4" transform="translate(0.66 48.96)"><tspan class="cls-5">M</tspan><tspan x="7.29" y="0">i</tspan><tspan class="cls-6" x="9.48" y="0">t</tspan><tspan x="12.47" y="0">rovačk</tspan><tspan class="cls-7" x="38.22" y="0">a </tspan><tspan class="cls-8" x="44.56" y="0">G</tspan><tspan class="cls-9" x="50.53" y="0">imn</tspan><tspan class="cls-10" x="65.69" y="0">a</tspan><tspan class="cls-11" x="70.11" y="0">z</tspan><tspan x="74" y="0">i</tspan><tspan class="cls-8" x="76.19" y="0">j</tspan><tspan class="cls-12" x="78.39" y="0">a</tspan><tspan class="cls-11" x="82.9" y="0">,</tspan><tspan class="cls-7" x="84.72" y="0"> </tspan><tspan class="cls-9" x="86.63" y="0">u</tspan><tspan class="cls-13" x="91.78" y="0">l</tspan><tspan class="cls-7" x="93.92" y="0">. </tspan><tspan class="cls-11" x="97.68" y="0">S</tspan><tspan x="102.18" y="0">v</tspan><tspan class="cls-14" x="106.67" y="0">.</tspan><tspan class="cls-7" x="108.54" y="0"> </tspan><tspan class="cls-15" x="110.45" y="0">S</tspan><tspan x="114.94" y="0">av</tspan><tspan class="cls-14" x="123.94" y="0">e</tspan><tspan class="cls-7" x="128.56" y="0"> </tspan><tspan x="130.46" y="0">2</tspan><tspan class="cls-15" x="135.26" y="0">,</tspan><tspan class="cls-7" x="137.08" y="0"> </tspan><tspan class="cls-11" x="138.98" y="0">S</tspan><tspan x="143.48" y="0">remska</tspan><tspan class="cls-16" x="171.6" y="0"> </tspan><tspan class="cls-5" x="173.48" y="0">M</tspan><tspan x="180.77" y="0">i</tspan><tspan class="cls-6" x="182.95" y="0">t</tspan><tspan x="185.94" y="0">rovica</tspan></text><text class="cls-4" transform="translate(0.66 566.05)">.</text><text class="cls-4" transform="translate(759.89 566.05)">a<tspan class="cls-17" x="4.5" y="0">S</tspan><tspan x="8.97" y="0">c</tspan><tspan class="cls-8" x="13.16" y="0"> </tspan><tspan x="15.07" y="0">R</tspan><tspan class="cls-18" x="20.1" y="0">a</tspan><tspan class="cls-19" x="24.55" y="0">sp</tspan><tspan class="cls-20" x="33.57" y="0">o</tspan><tspan x="38.63" y="0">red</tspan></text><text class="cls-21" transform="translate(409.15 183.49)">Lik</text><text class="cls-21" transform="translate(434.82 127.58)">1</text><text class="cls-21" transform="translate(248.11 183.49)">Srp</text><text class="cls-21" transform="translate(277.02 127.58)">6</text><text class="cls-21" transform="translate(140.34 183.49)">Eng</text><text class="cls-21" transform="translate(171.89 127.58)">1</text><text class="cls-21" transform="translate(354.53 183.49)">B<tspan class="cls-22" x="12.75" y="0">i</tspan><tspan class="cls-23" x="18.32" y="0">o</tspan></text><text class="cls-21" transform="translate(382.27 127.58)">9</text><text class="cls-21" transform="translate(300.07 183.49)">Fzč</text><text class="cls-24" transform="translate(453.06 187.8)">U<tspan class="cls-12" x="12.15" y="0">me</tspan></text><text class="cls-25" transform="translate(494.72 180.74)">6</text><line class="cls-26" x1="450.54" y1="170.29" x2="503.1" y2="170.29"/><text class="cls-21" transform="translate(194.33 183.49)">Mat</text><text class="cls-21" transform="translate(211.39 127.58)">35</text><line class="cls-27" x1="134.94" y1="102.01" x2="134.94" y2="193.09"/><line class="cls-27" x1="187.62" y1="102.01" x2="187.62" y2="193.09"/><line class="cls-27" x1="240.18" y1="102.01" x2="240.18" y2="193.09"/><line class="cls-27" x1="292.74" y1="102.01" x2="292.74" y2="193.09"/><line class="cls-27" x1="345.3" y1="102.01" x2="345.3" y2="193.09"/><line class="cls-27" x1="397.98" y1="102.01" x2="397.98" y2="193.09"/><line class="cls-27" x1="450.54" y1="102.01" x2="450.54" y2="193.09"/><line class="cls-27" x1="503.1" y1="102.01" x2="503.1" y2="193.09"/><line class="cls-27" x1="555.66" y1="102.01" x2="555.66" y2="193.09"/><line class="cls-27" x1="608.34" y1="102.01" x2="608.34" y2="193.09"/><line class="cls-27" x1="660.9" y1="102.01" x2="660.9" y2="193.09"/><line class="cls-27" x1="713.46" y1="102.01" x2="713.46" y2="193.09"/><line class="cls-27" x1="766.02" y1="102.01" x2="766.02" y2="193.09"/><line class="cls-27" x1="818.58" y1="102.01" x2="818.58" y2="193.09"/><text class="cls-21" transform="translate(191.7 274.58)">Muz</text><text class="cls-21" transform="translate(224.47 218.66)">1</text><text class="cls-21" transform="translate(250.13 274.58)">Lat</text><text class="cls-21" transform="translate(277.02 218.66)">5</text><text class="cls-21" transform="translate(407.23 274.58)">B<tspan class="cls-22" x="12.75" y="0">i</tspan><tspan class="cls-23" x="18.32" y="0">o</tspan></text><text class="cls-21" transform="translate(434.82 218.66)">9</text><text class="cls-28" transform="translate(327.91 274.82)">Srp</text><text class="cls-29" transform="translate(367.03 218.3)">22</text><text class="cls-30" transform="translate(453.06 256.08)">Zdr</text><text class="cls-31" transform="translate(488.96 249.02)">3<tspan class="cls-32" x="5.32" y="0">8</tspan></text><line class="cls-26" x1="450.54" y1="238.57" x2="503.1" y2="238.57"/><line class="cls-26" x1="450.54" y1="261.37" x2="503.1" y2="261.37"/><text class="cls-21" transform="translate(141.66 274.58)">Mat</text><text class="cls-21" transform="translate(158.81 218.66)">35</text><line class="cls-27" x1="134.94" y1="193.09" x2="134.94" y2="284.17"/><line class="cls-27" x1="187.62" y1="193.09" x2="187.62" y2="284.17"/><line class="cls-27" x1="240.18" y1="193.09" x2="240.18" y2="284.17"/><line class="cls-27" x1="292.74" y1="193.09" x2="292.74" y2="284.17"/><line class="cls-27" x1="397.98" y1="193.09" x2="397.98" y2="284.17"/><line class="cls-27" x1="450.54" y1="193.09" x2="450.54" y2="284.17"/><line class="cls-27" x1="503.1" y1="193.09" x2="503.1" y2="284.17"/><line class="cls-27" x1="555.66" y1="193.09" x2="555.66" y2="284.17"/><line class="cls-27" x1="608.34" y1="193.09" x2="608.34" y2="284.17"/><line class="cls-27" x1="660.9" y1="193.09" x2="660.9" y2="284.17"/><line class="cls-27" x1="713.46" y1="193.09" x2="713.46" y2="284.17"/><line class="cls-27" x1="766.02" y1="193.09" x2="766.02" y2="284.17"/><line class="cls-27" x1="818.58" y1="193.09" x2="818.58" y2="284.17"/><text class="cls-21" transform="translate(195.53 365.66)">Srp</text><text class="cls-21" transform="translate(211.39 309.74)">22</text><text class="cls-21" transform="translate(407.95 365.66)">Lat</text><text class="cls-21" transform="translate(434.82 309.74)">5</text><text class="cls-21" transform="translate(306.66 365.66)">I<tspan class="cls-33" x="5.62" y="0">s</tspan><tspan x="14.89" y="0">t</tspan></text><text class="cls-21" transform="translate(316.49 309.74)">31</text><text class="cls-21" transform="translate(250.74 365.66)">F<tspan class="cls-34" x="11.46" y="0">i</tspan><tspan class="cls-35" x="17.03" y="0">z</tspan></text><text class="cls-21" transform="translate(263.94 309.74)">25</text><text class="cls-21" transform="translate(346.74 365.66)">Hem</text><text class="cls-21" transform="translate(382.27 309.74)">3</text><text class="cls-30" transform="translate(453.06 301.68)">PrN</text><text class="cls-25" transform="translate(494.72 294.62)">3</text><line class="cls-26" x1="450.54" y1="306.97" x2="503.1" y2="306.97"/><text class="cls-30" transform="translate(453.06 324.37)">J<tspan class="cls-36" x="6.92" y="0">e</tspan><tspan x="16.33" y="0">z</tspan></text><text class="cls-31" transform="translate(488.96 317.42)">3<tspan class="cls-32" x="5.32" y="0">0</tspan></text><line class="cls-26" x1="450.54" y1="306.97" x2="503.1" y2="306.97"/><line class="cls-26" x1="450.54" y1="329.65" x2="503.1" y2="329.65"/><line class="cls-27" x1="134.94" y1="284.17" x2="134.94" y2="375.25"/><line class="cls-27" x1="187.62" y1="284.17" x2="187.62" y2="375.25"/><line class="cls-27" x1="240.18" y1="284.17" x2="240.18" y2="375.25"/><line class="cls-27" x1="292.74" y1="284.17" x2="292.74" y2="375.25"/><line class="cls-27" x1="345.3" y1="284.17" x2="345.3" y2="375.25"/><line class="cls-27" x1="397.98" y1="284.17" x2="397.98" y2="375.25"/><line class="cls-27" x1="450.54" y1="284.17" x2="450.54" y2="375.25"/><line class="cls-27" x1="503.1" y1="284.17" x2="503.1" y2="375.25"/><line class="cls-27" x1="555.66" y1="284.17" x2="555.66" y2="375.25"/><line class="cls-27" x1="608.34" y1="284.17" x2="608.34" y2="375.25"/><line class="cls-27" x1="660.9" y1="284.17" x2="660.9" y2="375.25"/><line class="cls-27" x1="713.46" y1="284.17" x2="713.46" y2="375.25"/><line class="cls-27" x1="766.02" y1="284.17" x2="766.02" y2="375.25"/><line class="cls-27" x1="818.58" y1="284.17" x2="818.58" y2="375.25"/><text class="cls-21" transform="translate(254.11 456.74)">I<tspan class="cls-33" x="5.62" y="0">s</tspan><tspan x="14.89" y="0">t</tspan></text><text class="cls-21" transform="translate(263.94 400.8)">31</text><text class="cls-21" transform="translate(402.07 456.74)"><tspan class="cls-33">G</tspan><tspan x="15.15" y="0">eo</tspan></text><text class="cls-21" transform="translate(421.74 400.8)">21</text><text class="cls-21" transform="translate(294.19 456.74)">Hem</text><text class="cls-21" transform="translate(316.49 400.8)">33</text><text class="cls-21" transform="translate(194.94 456.74)">Fzč</text><text class="cls-28" transform="translate(122.47 456.97)">Inf</text><text class="cls-29" transform="translate(150.17 400.46)">7<tspan class="cls-37" x="11.79" y="0">/</tspan><tspan x="19.81" y="0">2</tspan></text><text class="cls-38" transform="translate(347.81 458.76)">NP</text><text class="cls-21" transform="translate(366.55 444.13)">6P</text><line class="cls-26" x1="345.3" y1="420.73" x2="397.98" y2="420.73"/><text class="cls-38" transform="translate(347.81 413.18)">N</text><text class="cls-21" transform="translate(369.19 398.54)">30</text><line class="cls-26" x1="345.3" y1="420.73" x2="397.98" y2="420.73"/><line class="cls-27" x1="187.62" y1="375.25" x2="187.62" y2="466.33"/><line class="cls-27" x1="240.18" y1="375.25" x2="240.18" y2="466.33"/><line class="cls-27" x1="292.74" y1="375.25" x2="292.74" y2="466.33"/><line class="cls-27" x1="345.3" y1="375.25" x2="345.3" y2="466.33"/><line class="cls-27" x1="397.98" y1="375.25" x2="397.98" y2="466.33"/><line class="cls-27" x1="450.54" y1="375.25" x2="450.54" y2="466.33"/><line class="cls-27" x1="503.1" y1="375.25" x2="503.1" y2="466.33"/><line class="cls-27" x1="555.66" y1="375.25" x2="555.66" y2="466.33"/><line class="cls-27" x1="608.34" y1="375.25" x2="608.34" y2="466.33"/><line class="cls-27" x1="660.9" y1="375.25" x2="660.9" y2="466.33"/><line class="cls-27" x1="713.46" y1="375.25" x2="713.46" y2="466.33"/><line class="cls-27" x1="766.02" y1="375.25" x2="766.02" y2="466.33"/><line class="cls-27" x1="818.58" y1="375.25" x2="818.58" y2="466.33"/><text class="cls-21" transform="translate(140.34 547.82)">Eng</text><text class="cls-21" transform="translate(171.89 491.88)">5</text><text class="cls-21" transform="translate(402.07 547.82)"><tspan class="cls-33">G</tspan><tspan x="15.15" y="0">eo</tspan></text><text class="cls-21" transform="translate(421.74 491.88)">21</text><text class="cls-21" transform="translate(303.3 547.82)">F<tspan class="cls-22" x="11.46" y="0">i</tspan><tspan x="17.03" y="0">z</tspan></text><text class="cls-21" transform="translate(316.49 491.88)">25</text><text class="cls-38" transform="translate(347.81 549.85)">NP</text><text class="cls-21" transform="translate(366.55 535.21)">6P</text><line class="cls-26" x1="345.3" y1="511.81" x2="397.98" y2="511.81"/><text class="cls-38" transform="translate(347.81 504.25)">N</text><text class="cls-21" transform="translate(369.19 489.6)">38</text><line class="cls-26" x1="345.3" y1="511.81" x2="397.98" y2="511.81"/><text class="cls-28" transform="translate(221.47 548.05)">Mat</text><text class="cls-29" transform="translate(261.77 491.53)">35</text><line class="cls-27" x1="134.94" y1="466.33" x2="134.94" y2="557.41"/><line class="cls-27" x1="187.62" y1="466.33" x2="187.62" y2="557.41"/><line class="cls-27" x1="292.74" y1="466.33" x2="292.74" y2="557.41"/><line class="cls-27" x1="345.3" y1="466.33" x2="345.3" y2="557.41"/><line class="cls-27" x1="397.98" y1="466.33" x2="397.98" y2="557.41"/><line class="cls-27" x1="450.54" y1="466.33" x2="450.54" y2="557.41"/><line class="cls-27" x1="503.1" y1="466.33" x2="503.1" y2="557.41"/><line class="cls-27" x1="555.66" y1="466.33" x2="555.66" y2="557.41"/><line class="cls-27" x1="608.34" y1="466.33" x2="608.34" y2="557.41"/><line class="cls-27" x1="660.9" y1="466.33" x2="660.9" y2="557.41"/><line class="cls-27" x1="713.46" y1="466.33" x2="713.46" y2="557.41"/><line class="cls-27" x1="766.02" y1="466.33" x2="766.02" y2="557.41"/><line class="cls-27" x1="818.58" y1="466.33" x2="818.58" y2="557.41"/><line class="cls-27" x1="82.38" y1="193.09" x2="134.94" y2="193.09"/><line class="cls-27" x1="134.94" y1="193.09" x2="187.62" y2="193.09"/><line class="cls-27" x1="187.62" y1="193.09" x2="240.18" y2="193.09"/><line class="cls-27" x1="240.18" y1="193.09" x2="292.74" y2="193.09"/><line class="cls-27" x1="292.74" y1="193.09" x2="345.3" y2="193.09"/><line class="cls-27" x1="345.3" y1="193.09" x2="397.98" y2="193.09"/><line class="cls-27" x1="397.98" y1="193.09" x2="450.54" y2="193.09"/><line class="cls-27" x1="450.54" y1="193.09" x2="503.1" y2="193.09"/><line class="cls-27" x1="503.1" y1="193.09" x2="555.66" y2="193.09"/><line class="cls-27" x1="555.66" y1="193.09" x2="608.34" y2="193.09"/><line class="cls-27" x1="608.34" y1="193.09" x2="660.9" y2="193.09"/><line class="cls-27" x1="660.9" y1="193.09" x2="713.46" y2="193.09"/><line class="cls-27" x1="713.46" y1="193.09" x2="766.02" y2="193.09"/><line class="cls-27" x1="766.02" y1="193.09" x2="818.58" y2="193.09"/><line class="cls-27" x1="82.38" y1="284.17" x2="134.94" y2="284.17"/><line class="cls-27" x1="134.94" y1="284.17" x2="187.62" y2="284.17"/><line class="cls-27" x1="187.62" y1="284.17" x2="240.18" y2="284.17"/><line class="cls-27" x1="240.18" y1="284.17" x2="292.74" y2="284.17"/><line class="cls-27" x1="292.74" y1="284.17" x2="345.3" y2="284.17"/><line class="cls-27" x1="345.3" y1="284.17" x2="397.98" y2="284.17"/><line class="cls-27" x1="397.98" y1="284.17" x2="450.54" y2="284.17"/><line class="cls-27" x1="450.54" y1="284.17" x2="503.1" y2="284.17"/><line class="cls-27" x1="503.1" y1="284.17" x2="555.66" y2="284.17"/><line class="cls-27" x1="555.66" y1="284.17" x2="608.34" y2="284.17"/><line class="cls-27" x1="608.34" y1="284.17" x2="660.9" y2="284.17"/><line class="cls-27" x1="660.9" y1="284.17" x2="713.46" y2="284.17"/><line class="cls-27" x1="713.46" y1="284.17" x2="766.02" y2="284.17"/><line class="cls-27" x1="766.02" y1="284.17" x2="818.58" y2="284.17"/><line class="cls-27" x1="82.38" y1="375.25" x2="134.94" y2="375.25"/><line class="cls-27" x1="134.94" y1="375.25" x2="187.62" y2="375.25"/><line class="cls-27" x1="187.62" y1="375.25" x2="240.18" y2="375.25"/><line class="cls-27" x1="240.18" y1="375.25" x2="292.74" y2="375.25"/><line class="cls-27" x1="292.74" y1="375.25" x2="345.3" y2="375.25"/><line class="cls-27" x1="345.3" y1="375.25" x2="397.98" y2="375.25"/><line class="cls-27" x1="397.98" y1="375.25" x2="450.54" y2="375.25"/><line class="cls-27" x1="450.54" y1="375.25" x2="503.1" y2="375.25"/><line class="cls-27" x1="503.1" y1="375.25" x2="555.66" y2="375.25"/><line class="cls-27" x1="555.66" y1="375.25" x2="608.34" y2="375.25"/><line class="cls-27" x1="608.34" y1="375.25" x2="660.9" y2="375.25"/><line class="cls-27" x1="660.9" y1="375.25" x2="713.46" y2="375.25"/><line class="cls-27" x1="713.46" y1="375.25" x2="766.02" y2="375.25"/><line class="cls-27" x1="766.02" y1="375.25" x2="818.58" y2="375.25"/><line class="cls-27" x1="82.38" y1="466.33" x2="134.94" y2="466.33"/><line class="cls-27" x1="134.94" y1="466.33" x2="187.62" y2="466.33"/><line class="cls-27" x1="187.62" y1="466.33" x2="240.18" y2="466.33"/><line class="cls-27" x1="240.18" y1="466.33" x2="292.74" y2="466.33"/><line class="cls-27" x1="292.74" y1="466.33" x2="345.3" y2="466.33"/><line class="cls-27" x1="345.3" y1="466.33" x2="397.98" y2="466.33"/><line class="cls-27" x1="397.98" y1="466.33" x2="450.54" y2="466.33"/><line class="cls-27" x1="450.54" y1="466.33" x2="503.1" y2="466.33"/><line class="cls-27" x1="503.1" y1="466.33" x2="555.66" y2="466.33"/><line class="cls-27" x1="555.66" y1="466.33" x2="608.34" y2="466.33"/><line class="cls-27" x1="608.34" y1="466.33" x2="660.9" y2="466.33"/><line class="cls-27" x1="660.9" y1="466.33" x2="713.46" y2="466.33"/><line class="cls-27" x1="713.46" y1="466.33" x2="766.02" y2="466.33"/><line class="cls-27" x1="766.02" y1="466.33" x2="818.58" y2="466.33"/><line class="cls-27" x1="82.38" y1="557.41" x2="134.94" y2="557.41"/><line class="cls-27" x1="134.94" y1="557.41" x2="187.62" y2="557.41"/><line class="cls-27" x1="187.62" y1="557.41" x2="240.18" y2="557.41"/><line class="cls-27" x1="240.18" y1="557.41" x2="292.74" y2="557.41"/><line class="cls-27" x1="292.74" y1="557.41" x2="345.3" y2="557.41"/><line class="cls-27" x1="345.3" y1="557.41" x2="397.98" y2="557.41"/><line class="cls-27" x1="397.98" y1="557.41" x2="450.54" y2="557.41"/><line class="cls-27" x1="450.54" y1="557.41" x2="503.1" y2="557.41"/><line class="cls-27" x1="503.1" y1="557.41" x2="555.66" y2="557.41"/><line class="cls-27" x1="555.66" y1="557.41" x2="608.34" y2="557.41"/><line class="cls-27" x1="608.34" y1="557.41" x2="660.9" y2="557.41"/><line class="cls-27" x1="660.9" y1="557.41" x2="713.46" y2="557.41"/><line class="cls-27" x1="713.46" y1="557.41" x2="766.02" y2="557.41"/><line class="cls-27" x1="766.02" y1="557.41" x2="818.58" y2="557.41"/><line class="cls-27" x1="818.58" y1="102.01" x2="818.58" y2="193.09"/><line class="cls-27" x1="818.58" y1="193.09" x2="818.58" y2="284.17"/><line class="cls-27" x1="818.58" y1="284.17" x2="818.58" y2="375.25"/><line class="cls-27" x1="818.58" y1="375.25" x2="818.58" y2="466.33"/><line class="cls-27" x1="818.58" y1="466.33" x2="818.58" y2="557.41"/><line class="cls-27" x1="0.66" y1="193.09" x2="82.38" y2="193.09"/><text class="cls-39" transform="translate(27.31 155.41)">P<tspan class="cls-40" x="12.37" y="0">o</tspan></text><line class="cls-27" x1="0.66" y1="284.17" x2="82.38" y2="284.17"/><text class="cls-29" transform="translate(29.81 246.5)"><tspan class="cls-41">U</tspan><tspan x="14.94" y="0">t</tspan></text><line class="cls-27" x1="0.66" y1="375.25" x2="82.38" y2="375.25"/><text class="cls-29" transform="translate(29.81 337.57)"><tspan class="cls-37">S</tspan><tspan x="11.47" y="0">r</tspan></text><line class="cls-27" x1="0.66" y1="466.33" x2="82.38" y2="466.33"/><text class="cls-42" transform="translate(26.71 428.64)">Č<tspan class="cls-40" x="13.4" y="0">e</tspan></text><line class="cls-27" x1="0.66" y1="557.41" x2="82.38" y2="557.41"/><text class="cls-39" transform="translate(27.31 519.73)">P<tspan class="cls-40" x="12.37" y="0">e</tspan></text><line class="cls-27" x1="82.38" y1="102.01" x2="82.38" y2="557.41"/><line class="cls-27" x1="134.94" y1="51.49" x2="134.94" y2="102.01"/><text class="cls-43" transform="translate(102.79 83.77)">0</text><line class="cls-27" x1="187.62" y1="51.49" x2="187.62" y2="102.01"/><text class="cls-43" transform="translate(155.46 83.77)">1</text><line class="cls-27" x1="240.18" y1="51.49" x2="240.18" y2="102.01"/><text class="cls-43" transform="translate(208.03 83.77)">2</text><line class="cls-27" x1="292.74" y1="51.49" x2="292.74" y2="102.01"/><text class="cls-43" transform="translate(260.58 83.77)">3</text><line class="cls-27" x1="345.3" y1="51.49" x2="345.3" y2="102.01"/><text class="cls-43" transform="translate(313.15 83.77)">4</text><line class="cls-27" x1="397.98" y1="51.49" x2="397.98" y2="102.01"/><text class="cls-43" transform="translate(365.83 83.77)">5</text><line class="cls-27" x1="450.54" y1="51.49" x2="450.54" y2="102.01"/><text class="cls-43" transform="translate(418.38 83.77)">6</text><line class="cls-27" x1="503.1" y1="51.49" x2="503.1" y2="102.01"/><text class="cls-43" transform="translate(470.95 83.77)">6</text><line class="cls-27" x1="555.66" y1="51.49" x2="555.66" y2="102.01"/><text class="cls-43" transform="translate(523.52 83.77)">5</text><line class="cls-27" x1="608.34" y1="51.49" x2="608.34" y2="102.01"/><text class="cls-43" transform="translate(576.19 83.77)">4</text><line class="cls-27" x1="660.9" y1="51.49" x2="660.9" y2="102.01"/><text class="cls-43" transform="translate(628.74 83.77)">3</text><line class="cls-27" x1="713.46" y1="51.49" x2="713.46" y2="102.01"/><text class="cls-43" transform="translate(681.31 83.77)">2</text><line class="cls-27" x1="766.02" y1="51.49" x2="766.02" y2="102.01"/><text class="cls-43" transform="translate(733.86 83.77)">1</text><line class="cls-27" x1="818.58" y1="51.49" x2="818.58" y2="102.01"/><text class="cls-43" transform="translate(786.43 83.77)">0</text><line class="cls-27" x1="82.38" y1="102.01" x2="818.58" y2="102.01"/><line class="cls-44" x1="818.58" y1="51.49" x2="818.58" y2="557.41"/><line class="cls-44" x1="0.66" y1="51.49" x2="0.66" y2="557.41"/><line class="cls-44" x1="0.66" y1="51.49" x2="818.58" y2="51.49"/><line class="cls-44" x1="0.66" y1="557.41" x2="818.58" y2="557.41"/><line class="cls-44" x1="82.38" y1="51.49" x2="82.38" y2="557.41"/><line class="cls-44" x1="0.66" y1="102.01" x2="818.58" y2="102.01"/><text class="cls-45" transform="translate(377.72 36.95)">I-1</text></g></g></g></g></svg>