<svg xmlns="http://www.w3.org/2000/svg" xmlns:xlink="http://www.w3.org/1999/xlink" viewBox="0 0 819.24 568.38"><defs><style>.cls-1,.cls-25,.cls-34{fill:none;}.cls-2{clip-path:url(#clip-path);}.cls-3{fill:#fff;}.cls-4{font-size:9.35px;}.cls-21,.cls-26,.cls-27,.cls-28,.cls-32,.cls-33,.cls-35,.cls-4{font-family:Arial;}.cls-5{letter-spacing:-0.02em;}.cls-6{letter-spacing:-0.01em;}.cls-7{letter-spacing:-0.01em;}.cls-8{letter-spacing:-0.01em;}.cls-9{letter-spacing:0em;}.cls-10{letter-spacing:-0.01em;}.cls-11{letter-spacing:-0.01em;}.cls-12{letter-spacing:0em;}.cls-13{letter-spacing:-0.01em;}.cls-14{letter-spacing:-0.01em;}.cls-15{letter-spacing:-0.01em;}.cls-16{letter-spacing:-0.01em;}.cls-17{letter-spacing:-0.02em;}.cls-18{letter-spacing:-0.01em;}.cls-19{letter-spacing:0em;}.cls-20{letter-spacing:-0.01em;}.cls-21{font-size:23.52px;}.cls-22{letter-spacing:0em;}.cls-23{letter-spacing:0em;}.cls-24{letter-spacing:0em;}.cls-25,.cls-34{stroke:#000;stroke-linecap:round;stroke-linejoin:round;}.cls-25{stroke-width:0.48px;}.cls-26{font-size:22.45px;}.cls-27,.cls-28,.cls-32{font-size:22.99px;}.cls-28,.cls-31{letter-spacing:0.01em;}.cls-29{letter-spacing:0em;}.cls-30{letter-spacing:0em;}.cls-32{letter-spacing:0em;}.cls-33{font-size:20.62px;}.cls-34{stroke-width:1.32px;}.cls-35{font-size:44.15px;}.cls-36{letter-spacing:0em;}</style><clipPath id="clip-path" transform="translate(-11.22 -8.03)"><rect class="cls-1" width="841.89" height="595.28"/></clipPath></defs><title>II1</title><g id="Layer_2" data-name="Layer 2"><g id="Layer_1-2" data-name="Layer 1"><g id="II1"><g class="cls-2"><rect class="cls-3" x="0.66" y="40.57" width="231.6" height="10.44"/><text class="cls-4" transform="translate(0.66 48.96)"><tspan class="cls-5">M</tspan><tspan x="7.29" y="0">i</tspan><tspan class="cls-6" x="9.48" y="0">t</tspan><tspan x="12.47" y="0">rovačk</tspan><tspan class="cls-7" x="38.22" y="0">a </tspan><tspan class="cls-8" x="44.56" y="0">G</tspan><tspan class="cls-9" x="50.53" y="0">imn</tspan><tspan class="cls-10" x="65.69" y="0">a</tspan><tspan class="cls-11" x="70.11" y="0">z</tspan><tspan x="74" y="0">i</tspan><tspan class="cls-8" x="76.19" y="0">j</tspan><tspan class="cls-12" x="78.39" y="0">a</tspan><tspan class="cls-11" x="82.9" y="0">,</tspan><tspan class="cls-7" x="84.72" y="0"> </tspan><tspan class="cls-9" x="86.63" y="0">u</tspan><tspan class="cls-13" x="91.78" y="0">l</tspan><tspan class="cls-7" x="93.92" y="0">. </tspan><tspan class="cls-11" x="97.68" y="0">S</tspan><tspan x="102.18" y="0">v</tspan><tspan class="cls-14" x="106.67" y="0">.</tspan><tspan class="cls-7" x="108.54" y="0"> </tspan><tspan class="cls-15" x="110.45" y="0">S</tspan><tspan x="114.94" y="0">av</tspan><tspan class="cls-14" x="123.94" y="0">e</tspan><tspan class="cls-7" x="128.56" y="0"> </tspan><tspan x="130.46" y="0">2</tspan><tspan class="cls-15" x="135.26" y="0">,</tspan><tspan class="cls-7" x="137.08" y="0"> </tspan><tspan class="cls-11" x="138.98" y="0">S</tspan><tspan x="143.48" y="0">remska</tspan><tspan class="cls-16" x="171.6" y="0"> </tspan><tspan class="cls-5" x="173.48" y="0">M</tspan><tspan x="180.77" y="0">i</tspan><tspan class="cls-6" x="182.95" y="0">t</tspan><tspan x="185.94" y="0">rovica</tspan></text><text class="cls-4" transform="translate(0.66 566.05)">.</text><text class="cls-4" transform="translate(759.89 566.05)">a<tspan class="cls-17" x="4.5" y="0">S</tspan><tspan x="8.97" y="0">c</tspan><tspan class="cls-8" x="13.16" y="0"> </tspan><tspan x="15.07" y="0">R</tspan><tspan class="cls-18" x="20.1" y="0">a</tspan><tspan class="cls-19" x="24.55" y="0">sp</tspan><tspan class="cls-20" x="33.57" y="0">o</tspan><tspan x="38.63" y="0">red</tspan></text><text class="cls-21" transform="translate(668.84 183.49)">Srp</text><text class="cls-21" transform="translate(684.67 127.58)">33</text><text class="cls-21" transform="translate(723.43 183.49)">Lat</text><text class="cls-21" transform="translate(750.3 127.58)">5</text><text class="cls-21" transform="translate(517.03 183.49)">I<tspan class="cls-22" x="5.62" y="0">s</tspan><tspan x="14.89" y="0">t</tspan></text><text class="cls-21" transform="translate(526.87 127.58)">31</text><text class="cls-21" transform="translate(775.26 183.49)">B<tspan class="cls-23" x="12.75" y="0">i</tspan><tspan class="cls-24" x="18.32" y="0">o</tspan></text><text class="cls-21" transform="translate(802.87 127.58)">9</text><text class="cls-21" transform="translate(566.22 183.49)">F<tspan class="cls-23" x="11.46" y="0">i</tspan><tspan x="17.03" y="0">z</tspan></text><text class="cls-21" transform="translate(579.54 127.58)">25</text><text class="cls-21" transform="translate(609.79 183.49)">Hem</text><text class="cls-21" transform="translate(645.19 127.58)">9</text><text class="cls-21" transform="translate(457.87 183.49)">Fzč</text><line class="cls-25" x1="134.94" y1="102.01" x2="134.94" y2="193.09"/><line class="cls-25" x1="187.62" y1="102.01" x2="187.62" y2="193.09"/><line class="cls-25" x1="240.18" y1="102.01" x2="240.18" y2="193.09"/><line class="cls-25" x1="292.74" y1="102.01" x2="292.74" y2="193.09"/><line class="cls-25" x1="345.3" y1="102.01" x2="345.3" y2="193.09"/><line class="cls-25" x1="397.98" y1="102.01" x2="397.98" y2="193.09"/><line class="cls-25" x1="450.54" y1="102.01" x2="450.54" y2="193.09"/><line class="cls-25" x1="503.1" y1="102.01" x2="503.1" y2="193.09"/><line class="cls-25" x1="555.66" y1="102.01" x2="555.66" y2="193.09"/><line class="cls-25" x1="608.34" y1="102.01" x2="608.34" y2="193.09"/><line class="cls-25" x1="660.9" y1="102.01" x2="660.9" y2="193.09"/><line class="cls-25" x1="713.46" y1="102.01" x2="713.46" y2="193.09"/><line class="cls-25" x1="766.02" y1="102.01" x2="766.02" y2="193.09"/><line class="cls-25" x1="818.58" y1="102.01" x2="818.58" y2="193.09"/><text class="cls-21" transform="translate(512.94 274.58)">Psi</text><text class="cls-21" transform="translate(524.23 218.66)">6P</text><text class="cls-21" transform="translate(564.91 274.58)">B<tspan class="cls-23" x="12.75" y="0">i</tspan><tspan class="cls-24" x="18.32" y="0">o</tspan></text><text class="cls-21" transform="translate(592.62 218.66)">9</text><text class="cls-21" transform="translate(457.87 274.58)">Fzč</text><text class="cls-26" transform="translate(640.86 274.82)">Eng</text><text class="cls-27" transform="translate(682.5 218.3)">19</text><text class="cls-26" transform="translate(747.32 274.82)">Mat</text><text class="cls-27" transform="translate(787.62 218.3)">35</text><line class="cls-25" x1="134.94" y1="193.09" x2="134.94" y2="284.17"/><line class="cls-25" x1="187.62" y1="193.09" x2="187.62" y2="284.17"/><line class="cls-25" x1="240.18" y1="193.09" x2="240.18" y2="284.17"/><line class="cls-25" x1="292.74" y1="193.09" x2="292.74" y2="284.17"/><line class="cls-25" x1="345.3" y1="193.09" x2="345.3" y2="284.17"/><line class="cls-25" x1="397.98" y1="193.09" x2="397.98" y2="284.17"/><line class="cls-25" x1="450.54" y1="193.09" x2="450.54" y2="284.17"/><line class="cls-25" x1="503.1" y1="193.09" x2="503.1" y2="284.17"/><line class="cls-25" x1="555.66" y1="193.09" x2="555.66" y2="284.17"/><line class="cls-25" x1="608.34" y1="193.09" x2="608.34" y2="284.17"/><line class="cls-25" x1="713.46" y1="193.09" x2="713.46" y2="284.17"/><line class="cls-25" x1="818.58" y1="193.09" x2="818.58" y2="284.17"/><text class="cls-21" transform="translate(664.98 365.66)">Muz</text><text class="cls-21" transform="translate(697.75 309.74)">1</text><text class="cls-26" transform="translate(485.58 365.9)">Srp</text><text class="cls-27" transform="translate(524.7 309.37)">22</text><text class="cls-21" transform="translate(618.31 365.66)">Lat</text><text class="cls-21" transform="translate(645.19 309.74)">5</text><text class="cls-21" transform="translate(717.55 365.66)"><tspan class="cls-22">G</tspan><tspan x="15.15" y="0">eo</tspan></text><text class="cls-21" transform="translate(737.22 309.74)">21</text><text class="cls-21" transform="translate(565.64 365.66)">NP</text><text class="cls-21" transform="translate(579.54 309.74)">31</text><line class="cls-25" x1="134.94" y1="284.17" x2="134.94" y2="375.25"/><line class="cls-25" x1="187.62" y1="284.17" x2="187.62" y2="375.25"/><line class="cls-25" x1="240.18" y1="284.17" x2="240.18" y2="375.25"/><line class="cls-25" x1="292.74" y1="284.17" x2="292.74" y2="375.25"/><line class="cls-25" x1="345.3" y1="284.17" x2="345.3" y2="375.25"/><line class="cls-25" x1="397.98" y1="284.17" x2="397.98" y2="375.25"/><line class="cls-25" x1="450.54" y1="284.17" x2="450.54" y2="375.25"/><line class="cls-25" x1="555.66" y1="284.17" x2="555.66" y2="375.25"/><line class="cls-25" x1="608.34" y1="284.17" x2="608.34" y2="375.25"/><line class="cls-25" x1="660.9" y1="284.17" x2="660.9" y2="375.25"/><line class="cls-25" x1="713.46" y1="284.17" x2="713.46" y2="375.25"/><line class="cls-25" x1="766.02" y1="284.17" x2="766.02" y2="375.25"/><line class="cls-25" x1="818.58" y1="284.17" x2="818.58" y2="375.25"/><text class="cls-21" transform="translate(674.83 456.74)">I<tspan class="cls-22" x="5.62" y="0">s</tspan><tspan x="14.89" y="0">t</tspan></text><text class="cls-21" transform="translate(684.67 400.8)">31</text><text class="cls-21" transform="translate(566.22 456.74)">F<tspan class="cls-23" x="11.46" y="0">i</tspan><tspan x="17.03" y="0">z</tspan></text><text class="cls-21" transform="translate(579.54 400.8)">25</text><text class="cls-21" transform="translate(460.39 456.74)">NP</text><text class="cls-21" transform="translate(471.66 400.8)">6P</text><text class="cls-21" transform="translate(508.38 456.74)">Eng</text><text class="cls-21" transform="translate(526.87 400.8)">19</text><text class="cls-21" transform="translate(615.06 456.74)">Mat</text><text class="cls-21" transform="translate(645.19 400.8)">3</text><line class="cls-25" x1="134.94" y1="375.25" x2="134.94" y2="466.33"/><line class="cls-25" x1="187.62" y1="375.25" x2="187.62" y2="466.33"/><line class="cls-25" x1="240.18" y1="375.25" x2="240.18" y2="466.33"/><line class="cls-25" x1="292.74" y1="375.25" x2="292.74" y2="466.33"/><line class="cls-25" x1="345.3" y1="375.25" x2="345.3" y2="466.33"/><line class="cls-25" x1="397.98" y1="375.25" x2="397.98" y2="466.33"/><line class="cls-25" x1="450.54" y1="375.25" x2="450.54" y2="466.33"/><line class="cls-25" x1="503.1" y1="375.25" x2="503.1" y2="466.33"/><line class="cls-25" x1="555.66" y1="375.25" x2="555.66" y2="466.33"/><line class="cls-25" x1="608.34" y1="375.25" x2="608.34" y2="466.33"/><line class="cls-25" x1="660.9" y1="375.25" x2="660.9" y2="466.33"/><line class="cls-25" x1="713.46" y1="375.25" x2="713.46" y2="466.33"/><line class="cls-25" x1="766.02" y1="375.25" x2="766.02" y2="466.33"/><line class="cls-25" x1="818.58" y1="375.25" x2="818.58" y2="466.33"/><text class="cls-21" transform="translate(566.95 547.82)">Lik</text><text class="cls-21" transform="translate(592.62 491.88)">1</text><text class="cls-21" transform="translate(458.46 547.82)">Srp</text><text class="cls-21" transform="translate(474.29 491.88)">22</text><text class="cls-21" transform="translate(618.19 547.82)">Psi</text><text class="cls-21" transform="translate(629.46 491.88)">6P</text><text class="cls-21" transform="translate(664.98 547.82)"><tspan class="cls-22">G</tspan><tspan x="15.15" y="0">eo</tspan></text><text class="cls-21" transform="translate(684.67 491.88)">21</text><text class="cls-21" transform="translate(504.54 547.82)">Hem</text><text class="cls-21" transform="translate(539.95 491.88)">3</text><line class="cls-25" x1="134.94" y1="466.33" x2="134.94" y2="557.41"/><line class="cls-25" x1="187.62" y1="466.33" x2="187.62" y2="557.41"/><line class="cls-25" x1="240.18" y1="466.33" x2="240.18" y2="557.41"/><line class="cls-25" x1="292.74" y1="466.33" x2="292.74" y2="557.41"/><line class="cls-25" x1="345.3" y1="466.33" x2="345.3" y2="557.41"/><line class="cls-25" x1="397.98" y1="466.33" x2="397.98" y2="557.41"/><line class="cls-25" x1="450.54" y1="466.33" x2="450.54" y2="557.41"/><line class="cls-25" x1="503.1" y1="466.33" x2="503.1" y2="557.41"/><line class="cls-25" x1="555.66" y1="466.33" x2="555.66" y2="557.41"/><line class="cls-25" x1="608.34" y1="466.33" x2="608.34" y2="557.41"/><line class="cls-25" x1="660.9" y1="466.33" x2="660.9" y2="557.41"/><line class="cls-25" x1="713.46" y1="466.33" x2="713.46" y2="557.41"/><line class="cls-25" x1="766.02" y1="466.33" x2="766.02" y2="557.41"/><line class="cls-25" x1="818.58" y1="466.33" x2="818.58" y2="557.41"/><line class="cls-25" x1="82.38" y1="193.09" x2="134.94" y2="193.09"/><line class="cls-25" x1="134.94" y1="193.09" x2="187.62" y2="193.09"/><line class="cls-25" x1="187.62" y1="193.09" x2="240.18" y2="193.09"/><line class="cls-25" x1="240.18" y1="193.09" x2="292.74" y2="193.09"/><line class="cls-25" x1="292.74" y1="193.09" x2="345.3" y2="193.09"/><line class="cls-25" x1="345.3" y1="193.09" x2="397.98" y2="193.09"/><line class="cls-25" x1="397.98" y1="193.09" x2="450.54" y2="193.09"/><line class="cls-25" x1="450.54" y1="193.09" x2="503.1" y2="193.09"/><line class="cls-25" x1="503.1" y1="193.09" x2="555.66" y2="193.09"/><line class="cls-25" x1="555.66" y1="193.09" x2="608.34" y2="193.09"/><line class="cls-25" x1="608.34" y1="193.09" x2="660.9" y2="193.09"/><line class="cls-25" x1="660.9" y1="193.09" x2="713.46" y2="193.09"/><line class="cls-25" x1="713.46" y1="193.09" x2="766.02" y2="193.09"/><line class="cls-25" x1="766.02" y1="193.09" x2="818.58" y2="193.09"/><line class="cls-25" x1="82.38" y1="284.17" x2="134.94" y2="284.17"/><line class="cls-25" x1="134.94" y1="284.17" x2="187.62" y2="284.17"/><line class="cls-25" x1="187.62" y1="284.17" x2="240.18" y2="284.17"/><line class="cls-25" x1="240.18" y1="284.17" x2="292.74" y2="284.17"/><line class="cls-25" x1="292.74" y1="284.17" x2="345.3" y2="284.17"/><line class="cls-25" x1="345.3" y1="284.17" x2="397.98" y2="284.17"/><line class="cls-25" x1="397.98" y1="284.17" x2="450.54" y2="284.17"/><line class="cls-25" x1="450.54" y1="284.17" x2="503.1" y2="284.17"/><line class="cls-25" x1="503.1" y1="284.17" x2="555.66" y2="284.17"/><line class="cls-25" x1="555.66" y1="284.17" x2="608.34" y2="284.17"/><line class="cls-25" x1="608.34" y1="284.17" x2="660.9" y2="284.17"/><line class="cls-25" x1="660.9" y1="284.17" x2="713.46" y2="284.17"/><line class="cls-25" x1="713.46" y1="284.17" x2="766.02" y2="284.17"/><line class="cls-25" x1="766.02" y1="284.17" x2="818.58" y2="284.17"/><line class="cls-25" x1="82.38" y1="375.25" x2="134.94" y2="375.25"/><line class="cls-25" x1="134.94" y1="375.25" x2="187.62" y2="375.25"/><line class="cls-25" x1="187.62" y1="375.25" x2="240.18" y2="375.25"/><line class="cls-25" x1="240.18" y1="375.25" x2="292.74" y2="375.25"/><line class="cls-25" x1="292.74" y1="375.25" x2="345.3" y2="375.25"/><line class="cls-25" x1="345.3" y1="375.25" x2="397.98" y2="375.25"/><line class="cls-25" x1="397.98" y1="375.25" x2="450.54" y2="375.25"/><line class="cls-25" x1="450.54" y1="375.25" x2="503.1" y2="375.25"/><line class="cls-25" x1="503.1" y1="375.25" x2="555.66" y2="375.25"/><line class="cls-25" x1="555.66" y1="375.25" x2="608.34" y2="375.25"/><line class="cls-25" x1="608.34" y1="375.25" x2="660.9" y2="375.25"/><line class="cls-25" x1="660.9" y1="375.25" x2="713.46" y2="375.25"/><line class="cls-25" x1="713.46" y1="375.25" x2="766.02" y2="375.25"/><line class="cls-25" x1="766.02" y1="375.25" x2="818.58" y2="375.25"/><line class="cls-25" x1="82.38" y1="466.33" x2="134.94" y2="466.33"/><line class="cls-25" x1="134.94" y1="466.33" x2="187.62" y2="466.33"/><line class="cls-25" x1="187.62" y1="466.33" x2="240.18" y2="466.33"/><line class="cls-25" x1="240.18" y1="466.33" x2="292.74" y2="466.33"/><line class="cls-25" x1="292.74" y1="466.33" x2="345.3" y2="466.33"/><line class="cls-25" x1="345.3" y1="466.33" x2="397.98" y2="466.33"/><line class="cls-25" x1="397.98" y1="466.33" x2="450.54" y2="466.33"/><line class="cls-25" x1="450.54" y1="466.33" x2="503.1" y2="466.33"/><line class="cls-25" x1="503.1" y1="466.33" x2="555.66" y2="466.33"/><line class="cls-25" x1="555.66" y1="466.33" x2="608.34" y2="466.33"/><line class="cls-25" x1="608.34" y1="466.33" x2="660.9" y2="466.33"/><line class="cls-25" x1="660.9" y1="466.33" x2="713.46" y2="466.33"/><line class="cls-25" x1="713.46" y1="466.33" x2="766.02" y2="466.33"/><line class="cls-25" x1="766.02" y1="466.33" x2="818.58" y2="466.33"/><line class="cls-25" x1="82.38" y1="557.41" x2="134.94" y2="557.41"/><line class="cls-25" x1="134.94" y1="557.41" x2="187.62" y2="557.41"/><line class="cls-25" x1="187.62" y1="557.41" x2="240.18" y2="557.41"/><line class="cls-25" x1="240.18" y1="557.41" x2="292.74" y2="557.41"/><line class="cls-25" x1="292.74" y1="557.41" x2="345.3" y2="557.41"/><line class="cls-25" x1="345.3" y1="557.41" x2="397.98" y2="557.41"/><line class="cls-25" x1="397.98" y1="557.41" x2="450.54" y2="557.41"/><line class="cls-25" x1="450.54" y1="557.41" x2="503.1" y2="557.41"/><line class="cls-25" x1="503.1" y1="557.41" x2="555.66" y2="557.41"/><line class="cls-25" x1="555.66" y1="557.41" x2="608.34" y2="557.41"/><line class="cls-25" x1="608.34" y1="557.41" x2="660.9" y2="557.41"/><line class="cls-25" x1="660.9" y1="557.41" x2="713.46" y2="557.41"/><line class="cls-25" x1="713.46" y1="557.41" x2="766.02" y2="557.41"/><line class="cls-25" x1="766.02" y1="557.41" x2="818.58" y2="557.41"/><line class="cls-25" x1="818.58" y1="102.01" x2="818.58" y2="193.09"/><line class="cls-25" x1="818.58" y1="193.09" x2="818.58" y2="284.17"/><line class="cls-25" x1="818.58" y1="284.17" x2="818.58" y2="375.25"/><line class="cls-25" x1="818.58" y1="375.25" x2="818.58" y2="466.33"/><line class="cls-25" x1="818.58" y1="466.33" x2="818.58" y2="557.41"/><line class="cls-25" x1="0.66" y1="193.09" x2="82.38" y2="193.09"/><text class="cls-28" transform="translate(27.31 155.41)">P<tspan class="cls-29" x="12.37" y="0">o</tspan></text><line class="cls-25" x1="0.66" y1="284.17" x2="82.38" y2="284.17"/><text class="cls-27" transform="translate(29.81 246.5)"><tspan class="cls-30">U</tspan><tspan x="14.94" y="0">t</tspan></text><line class="cls-25" x1="0.66" y1="375.25" x2="82.38" y2="375.25"/><text class="cls-27" transform="translate(29.81 337.57)"><tspan class="cls-31">S</tspan><tspan x="11.47" y="0">r</tspan></text><line class="cls-25" x1="0.66" y1="466.33" x2="82.38" y2="466.33"/><text class="cls-32" transform="translate(26.71 428.64)">Č<tspan class="cls-29" x="13.4" y="0">e</tspan></text><line class="cls-25" x1="0.66" y1="557.41" x2="82.38" y2="557.41"/><text class="cls-28" transform="translate(27.31 519.73)">P<tspan class="cls-29" x="12.37" y="0">e</tspan></text><line class="cls-25" x1="82.38" y1="102.01" x2="82.38" y2="557.41"/><line class="cls-25" x1="134.94" y1="51.49" x2="134.94" y2="102.01"/><text class="cls-33" transform="translate(102.79 83.77)">0</text><line class="cls-25" x1="187.62" y1="51.49" x2="187.62" y2="102.01"/><text class="cls-33" transform="translate(155.46 83.77)">1</text><line class="cls-25" x1="240.18" y1="51.49" x2="240.18" y2="102.01"/><text class="cls-33" transform="translate(208.03 83.77)">2</text><line class="cls-25" x1="292.74" y1="51.49" x2="292.74" y2="102.01"/><text class="cls-33" transform="translate(260.58 83.77)">3</text><line class="cls-25" x1="345.3" y1="51.49" x2="345.3" y2="102.01"/><text class="cls-33" transform="translate(313.15 83.77)">4</text><line class="cls-25" x1="397.98" y1="51.49" x2="397.98" y2="102.01"/><text class="cls-33" transform="translate(365.83 83.77)">5</text><line class="cls-25" x1="450.54" y1="51.49" x2="450.54" y2="102.01"/><text class="cls-33" transform="translate(418.38 83.77)">6</text><line class="cls-25" x1="503.1" y1="51.49" x2="503.1" y2="102.01"/><text class="cls-33" transform="translate(470.95 83.77)">6</text><line class="cls-25" x1="555.66" y1="51.49" x2="555.66" y2="102.01"/><text class="cls-33" transform="translate(523.52 83.77)">5</text><line class="cls-25" x1="608.34" y1="51.49" x2="608.34" y2="102.01"/><text class="cls-33" transform="translate(576.19 83.77)">4</text><line class="cls-25" x1="660.9" y1="51.49" x2="660.9" y2="102.01"/><text class="cls-33" transform="translate(628.74 83.77)">3</text><line class="cls-25" x1="713.46" y1="51.49" x2="713.46" y2="102.01"/><text class="cls-33" transform="translate(681.31 83.77)">2</text><line class="cls-25" x1="766.02" y1="51.49" x2="766.02" y2="102.01"/><text class="cls-33" transform="translate(733.86 83.77)">1</text><line class="cls-25" x1="818.58" y1="51.49" x2="818.58" y2="102.01"/><text class="cls-33" transform="translate(786.43 83.77)">0</text><line class="cls-25" x1="82.38" y1="102.01" x2="818.58" y2="102.01"/><line class="cls-34" x1="818.58" y1="51.49" x2="818.58" y2="557.41"/><line class="cls-34" x1="0.66" y1="51.49" x2="0.66" y2="557.41"/><line class="cls-34" x1="0.66" y1="51.49" x2="818.58" y2="51.49"/><line class="cls-34" x1="0.66" y1="557.41" x2="818.58" y2="557.41"/><line class="cls-34" x1="82.38" y1="51.49" x2="82.38" y2="557.41"/><line class="cls-34" x1="0.66" y1="102.01" x2="818.58" y2="102.01"/><text class="cls-35" transform="translate(371.58 36.95)">I<tspan class="cls-36" x="10.55" y="0">I</tspan><tspan x="21.06" y="0">-1</tspan></text></g></g></g></g></svg>