<svg xmlns="http://www.w3.org/2000/svg" xmlns:xlink="http://www.w3.org/1999/xlink" viewBox="0 0 819.24 568.38"><defs><style>.cls-1,.cls-25,.cls-28,.cls-39{fill:none;}.cls-2{clip-path:url(#clip-path);}.cls-3{fill:#fff;}.cls-4{font-size:9.35px;}.cls-21,.cls-24,.cls-26,.cls-29,.cls-30,.cls-33,.cls-37,.cls-38,.cls-4,.cls-40{font-family:Arial;}.cls-5{letter-spacing:-0.02em;}.cls-6{letter-spacing:-0.01em;}.cls-7{letter-spacing:-0.01em;}.cls-8{letter-spacing:-0.01em;}.cls-9{letter-spacing:0em;}.cls-10{letter-spacing:-0.01em;}.cls-11{letter-spacing:-0.01em;}.cls-12{letter-spacing:0em;}.cls-13{letter-spacing:-0.01em;}.cls-14{letter-spacing:-0.01em;}.cls-15{letter-spacing:-0.01em;}.cls-16{letter-spacing:-0.01em;}.cls-17{letter-spacing:-0.02em;}.cls-18{letter-spacing:-0.01em;}.cls-19{letter-spacing:0em;}.cls-20{letter-spacing:-0.01em;}.cls-21,.cls-26{font-size:23.52px;}.cls-22,.cls-26{letter-spacing:0em;}.cls-23{letter-spacing:0em;}.cls-24{font-size:23.95px;}.cls-25,.cls-28,.cls-39{stroke:#000;stroke-linecap:round;stroke-linejoin:round;}.cls-25{stroke-width:0.24px;}.cls-27{letter-spacing:0em;}.cls-28{stroke-width:0.48px;}.cls-29{font-size:22.45px;}.cls-30,.cls-33,.cls-37{font-size:22.99px;}.cls-31{letter-spacing:0.01em;}.cls-32{letter-spacing:0em;}.cls-33,.cls-36{letter-spacing:0.01em;}.cls-34{letter-spacing:0em;}.cls-35{letter-spacing:0em;}.cls-37{letter-spacing:0em;}.cls-38{font-size:20.62px;}.cls-39{stroke-width:1.32px;}.cls-40{font-size:44.15px;}.cls-41{letter-spacing:0em;}</style><clipPath id="clip-path" transform="translate(-11.22 -8.03)"><rect class="cls-1" width="841.89" height="595.28"/></clipPath></defs><title>II5</title><g id="Layer_2" data-name="Layer 2"><g id="Layer_1-2" data-name="Layer 1"><g id="II5"><g class="cls-2"><rect class="cls-3" x="0.66" y="40.57" width="231.6" height="10.44"/><text class="cls-4" transform="translate(0.66 48.96)"><tspan class="cls-5">M</tspan><tspan x="7.29" y="0">i</tspan><tspan class="cls-6" x="9.48" y="0">t</tspan><tspan x="12.47" y="0">rovačk</tspan><tspan class="cls-7" x="38.22" y="0">a </tspan><tspan class="cls-8" x="44.56" y="0">G</tspan><tspan class="cls-9" x="50.53" y="0">imn</tspan><tspan class="cls-10" x="65.69" y="0">a</tspan><tspan class="cls-11" x="70.11" y="0">z</tspan><tspan x="74" y="0">i</tspan><tspan class="cls-8" x="76.19" y="0">j</tspan><tspan class="cls-12" x="78.39" y="0">a</tspan><tspan class="cls-11" x="82.9" y="0">,</tspan><tspan class="cls-7" x="84.72" y="0"> </tspan><tspan class="cls-9" x="86.63" y="0">u</tspan><tspan class="cls-13" x="91.78" y="0">l</tspan><tspan class="cls-7" x="93.92" y="0">. </tspan><tspan class="cls-11" x="97.68" y="0">S</tspan><tspan x="102.18" y="0">v</tspan><tspan class="cls-14" x="106.67" y="0">.</tspan><tspan class="cls-7" x="108.54" y="0"> </tspan><tspan class="cls-15" x="110.45" y="0">S</tspan><tspan x="114.94" y="0">av</tspan><tspan class="cls-14" x="123.94" y="0">e</tspan><tspan class="cls-7" x="128.56" y="0"> </tspan><tspan x="130.46" y="0">2</tspan><tspan class="cls-15" x="135.26" y="0">,</tspan><tspan class="cls-7" x="137.08" y="0"> </tspan><tspan class="cls-11" x="138.98" y="0">S</tspan><tspan x="143.48" y="0">remska</tspan><tspan class="cls-16" x="171.6" y="0"> </tspan><tspan class="cls-5" x="173.48" y="0">M</tspan><tspan x="180.77" y="0">i</tspan><tspan class="cls-6" x="182.95" y="0">t</tspan><tspan x="185.94" y="0">rovica</tspan></text><text class="cls-4" transform="translate(0.66 566.05)">.</text><text class="cls-4" transform="translate(759.89 566.05)">a<tspan class="cls-17" x="4.5" y="0">S</tspan><tspan x="8.97" y="0">c</tspan><tspan class="cls-8" x="13.16" y="0"> </tspan><tspan x="15.07" y="0">R</tspan><tspan class="cls-18" x="20.1" y="0">a</tspan><tspan class="cls-19" x="24.55" y="0">sp</tspan><tspan class="cls-20" x="33.57" y="0">o</tspan><tspan x="38.63" y="0">red</tspan></text><text class="cls-21" transform="translate(612.42 183.49)"><tspan class="cls-22">G</tspan><tspan x="15.15" y="0">eo</tspan></text><text class="cls-21" transform="translate(632.11 127.58)">21</text><text class="cls-21" transform="translate(724.02 183.49)">F<tspan class="cls-23" x="11.46" y="0">i</tspan><tspan x="17.03" y="0">z</tspan></text><text class="cls-21" transform="translate(737.22 127.58)">25</text><text class="cls-24" transform="translate(505.61 140.04)">NP</text><text class="cls-21" transform="translate(524.23 125.42)">6P</text><line class="cls-25" x1="503.1" y1="147.61" x2="555.66" y2="147.61"/><text class="cls-24" transform="translate(453.06 185.53)">N+</text><text class="cls-21" transform="translate(474.29 170.89)">33</text><line class="cls-25" x1="450.54" y1="147.61" x2="503.1" y2="147.61"/><text class="cls-21" transform="translate(668.84 183.49)">Srp</text><text class="cls-21" transform="translate(684.67 127.58)">22</text><text class="cls-26" transform="translate(561.07 156.84)">O<tspan class="cls-27" x="16.16" y="0">S-</tspan></text><text class="cls-21" transform="translate(563.71 183.26)">RM</text><text class="cls-21" transform="translate(579.54 127.58)">18</text><line class="cls-28" x1="134.94" y1="102.01" x2="134.94" y2="193.09"/><line class="cls-28" x1="187.62" y1="102.01" x2="187.62" y2="193.09"/><line class="cls-28" x1="240.18" y1="102.01" x2="240.18" y2="193.09"/><line class="cls-28" x1="292.74" y1="102.01" x2="292.74" y2="193.09"/><line class="cls-28" x1="345.3" y1="102.01" x2="345.3" y2="193.09"/><line class="cls-28" x1="397.98" y1="102.01" x2="397.98" y2="193.09"/><line class="cls-28" x1="450.54" y1="102.01" x2="450.54" y2="193.09"/><line class="cls-28" x1="503.1" y1="102.01" x2="503.1" y2="193.09"/><line class="cls-28" x1="555.66" y1="102.01" x2="555.66" y2="193.09"/><line class="cls-28" x1="608.34" y1="102.01" x2="608.34" y2="193.09"/><line class="cls-28" x1="660.9" y1="102.01" x2="660.9" y2="193.09"/><line class="cls-28" x1="713.46" y1="102.01" x2="713.46" y2="193.09"/><line class="cls-28" x1="766.02" y1="102.01" x2="766.02" y2="193.09"/><line class="cls-28" x1="818.58" y1="102.01" x2="818.58" y2="193.09"/><text class="cls-21" transform="translate(727.39 274.58)">I<tspan class="cls-22" x="5.62" y="0">s</tspan><tspan x="14.89" y="0">t</tspan></text><text class="cls-21" transform="translate(737.22 218.66)">21</text><text class="cls-21" transform="translate(509.81 274.58)">Mat</text><text class="cls-21" transform="translate(539.95 218.66)">3</text><text class="cls-24" transform="translate(453.06 231.01)">NP</text><text class="cls-21" transform="translate(487.39 216.38)">1</text><line class="cls-25" x1="450.54" y1="238.57" x2="503.1" y2="238.57"/><text class="cls-24" transform="translate(453.06 276.6)">N+</text><text class="cls-21" transform="translate(474.29 261.97)">33</text><line class="cls-25" x1="450.54" y1="238.57" x2="503.1" y2="238.57"/><text class="cls-21" transform="translate(773.94 274.58)">Srp</text><text class="cls-21" transform="translate(789.8 218.66)">22</text><text class="cls-21" transform="translate(666.18 274.58)">Eng</text><text class="cls-21" transform="translate(684.67 218.66)">21</text><text class="cls-29" transform="translate(575.82 274.82)">PR-PJ</text><text class="cls-30" transform="translate(610.62 218.3)">1<tspan class="cls-31" x="11.79" y="0">8</tspan><tspan class="cls-32" x="23.7" y="0">,</tspan><tspan x="28.55" y="0">2</tspan></text><line class="cls-28" x1="134.94" y1="193.09" x2="134.94" y2="284.17"/><line class="cls-28" x1="187.62" y1="193.09" x2="187.62" y2="284.17"/><line class="cls-28" x1="240.18" y1="193.09" x2="240.18" y2="284.17"/><line class="cls-28" x1="292.74" y1="193.09" x2="292.74" y2="284.17"/><line class="cls-28" x1="345.3" y1="193.09" x2="345.3" y2="284.17"/><line class="cls-28" x1="397.98" y1="193.09" x2="397.98" y2="284.17"/><line class="cls-28" x1="450.54" y1="193.09" x2="450.54" y2="284.17"/><line class="cls-28" x1="503.1" y1="193.09" x2="503.1" y2="284.17"/><line class="cls-28" x1="555.66" y1="193.09" x2="555.66" y2="284.17"/><line class="cls-28" x1="660.9" y1="193.09" x2="660.9" y2="284.17"/><line class="cls-28" x1="713.46" y1="193.09" x2="713.46" y2="284.17"/><line class="cls-28" x1="766.02" y1="193.09" x2="766.02" y2="284.17"/><line class="cls-28" x1="818.58" y1="193.09" x2="818.58" y2="284.17"/><text class="cls-21" transform="translate(507.18 365.66)"><tspan class="cls-22">G</tspan><tspan x="15.15" y="0">eo</tspan></text><text class="cls-21" transform="translate(526.87 309.74)">21</text><text class="cls-21" transform="translate(772.74 365.66)">Mat</text><text class="cls-21" transform="translate(802.87 309.74)">5</text><text class="cls-21" transform="translate(618.89 365.66)">F<tspan class="cls-23" x="11.46" y="0">i</tspan><tspan x="17.03" y="0">z</tspan></text><text class="cls-21" transform="translate(632.11 309.74)">25</text><text class="cls-21" transform="translate(562.98 365.66)">Fzč</text><text class="cls-26" transform="translate(455.94 339.01)">O<tspan class="cls-27" x="16.16" y="0">S-</tspan></text><text class="cls-21" transform="translate(458.46 365.42)">RM</text><text class="cls-21" transform="translate(474.29 309.74)">18</text><text class="cls-21" transform="translate(718.75 365.66)">Eng</text><text class="cls-21" transform="translate(737.22 309.74)">19</text><text class="cls-21" transform="translate(662.34 365.66)">Dma</text><text class="cls-21" transform="translate(697.75 309.74)">3</text><line class="cls-28" x1="134.94" y1="284.17" x2="134.94" y2="375.25"/><line class="cls-28" x1="187.62" y1="284.17" x2="187.62" y2="375.25"/><line class="cls-28" x1="240.18" y1="284.17" x2="240.18" y2="375.25"/><line class="cls-28" x1="292.74" y1="284.17" x2="292.74" y2="375.25"/><line class="cls-28" x1="345.3" y1="284.17" x2="345.3" y2="375.25"/><line class="cls-28" x1="397.98" y1="284.17" x2="397.98" y2="375.25"/><line class="cls-28" x1="450.54" y1="284.17" x2="450.54" y2="375.25"/><line class="cls-28" x1="503.1" y1="284.17" x2="503.1" y2="375.25"/><line class="cls-28" x1="555.66" y1="284.17" x2="555.66" y2="375.25"/><line class="cls-28" x1="608.34" y1="284.17" x2="608.34" y2="375.25"/><line class="cls-28" x1="660.9" y1="284.17" x2="660.9" y2="375.25"/><line class="cls-28" x1="713.46" y1="284.17" x2="713.46" y2="375.25"/><line class="cls-28" x1="766.02" y1="284.17" x2="766.02" y2="375.25"/><line class="cls-28" x1="818.58" y1="284.17" x2="818.58" y2="375.25"/><text class="cls-21" transform="translate(674.83 456.74)">I<tspan class="cls-22" x="5.62" y="0">s</tspan><tspan x="14.89" y="0">t</tspan></text><text class="cls-21" transform="translate(684.67 400.8)">33</text><text class="cls-21" transform="translate(451.99 456.74)">Hem</text><text class="cls-21" transform="translate(474.29 400.8)">21</text><text class="cls-21" transform="translate(511.01 456.74)">Srp</text><text class="cls-21" transform="translate(526.87 400.8)">22</text><text class="cls-29" transform="translate(747.32 456.97)">Mat</text><text class="cls-30" transform="translate(787.62 400.46)">35</text><text class="cls-29" transform="translate(575.82 456.97)">PR-PJ</text><text class="cls-30" transform="translate(610.62 400.46)">1<tspan class="cls-31" x="11.79" y="0">8</tspan><tspan class="cls-32" x="23.7" y="0">,</tspan><tspan x="28.55" y="0">4</tspan></text><line class="cls-28" x1="134.94" y1="375.25" x2="134.94" y2="466.33"/><line class="cls-28" x1="187.62" y1="375.25" x2="187.62" y2="466.33"/><line class="cls-28" x1="240.18" y1="375.25" x2="240.18" y2="466.33"/><line class="cls-28" x1="292.74" y1="375.25" x2="292.74" y2="466.33"/><line class="cls-28" x1="345.3" y1="375.25" x2="345.3" y2="466.33"/><line class="cls-28" x1="397.98" y1="375.25" x2="397.98" y2="466.33"/><line class="cls-28" x1="450.54" y1="375.25" x2="450.54" y2="466.33"/><line class="cls-28" x1="503.1" y1="375.25" x2="503.1" y2="466.33"/><line class="cls-28" x1="555.66" y1="375.25" x2="555.66" y2="466.33"/><line class="cls-28" x1="660.9" y1="375.25" x2="660.9" y2="466.33"/><line class="cls-28" x1="713.46" y1="375.25" x2="713.46" y2="466.33"/><line class="cls-28" x1="818.58" y1="375.25" x2="818.58" y2="466.33"/><text class="cls-21" transform="translate(509.81 547.82)">Mat</text><text class="cls-21" transform="translate(526.87 491.88)">35</text><text class="cls-21" transform="translate(618.89 547.82)">F<tspan class="cls-23" x="11.46" y="0">i</tspan><tspan x="17.03" y="0">z</tspan></text><text class="cls-21" transform="translate(632.11 491.88)">25</text><text class="cls-21" transform="translate(714.9 547.82)">Hem</text><text class="cls-21" transform="translate(737.22 491.88)">21</text><text class="cls-24" transform="translate(558.17 549.85)">N+</text><text class="cls-21" transform="translate(579.54 535.21)">33</text><line class="cls-25" x1="555.66" y1="511.81" x2="608.34" y2="511.81"/><text class="cls-21" transform="translate(668.22 547.82)">Fzč</text><text class="cls-21" transform="translate(455.21 547.82)">PPJ</text><text class="cls-21" transform="translate(487.39 491.88)">2</text><text class="cls-21" transform="translate(767.47 547.82)">Dma</text><text class="cls-21" transform="translate(802.87 491.88)">3</text><line class="cls-28" x1="134.94" y1="466.33" x2="134.94" y2="557.41"/><line class="cls-28" x1="187.62" y1="466.33" x2="187.62" y2="557.41"/><line class="cls-28" x1="240.18" y1="466.33" x2="240.18" y2="557.41"/><line class="cls-28" x1="292.74" y1="466.33" x2="292.74" y2="557.41"/><line class="cls-28" x1="345.3" y1="466.33" x2="345.3" y2="557.41"/><line class="cls-28" x1="397.98" y1="466.33" x2="397.98" y2="557.41"/><line class="cls-28" x1="450.54" y1="466.33" x2="450.54" y2="557.41"/><line class="cls-28" x1="503.1" y1="466.33" x2="503.1" y2="557.41"/><line class="cls-28" x1="555.66" y1="466.33" x2="555.66" y2="557.41"/><line class="cls-28" x1="608.34" y1="466.33" x2="608.34" y2="557.41"/><line class="cls-28" x1="660.9" y1="466.33" x2="660.9" y2="557.41"/><line class="cls-28" x1="713.46" y1="466.33" x2="713.46" y2="557.41"/><line class="cls-28" x1="766.02" y1="466.33" x2="766.02" y2="557.41"/><line class="cls-28" x1="818.58" y1="466.33" x2="818.58" y2="557.41"/><line class="cls-28" x1="82.38" y1="193.09" x2="134.94" y2="193.09"/><line class="cls-28" x1="134.94" y1="193.09" x2="187.62" y2="193.09"/><line class="cls-28" x1="187.62" y1="193.09" x2="240.18" y2="193.09"/><line class="cls-28" x1="240.18" y1="193.09" x2="292.74" y2="193.09"/><line class="cls-28" x1="292.74" y1="193.09" x2="345.3" y2="193.09"/><line class="cls-28" x1="345.3" y1="193.09" x2="397.98" y2="193.09"/><line class="cls-28" x1="397.98" y1="193.09" x2="450.54" y2="193.09"/><line class="cls-28" x1="450.54" y1="193.09" x2="503.1" y2="193.09"/><line class="cls-28" x1="503.1" y1="193.09" x2="555.66" y2="193.09"/><line class="cls-28" x1="555.66" y1="193.09" x2="608.34" y2="193.09"/><line class="cls-28" x1="608.34" y1="193.09" x2="660.9" y2="193.09"/><line class="cls-28" x1="660.9" y1="193.09" x2="713.46" y2="193.09"/><line class="cls-28" x1="713.46" y1="193.09" x2="766.02" y2="193.09"/><line class="cls-28" x1="766.02" y1="193.09" x2="818.58" y2="193.09"/><line class="cls-28" x1="82.38" y1="284.17" x2="134.94" y2="284.17"/><line class="cls-28" x1="134.94" y1="284.17" x2="187.62" y2="284.17"/><line class="cls-28" x1="187.62" y1="284.17" x2="240.18" y2="284.17"/><line class="cls-28" x1="240.18" y1="284.17" x2="292.74" y2="284.17"/><line class="cls-28" x1="292.74" y1="284.17" x2="345.3" y2="284.17"/><line class="cls-28" x1="345.3" y1="284.17" x2="397.98" y2="284.17"/><line class="cls-28" x1="397.98" y1="284.17" x2="450.54" y2="284.17"/><line class="cls-28" x1="450.54" y1="284.17" x2="503.1" y2="284.17"/><line class="cls-28" x1="503.1" y1="284.17" x2="555.66" y2="284.17"/><line class="cls-28" x1="555.66" y1="284.17" x2="608.34" y2="284.17"/><line class="cls-28" x1="608.34" y1="284.17" x2="660.9" y2="284.17"/><line class="cls-28" x1="660.9" y1="284.17" x2="713.46" y2="284.17"/><line class="cls-28" x1="713.46" y1="284.17" x2="766.02" y2="284.17"/><line class="cls-28" x1="766.02" y1="284.17" x2="818.58" y2="284.17"/><line class="cls-28" x1="82.38" y1="375.25" x2="134.94" y2="375.25"/><line class="cls-28" x1="134.94" y1="375.25" x2="187.62" y2="375.25"/><line class="cls-28" x1="187.62" y1="375.25" x2="240.18" y2="375.25"/><line class="cls-28" x1="240.18" y1="375.25" x2="292.74" y2="375.25"/><line class="cls-28" x1="292.74" y1="375.25" x2="345.3" y2="375.25"/><line class="cls-28" x1="345.3" y1="375.25" x2="397.98" y2="375.25"/><line class="cls-28" x1="397.98" y1="375.25" x2="450.54" y2="375.25"/><line class="cls-28" x1="450.54" y1="375.25" x2="503.1" y2="375.25"/><line class="cls-28" x1="503.1" y1="375.25" x2="555.66" y2="375.25"/><line class="cls-28" x1="555.66" y1="375.25" x2="608.34" y2="375.25"/><line class="cls-28" x1="608.34" y1="375.25" x2="660.9" y2="375.25"/><line class="cls-28" x1="660.9" y1="375.25" x2="713.46" y2="375.25"/><line class="cls-28" x1="713.46" y1="375.25" x2="766.02" y2="375.25"/><line class="cls-28" x1="766.02" y1="375.25" x2="818.58" y2="375.25"/><line class="cls-28" x1="82.38" y1="466.33" x2="134.94" y2="466.33"/><line class="cls-28" x1="134.94" y1="466.33" x2="187.62" y2="466.33"/><line class="cls-28" x1="187.62" y1="466.33" x2="240.18" y2="466.33"/><line class="cls-28" x1="240.18" y1="466.33" x2="292.74" y2="466.33"/><line class="cls-28" x1="292.74" y1="466.33" x2="345.3" y2="466.33"/><line class="cls-28" x1="345.3" y1="466.33" x2="397.98" y2="466.33"/><line class="cls-28" x1="397.98" y1="466.33" x2="450.54" y2="466.33"/><line class="cls-28" x1="450.54" y1="466.33" x2="503.1" y2="466.33"/><line class="cls-28" x1="503.1" y1="466.33" x2="555.66" y2="466.33"/><line class="cls-28" x1="555.66" y1="466.33" x2="608.34" y2="466.33"/><line class="cls-28" x1="608.34" y1="466.33" x2="660.9" y2="466.33"/><line class="cls-28" x1="660.9" y1="466.33" x2="713.46" y2="466.33"/><line class="cls-28" x1="713.46" y1="466.33" x2="766.02" y2="466.33"/><line class="cls-28" x1="766.02" y1="466.33" x2="818.58" y2="466.33"/><line class="cls-28" x1="82.38" y1="557.41" x2="134.94" y2="557.41"/><line class="cls-28" x1="134.94" y1="557.41" x2="187.62" y2="557.41"/><line class="cls-28" x1="187.62" y1="557.41" x2="240.18" y2="557.41"/><line class="cls-28" x1="240.18" y1="557.41" x2="292.74" y2="557.41"/><line class="cls-28" x1="292.74" y1="557.41" x2="345.3" y2="557.41"/><line class="cls-28" x1="345.3" y1="557.41" x2="397.98" y2="557.41"/><line class="cls-28" x1="397.98" y1="557.41" x2="450.54" y2="557.41"/><line class="cls-28" x1="450.54" y1="557.41" x2="503.1" y2="557.41"/><line class="cls-28" x1="503.1" y1="557.41" x2="555.66" y2="557.41"/><line class="cls-28" x1="555.66" y1="557.41" x2="608.34" y2="557.41"/><line class="cls-28" x1="608.34" y1="557.41" x2="660.9" y2="557.41"/><line class="cls-28" x1="660.9" y1="557.41" x2="713.46" y2="557.41"/><line class="cls-28" x1="713.46" y1="557.41" x2="766.02" y2="557.41"/><line class="cls-28" x1="766.02" y1="557.41" x2="818.58" y2="557.41"/><line class="cls-28" x1="818.58" y1="102.01" x2="818.58" y2="193.09"/><line class="cls-28" x1="818.58" y1="193.09" x2="818.58" y2="284.17"/><line class="cls-28" x1="818.58" y1="284.17" x2="818.58" y2="375.25"/><line class="cls-28" x1="818.58" y1="375.25" x2="818.58" y2="466.33"/><line class="cls-28" x1="818.58" y1="466.33" x2="818.58" y2="557.41"/><line class="cls-28" x1="0.66" y1="193.09" x2="82.38" y2="193.09"/><text class="cls-33" transform="translate(27.31 155.41)">P<tspan class="cls-34" x="12.37" y="0">o</tspan></text><line class="cls-28" x1="0.66" y1="284.17" x2="82.38" y2="284.17"/><text class="cls-30" transform="translate(29.81 246.5)"><tspan class="cls-35">U</tspan><tspan x="14.94" y="0">t</tspan></text><line class="cls-28" x1="0.66" y1="375.25" x2="82.38" y2="375.25"/><text class="cls-30" transform="translate(29.81 337.57)"><tspan class="cls-36">S</tspan><tspan x="11.47" y="0">r</tspan></text><line class="cls-28" x1="0.66" y1="466.33" x2="82.38" y2="466.33"/><text class="cls-37" transform="translate(26.71 428.64)">Č<tspan class="cls-34" x="13.4" y="0">e</tspan></text><line class="cls-28" x1="0.66" y1="557.41" x2="82.38" y2="557.41"/><text class="cls-33" transform="translate(27.31 519.73)">P<tspan class="cls-34" x="12.37" y="0">e</tspan></text><line class="cls-28" x1="82.38" y1="102.01" x2="82.38" y2="557.41"/><line class="cls-28" x1="134.94" y1="51.49" x2="134.94" y2="102.01"/><text class="cls-38" transform="translate(102.79 83.77)">0</text><line class="cls-28" x1="187.62" y1="51.49" x2="187.62" y2="102.01"/><text class="cls-38" transform="translate(155.46 83.77)">1</text><line class="cls-28" x1="240.18" y1="51.49" x2="240.18" y2="102.01"/><text class="cls-38" transform="translate(208.03 83.77)">2</text><line class="cls-28" x1="292.74" y1="51.49" x2="292.74" y2="102.01"/><text class="cls-38" transform="translate(260.58 83.77)">3</text><line class="cls-28" x1="345.3" y1="51.49" x2="345.3" y2="102.01"/><text class="cls-38" transform="translate(313.15 83.77)">4</text><line class="cls-28" x1="397.98" y1="51.49" x2="397.98" y2="102.01"/><text class="cls-38" transform="translate(365.83 83.77)">5</text><line class="cls-28" x1="450.54" y1="51.49" x2="450.54" y2="102.01"/><text class="cls-38" transform="translate(418.38 83.77)">6</text><line class="cls-28" x1="503.1" y1="51.49" x2="503.1" y2="102.01"/><text class="cls-38" transform="translate(470.95 83.77)">6</text><line class="cls-28" x1="555.66" y1="51.49" x2="555.66" y2="102.01"/><text class="cls-38" transform="translate(523.52 83.77)">5</text><line class="cls-28" x1="608.34" y1="51.49" x2="608.34" y2="102.01"/><text class="cls-38" transform="translate(576.19 83.77)">4</text><line class="cls-28" x1="660.9" y1="51.49" x2="660.9" y2="102.01"/><text class="cls-38" transform="translate(628.74 83.77)">3</text><line class="cls-28" x1="713.46" y1="51.49" x2="713.46" y2="102.01"/><text class="cls-38" transform="translate(681.31 83.77)">2</text><line class="cls-28" x1="766.02" y1="51.49" x2="766.02" y2="102.01"/><text class="cls-38" transform="translate(733.86 83.77)">1</text><line class="cls-28" x1="818.58" y1="51.49" x2="818.58" y2="102.01"/><text class="cls-38" transform="translate(786.43 83.77)">0</text><line class="cls-28" x1="82.38" y1="102.01" x2="818.58" y2="102.01"/><line class="cls-39" x1="818.58" y1="51.49" x2="818.58" y2="557.41"/><line class="cls-39" x1="0.66" y1="51.49" x2="0.66" y2="557.41"/><line class="cls-39" x1="0.66" y1="51.49" x2="818.58" y2="51.49"/><line class="cls-39" x1="0.66" y1="557.41" x2="818.58" y2="557.41"/><line class="cls-39" x1="82.38" y1="51.49" x2="82.38" y2="557.41"/><line class="cls-39" x1="0.66" y1="102.01" x2="818.58" y2="102.01"/><text class="cls-40" transform="translate(371.58 36.95)">I<tspan class="cls-41" x="10.55" y="0">I</tspan><tspan x="21.06" y="0">-5</tspan></text></g></g></g></g></svg>