<svg xmlns="http://www.w3.org/2000/svg" xmlns:xlink="http://www.w3.org/1999/xlink" viewBox="0 0 819.24 568.38"><defs><style>.cls-1,.cls-25,.cls-28,.cls-39{fill:none;}.cls-2{clip-path:url(#clip-path);}.cls-3{fill:#fff;}.cls-4{font-size:9.35px;}.cls-21,.cls-23,.cls-24,.cls-27,.cls-30,.cls-32,.cls-33,.cls-37,.cls-38,.cls-4,.cls-40{font-family:Arial;}.cls-5{letter-spacing:-0.02em;}.cls-6{letter-spacing:-0.01em;}.cls-7{letter-spacing:-0.01em;}.cls-8{letter-spacing:-0.01em;}.cls-9{letter-spacing:0em;}.cls-10{letter-spacing:-0.01em;}.cls-11{letter-spacing:-0.01em;}.cls-12{letter-spacing:0em;}.cls-13{letter-spacing:-0.01em;}.cls-14{letter-spacing:-0.01em;}.cls-15{letter-spacing:-0.01em;}.cls-16{letter-spacing:-0.01em;}.cls-17{letter-spacing:-0.02em;}.cls-18{letter-spacing:-0.01em;}.cls-19{letter-spacing:0em;}.cls-20{letter-spacing:-0.01em;}.cls-21{font-size:23.52px;}.cls-22{letter-spacing:0em;}.cls-23{font-size:22.45px;}.cls-24,.cls-33,.cls-37{font-size:22.99px;}.cls-25,.cls-28,.cls-39{stroke:#000;stroke-linecap:round;stroke-linejoin:round;}.cls-25{stroke-width:0.48px;}.cls-26{letter-spacing:0em;}.cls-27{font-size:10.1px;}.cls-28{stroke-width:0.24px;}.cls-29{letter-spacing:0em;}.cls-30{font-size:10.74px;}.cls-31{letter-spacing:-0.01em;}.cls-32{font-size:10.96px;}.cls-33,.cls-36{letter-spacing:0.01em;}.cls-34{letter-spacing:0em;}.cls-35{letter-spacing:0em;}.cls-37{letter-spacing:0em;}.cls-38{font-size:20.62px;}.cls-39{stroke-width:1.32px;}.cls-40{font-size:44.15px;}.cls-41{letter-spacing:0em;}</style><clipPath id="clip-path" transform="translate(-11.22 -8.03)"><rect class="cls-1" width="841.89" height="595.28"/></clipPath></defs><title>IVB</title><g id="Layer_2" data-name="Layer 2"><g id="Layer_1-2" data-name="Layer 1"><g id="IVB"><g class="cls-2"><rect class="cls-3" x="0.66" y="40.57" width="231.6" height="10.44"/><text class="cls-4" transform="translate(0.66 48.96)"><tspan class="cls-5">M</tspan><tspan x="7.29" y="0">i</tspan><tspan class="cls-6" x="9.48" y="0">t</tspan><tspan x="12.47" y="0">rovačk</tspan><tspan class="cls-7" x="38.22" y="0">a </tspan><tspan class="cls-8" x="44.56" y="0">G</tspan><tspan class="cls-9" x="50.53" y="0">imn</tspan><tspan class="cls-10" x="65.69" y="0">a</tspan><tspan class="cls-11" x="70.11" y="0">z</tspan><tspan x="74" y="0">i</tspan><tspan class="cls-8" x="76.19" y="0">j</tspan><tspan class="cls-12" x="78.39" y="0">a</tspan><tspan class="cls-11" x="82.9" y="0">,</tspan><tspan class="cls-7" x="84.72" y="0"> </tspan><tspan class="cls-9" x="86.63" y="0">u</tspan><tspan class="cls-13" x="91.78" y="0">l</tspan><tspan class="cls-7" x="93.92" y="0">. </tspan><tspan class="cls-11" x="97.68" y="0">S</tspan><tspan x="102.18" y="0">v</tspan><tspan class="cls-14" x="106.67" y="0">.</tspan><tspan class="cls-7" x="108.54" y="0"> </tspan><tspan class="cls-15" x="110.45" y="0">S</tspan><tspan x="114.94" y="0">av</tspan><tspan class="cls-14" x="123.94" y="0">e</tspan><tspan class="cls-7" x="128.56" y="0"> </tspan><tspan x="130.46" y="0">2</tspan><tspan class="cls-15" x="135.26" y="0">,</tspan><tspan class="cls-7" x="137.08" y="0"> </tspan><tspan class="cls-11" x="138.98" y="0">S</tspan><tspan x="143.48" y="0">remska</tspan><tspan class="cls-16" x="171.6" y="0"> </tspan><tspan class="cls-5" x="173.48" y="0">M</tspan><tspan x="180.77" y="0">i</tspan><tspan class="cls-6" x="182.95" y="0">t</tspan><tspan x="185.94" y="0">rovica</tspan></text><text class="cls-4" transform="translate(0.66 566.05)">.</text><text class="cls-4" transform="translate(759.89 566.05)">a<tspan class="cls-17" x="4.5" y="0">S</tspan><tspan x="8.97" y="0">c</tspan><tspan class="cls-8" x="13.16" y="0"> </tspan><tspan x="15.07" y="0">R</tspan><tspan class="cls-18" x="20.1" y="0">a</tspan><tspan class="cls-19" x="24.55" y="0">sp</tspan><tspan class="cls-20" x="33.57" y="0">o</tspan><tspan x="38.63" y="0">red</tspan></text><text class="cls-21" transform="translate(451.99 183.49)">Hem</text><text class="cls-21" transform="translate(474.29 127.58)">38</text><text class="cls-21" transform="translate(622.14 183.49)">F<tspan class="cls-22" x="11.46" y="0">i</tspan><tspan x="17.03" y="0">l</tspan></text><text class="cls-21" transform="translate(645.19 127.58)">5</text><text class="cls-21" transform="translate(720.78 183.49)">Fzč</text><text class="cls-21" transform="translate(773.94 183.49)">Srp</text><text class="cls-21" transform="translate(789.8 127.58)">22</text><text class="cls-21" transform="translate(674.1 183.49)">Inf</text><text class="cls-21" transform="translate(684.67 127.58)">35</text><text class="cls-23" transform="translate(536.94 183.72)">Mat</text><text class="cls-24" transform="translate(577.39 127.22)">35</text><line class="cls-25" x1="134.94" y1="102.01" x2="134.94" y2="193.09"/><line class="cls-25" x1="187.62" y1="102.01" x2="187.62" y2="193.09"/><line class="cls-25" x1="240.18" y1="102.01" x2="240.18" y2="193.09"/><line class="cls-25" x1="292.74" y1="102.01" x2="292.74" y2="193.09"/><line class="cls-25" x1="345.3" y1="102.01" x2="345.3" y2="193.09"/><line class="cls-25" x1="397.98" y1="102.01" x2="397.98" y2="193.09"/><line class="cls-25" x1="450.54" y1="102.01" x2="450.54" y2="193.09"/><line class="cls-25" x1="503.1" y1="102.01" x2="503.1" y2="193.09"/><line class="cls-25" x1="608.34" y1="102.01" x2="608.34" y2="193.09"/><line class="cls-25" x1="660.9" y1="102.01" x2="660.9" y2="193.09"/><line class="cls-25" x1="713.46" y1="102.01" x2="713.46" y2="193.09"/><line class="cls-25" x1="766.02" y1="102.01" x2="766.02" y2="193.09"/><line class="cls-25" x1="818.58" y1="102.01" x2="818.58" y2="193.09"/><text class="cls-21" transform="translate(674.83 274.58)">I<tspan class="cls-26" x="5.62" y="0">s</tspan><tspan x="14.89" y="0">t</tspan></text><text class="cls-21" transform="translate(684.67 218.66)">31</text><text class="cls-21" transform="translate(616.99 274.58)">Ust</text><text class="cls-21" transform="translate(645.19 218.66)">5</text><text class="cls-27" transform="translate(525.66 203.04)">N</text><text class="cls-27" transform="translate(541.74 202.68)">19</text><line class="cls-28" x1="503.1" y1="206.05" x2="555.66" y2="206.05"/><text class="cls-27" transform="translate(522.31 229.08)">NP</text><text class="cls-27" transform="translate(541.74 228.72)">22</text><line class="cls-28" x1="503.1" y1="219.13" x2="555.66" y2="219.13"/><line class="cls-28" x1="503.1" y1="232.09" x2="555.66" y2="232.09"/><text class="cls-27" transform="translate(526.02 242.16)">Š</text><text class="cls-27" transform="translate(547.38 241.68)">1</text><line class="cls-28" x1="503.1" y1="232.09" x2="555.66" y2="232.09"/><line class="cls-28" x1="503.1" y1="245.17" x2="555.66" y2="245.17"/><text class="cls-27" transform="translate(526.26 255.12)">F</text><text class="cls-27" transform="translate(547.38 254.76)">5</text><line class="cls-28" x1="503.1" y1="245.17" x2="555.66" y2="245.17"/><line class="cls-28" x1="503.1" y1="258.13" x2="555.66" y2="258.13"/><text class="cls-27" transform="translate(525.66 281.16)">R</text><text class="cls-27" transform="translate(541.74 280.68)">30</text><line class="cls-28" x1="503.1" y1="271.09" x2="555.66" y2="271.09"/><text class="cls-27" transform="translate(527.94 268.08)">I</text><text class="cls-27" transform="translate(547.38 267.72)">6</text><line class="cls-28" x1="503.1" y1="258.13" x2="555.66" y2="258.13"/><line class="cls-28" x1="503.1" y1="271.09" x2="555.66" y2="271.09"/><text class="cls-27" transform="translate(522.78 216.12)">N+</text><text class="cls-27" transform="translate(541.74 215.64)">33</text><line class="cls-28" x1="503.1" y1="206.05" x2="555.66" y2="206.05"/><line class="cls-28" x1="503.1" y1="219.13" x2="555.66" y2="219.13"/><text class="cls-21" transform="translate(464.34 274.58)">F<tspan class="cls-22" x="11.46" y="0">i</tspan><tspan x="17.03" y="0">l</tspan></text><text class="cls-21" transform="translate(487.39 218.66)">5</text><text class="cls-21" transform="translate(720.78 274.58)">Fzč</text><text class="cls-21" transform="translate(563.71 274.58)">Srp</text><text class="cls-21" transform="translate(579.54 218.66)">22</text><line class="cls-25" x1="134.94" y1="193.09" x2="134.94" y2="284.17"/><line class="cls-25" x1="187.62" y1="193.09" x2="187.62" y2="284.17"/><line class="cls-25" x1="240.18" y1="193.09" x2="240.18" y2="284.17"/><line class="cls-25" x1="292.74" y1="193.09" x2="292.74" y2="284.17"/><line class="cls-25" x1="345.3" y1="193.09" x2="345.3" y2="284.17"/><line class="cls-25" x1="397.98" y1="193.09" x2="397.98" y2="284.17"/><line class="cls-25" x1="450.54" y1="193.09" x2="450.54" y2="284.17"/><line class="cls-25" x1="503.1" y1="193.09" x2="503.1" y2="284.17"/><line class="cls-25" x1="555.66" y1="193.09" x2="555.66" y2="284.17"/><line class="cls-25" x1="608.34" y1="193.09" x2="608.34" y2="284.17"/><line class="cls-25" x1="660.9" y1="193.09" x2="660.9" y2="284.17"/><line class="cls-25" x1="713.46" y1="193.09" x2="713.46" y2="284.17"/><line class="cls-25" x1="766.02" y1="193.09" x2="766.02" y2="284.17"/><line class="cls-25" x1="818.58" y1="193.09" x2="818.58" y2="284.17"/><text class="cls-21" transform="translate(617.58 365.66)">B<tspan class="cls-22" x="12.75" y="0">i</tspan><tspan class="cls-29" x="18.32" y="0">o</tspan></text><text class="cls-21" transform="translate(645.19 309.74)">9</text><text class="cls-21" transform="translate(509.11 365.66)">Soc</text><text class="cls-21" transform="translate(539.95 309.74)">5</text><text class="cls-21" transform="translate(724.02 365.66)">F<tspan class="cls-22" x="11.46" y="0">i</tspan><tspan x="17.03" y="0">z</tspan></text><text class="cls-21" transform="translate(737.22 309.74)">22</text><text class="cls-21" transform="translate(557.1 365.66)">Hem</text><text class="cls-21" transform="translate(579.54 309.74)">38</text><text class="cls-21" transform="translate(666.18 365.66)">Eng</text><text class="cls-21" transform="translate(684.67 309.74)">19</text><text class="cls-21" transform="translate(457.26 365.66)">Mat</text><text class="cls-21" transform="translate(474.29 309.74)">35</text><line class="cls-25" x1="134.94" y1="284.17" x2="134.94" y2="375.25"/><line class="cls-25" x1="187.62" y1="284.17" x2="187.62" y2="375.25"/><line class="cls-25" x1="240.18" y1="284.17" x2="240.18" y2="375.25"/><line class="cls-25" x1="292.74" y1="284.17" x2="292.74" y2="375.25"/><line class="cls-25" x1="345.3" y1="284.17" x2="345.3" y2="375.25"/><line class="cls-25" x1="397.98" y1="284.17" x2="397.98" y2="375.25"/><line class="cls-25" x1="450.54" y1="284.17" x2="450.54" y2="375.25"/><line class="cls-25" x1="503.1" y1="284.17" x2="503.1" y2="375.25"/><line class="cls-25" x1="555.66" y1="284.17" x2="555.66" y2="375.25"/><line class="cls-25" x1="608.34" y1="284.17" x2="608.34" y2="375.25"/><line class="cls-25" x1="660.9" y1="284.17" x2="660.9" y2="375.25"/><line class="cls-25" x1="713.46" y1="284.17" x2="713.46" y2="375.25"/><line class="cls-25" x1="766.02" y1="284.17" x2="766.02" y2="375.25"/><line class="cls-25" x1="818.58" y1="284.17" x2="818.58" y2="375.25"/><text class="cls-21" transform="translate(622.26 456.74)">I<tspan class="cls-26" x="5.62" y="0">s</tspan><tspan x="14.89" y="0">t</tspan></text><text class="cls-21" transform="translate(632.11 400.8)">31</text><text class="cls-21" transform="translate(561.66 456.74)">Soc</text><text class="cls-21" transform="translate(592.62 400.8)">5</text><text class="cls-27" transform="translate(525.66 385.2)">N</text><text class="cls-27" transform="translate(541.74 384.84)">31</text><line class="cls-28" x1="503.1" y1="388.21" x2="555.66" y2="388.21"/><text class="cls-27" transform="translate(522.31 411.24)">NP</text><text class="cls-27" transform="translate(547.38 410.88)">3</text><line class="cls-28" x1="503.1" y1="401.29" x2="555.66" y2="401.29"/><line class="cls-28" x1="503.1" y1="414.25" x2="555.66" y2="414.25"/><text class="cls-27" transform="translate(526.26 437.28)">F</text><text class="cls-27" transform="translate(540.66 436.81)">6P</text><line class="cls-28" x1="503.1" y1="427.21" x2="555.66" y2="427.21"/><line class="cls-28" x1="503.1" y1="440.29" x2="555.66" y2="440.29"/><text class="cls-27" transform="translate(525.66 463.32)">R</text><text class="cls-27" transform="translate(541.74 462.85)">30</text><line class="cls-28" x1="503.1" y1="453.25" x2="555.66" y2="453.25"/><text class="cls-27" transform="translate(527.94 450.25)">I</text><text class="cls-27" transform="translate(547.38 449.88)">0</text><line class="cls-28" x1="503.1" y1="440.29" x2="555.66" y2="440.29"/><line class="cls-28" x1="503.1" y1="453.25" x2="555.66" y2="453.25"/><text class="cls-27" transform="translate(522.78 398.29)">N+</text><text class="cls-27" transform="translate(541.74 397.8)">33</text><line class="cls-28" x1="503.1" y1="388.21" x2="555.66" y2="388.21"/><line class="cls-28" x1="503.1" y1="401.29" x2="555.66" y2="401.29"/><text class="cls-21" transform="translate(674.72 456.74)">F<tspan class="cls-22" x="11.46" y="0">i</tspan><tspan x="17.03" y="0">l</tspan></text><text class="cls-21" transform="translate(697.75 400.8)">5</text><text class="cls-23" transform="translate(748.51 456.97)">Srp</text><text class="cls-24" transform="translate(787.62 400.46)">22</text><text class="cls-21" transform="translate(457.26 456.74)">Mat</text><text class="cls-21" transform="translate(474.29 400.8)">35</text><line class="cls-25" x1="134.94" y1="375.25" x2="134.94" y2="466.33"/><line class="cls-25" x1="187.62" y1="375.25" x2="187.62" y2="466.33"/><line class="cls-25" x1="240.18" y1="375.25" x2="240.18" y2="466.33"/><line class="cls-25" x1="292.74" y1="375.25" x2="292.74" y2="466.33"/><line class="cls-25" x1="345.3" y1="375.25" x2="345.3" y2="466.33"/><line class="cls-25" x1="397.98" y1="375.25" x2="397.98" y2="466.33"/><line class="cls-25" x1="450.54" y1="375.25" x2="450.54" y2="466.33"/><line class="cls-25" x1="503.1" y1="375.25" x2="503.1" y2="466.33"/><line class="cls-25" x1="555.66" y1="375.25" x2="555.66" y2="466.33"/><line class="cls-25" x1="608.34" y1="375.25" x2="608.34" y2="466.33"/><line class="cls-25" x1="660.9" y1="375.25" x2="660.9" y2="466.33"/><line class="cls-25" x1="713.46" y1="375.25" x2="713.46" y2="466.33"/><line class="cls-25" x1="818.58" y1="375.25" x2="818.58" y2="466.33"/><text class="cls-21" transform="translate(564.91 547.82)">B<tspan class="cls-22" x="12.75" y="0">i</tspan><tspan class="cls-29" x="18.32" y="0">o</tspan></text><text class="cls-21" transform="translate(592.62 491.88)">9</text><text class="cls-21" transform="translate(724.02 547.82)">F<tspan class="cls-22" x="11.46" y="0">i</tspan><tspan x="17.03" y="0">z</tspan></text><text class="cls-21" transform="translate(737.22 491.88)">33</text><text class="cls-30" transform="translate(496.12 489.14)"><tspan class="cls-31">N</tspan><tspan x="6.99" y="0">+</tspan></text><text class="cls-32" transform="translate(538.12 489.6)">33</text><line class="cls-28" x1="450.54" y1="479.29" x2="555.66" y2="479.29"/><line class="cls-28" x1="450.54" y1="492.25" x2="555.66" y2="492.25"/><text class="cls-27" transform="translate(473.46 515.28)">Š</text><text class="cls-27" transform="translate(488.1 514.93)">6P</text><line class="cls-25" x1="503.1" y1="505.33" x2="503.1" y2="518.29"/><line class="cls-28" x1="450.54" y1="505.33" x2="503.1" y2="505.33"/><line class="cls-28" x1="450.54" y1="518.29" x2="503.1" y2="518.29"/><text class="cls-23" transform="translate(640.86 548.05)">Eng</text><text class="cls-24" transform="translate(682.5 491.53)">19</text><line class="cls-25" x1="134.94" y1="466.33" x2="134.94" y2="557.41"/><line class="cls-25" x1="187.62" y1="466.33" x2="187.62" y2="557.41"/><line class="cls-25" x1="240.18" y1="466.33" x2="240.18" y2="557.41"/><line class="cls-25" x1="292.74" y1="466.33" x2="292.74" y2="557.41"/><line class="cls-25" x1="345.3" y1="466.33" x2="345.3" y2="557.41"/><line class="cls-25" x1="397.98" y1="466.33" x2="397.98" y2="557.41"/><line class="cls-25" x1="450.54" y1="466.33" x2="450.54" y2="557.41"/><line class="cls-25" x1="555.66" y1="466.33" x2="555.66" y2="557.41"/><line class="cls-25" x1="608.34" y1="466.33" x2="608.34" y2="557.41"/><line class="cls-25" x1="713.46" y1="466.33" x2="713.46" y2="557.41"/><line class="cls-25" x1="766.02" y1="466.33" x2="766.02" y2="557.41"/><line class="cls-25" x1="818.58" y1="466.33" x2="818.58" y2="557.41"/><line class="cls-25" x1="82.38" y1="193.09" x2="134.94" y2="193.09"/><line class="cls-25" x1="134.94" y1="193.09" x2="187.62" y2="193.09"/><line class="cls-25" x1="187.62" y1="193.09" x2="240.18" y2="193.09"/><line class="cls-25" x1="240.18" y1="193.09" x2="292.74" y2="193.09"/><line class="cls-25" x1="292.74" y1="193.09" x2="345.3" y2="193.09"/><line class="cls-25" x1="345.3" y1="193.09" x2="397.98" y2="193.09"/><line class="cls-25" x1="397.98" y1="193.09" x2="450.54" y2="193.09"/><line class="cls-25" x1="450.54" y1="193.09" x2="503.1" y2="193.09"/><line class="cls-25" x1="503.1" y1="193.09" x2="555.66" y2="193.09"/><line class="cls-25" x1="555.66" y1="193.09" x2="608.34" y2="193.09"/><line class="cls-25" x1="608.34" y1="193.09" x2="660.9" y2="193.09"/><line class="cls-25" x1="660.9" y1="193.09" x2="713.46" y2="193.09"/><line class="cls-25" x1="713.46" y1="193.09" x2="766.02" y2="193.09"/><line class="cls-25" x1="766.02" y1="193.09" x2="818.58" y2="193.09"/><line class="cls-25" x1="82.38" y1="284.17" x2="134.94" y2="284.17"/><line class="cls-25" x1="134.94" y1="284.17" x2="187.62" y2="284.17"/><line class="cls-25" x1="187.62" y1="284.17" x2="240.18" y2="284.17"/><line class="cls-25" x1="240.18" y1="284.17" x2="292.74" y2="284.17"/><line class="cls-25" x1="292.74" y1="284.17" x2="345.3" y2="284.17"/><line class="cls-25" x1="345.3" y1="284.17" x2="397.98" y2="284.17"/><line class="cls-25" x1="397.98" y1="284.17" x2="450.54" y2="284.17"/><line class="cls-25" x1="450.54" y1="284.17" x2="503.1" y2="284.17"/><line class="cls-25" x1="503.1" y1="284.17" x2="555.66" y2="284.17"/><line class="cls-25" x1="555.66" y1="284.17" x2="608.34" y2="284.17"/><line class="cls-25" x1="608.34" y1="284.17" x2="660.9" y2="284.17"/><line class="cls-25" x1="660.9" y1="284.17" x2="713.46" y2="284.17"/><line class="cls-25" x1="713.46" y1="284.17" x2="766.02" y2="284.17"/><line class="cls-25" x1="766.02" y1="284.17" x2="818.58" y2="284.17"/><line class="cls-25" x1="82.38" y1="375.25" x2="134.94" y2="375.25"/><line class="cls-25" x1="134.94" y1="375.25" x2="187.62" y2="375.25"/><line class="cls-25" x1="187.62" y1="375.25" x2="240.18" y2="375.25"/><line class="cls-25" x1="240.18" y1="375.25" x2="292.74" y2="375.25"/><line class="cls-25" x1="292.74" y1="375.25" x2="345.3" y2="375.25"/><line class="cls-25" x1="345.3" y1="375.25" x2="397.98" y2="375.25"/><line class="cls-25" x1="397.98" y1="375.25" x2="450.54" y2="375.25"/><line class="cls-25" x1="450.54" y1="375.25" x2="503.1" y2="375.25"/><line class="cls-25" x1="503.1" y1="375.25" x2="555.66" y2="375.25"/><line class="cls-25" x1="555.66" y1="375.25" x2="608.34" y2="375.25"/><line class="cls-25" x1="608.34" y1="375.25" x2="660.9" y2="375.25"/><line class="cls-25" x1="660.9" y1="375.25" x2="713.46" y2="375.25"/><line class="cls-25" x1="713.46" y1="375.25" x2="766.02" y2="375.25"/><line class="cls-25" x1="766.02" y1="375.25" x2="818.58" y2="375.25"/><line class="cls-25" x1="82.38" y1="466.33" x2="134.94" y2="466.33"/><line class="cls-25" x1="134.94" y1="466.33" x2="187.62" y2="466.33"/><line class="cls-25" x1="187.62" y1="466.33" x2="240.18" y2="466.33"/><line class="cls-25" x1="240.18" y1="466.33" x2="292.74" y2="466.33"/><line class="cls-25" x1="292.74" y1="466.33" x2="345.3" y2="466.33"/><line class="cls-25" x1="345.3" y1="466.33" x2="397.98" y2="466.33"/><line class="cls-25" x1="397.98" y1="466.33" x2="450.54" y2="466.33"/><line class="cls-25" x1="450.54" y1="466.33" x2="503.1" y2="466.33"/><line class="cls-25" x1="503.1" y1="466.33" x2="555.66" y2="466.33"/><line class="cls-25" x1="555.66" y1="466.33" x2="608.34" y2="466.33"/><line class="cls-25" x1="608.34" y1="466.33" x2="660.9" y2="466.33"/><line class="cls-25" x1="660.9" y1="466.33" x2="713.46" y2="466.33"/><line class="cls-25" x1="713.46" y1="466.33" x2="766.02" y2="466.33"/><line class="cls-25" x1="766.02" y1="466.33" x2="818.58" y2="466.33"/><line class="cls-25" x1="82.38" y1="557.41" x2="134.94" y2="557.41"/><line class="cls-25" x1="134.94" y1="557.41" x2="187.62" y2="557.41"/><line class="cls-25" x1="187.62" y1="557.41" x2="240.18" y2="557.41"/><line class="cls-25" x1="240.18" y1="557.41" x2="292.74" y2="557.41"/><line class="cls-25" x1="292.74" y1="557.41" x2="345.3" y2="557.41"/><line class="cls-25" x1="345.3" y1="557.41" x2="397.98" y2="557.41"/><line class="cls-25" x1="397.98" y1="557.41" x2="450.54" y2="557.41"/><line class="cls-25" x1="450.54" y1="557.41" x2="503.1" y2="557.41"/><line class="cls-25" x1="503.1" y1="557.41" x2="555.66" y2="557.41"/><line class="cls-25" x1="555.66" y1="557.41" x2="608.34" y2="557.41"/><line class="cls-25" x1="608.34" y1="557.41" x2="660.9" y2="557.41"/><line class="cls-25" x1="660.9" y1="557.41" x2="713.46" y2="557.41"/><line class="cls-25" x1="713.46" y1="557.41" x2="766.02" y2="557.41"/><line class="cls-25" x1="766.02" y1="557.41" x2="818.58" y2="557.41"/><line class="cls-25" x1="818.58" y1="102.01" x2="818.58" y2="193.09"/><line class="cls-25" x1="818.58" y1="193.09" x2="818.58" y2="284.17"/><line class="cls-25" x1="818.58" y1="284.17" x2="818.58" y2="375.25"/><line class="cls-25" x1="818.58" y1="375.25" x2="818.58" y2="466.33"/><line class="cls-25" x1="818.58" y1="466.33" x2="818.58" y2="557.41"/><line class="cls-25" x1="0.66" y1="193.09" x2="82.38" y2="193.09"/><text class="cls-33" transform="translate(27.31 155.41)">P<tspan class="cls-34" x="12.37" y="0">o</tspan></text><line class="cls-25" x1="0.66" y1="284.17" x2="82.38" y2="284.17"/><text class="cls-24" transform="translate(29.81 246.5)"><tspan class="cls-35">U</tspan><tspan x="14.94" y="0">t</tspan></text><line class="cls-25" x1="0.66" y1="375.25" x2="82.38" y2="375.25"/><text class="cls-24" transform="translate(29.81 337.57)"><tspan class="cls-36">S</tspan><tspan x="11.47" y="0">r</tspan></text><line class="cls-25" x1="0.66" y1="466.33" x2="82.38" y2="466.33"/><text class="cls-37" transform="translate(26.71 428.64)">Č<tspan class="cls-34" x="13.4" y="0">e</tspan></text><line class="cls-25" x1="0.66" y1="557.41" x2="82.38" y2="557.41"/><text class="cls-33" transform="translate(27.31 519.73)">P<tspan class="cls-34" x="12.37" y="0">e</tspan></text><line class="cls-25" x1="82.38" y1="102.01" x2="82.38" y2="557.41"/><line class="cls-25" x1="134.94" y1="51.49" x2="134.94" y2="102.01"/><text class="cls-38" transform="translate(102.79 83.77)">0</text><line class="cls-25" x1="187.62" y1="51.49" x2="187.62" y2="102.01"/><text class="cls-38" transform="translate(155.46 83.77)">1</text><line class="cls-25" x1="240.18" y1="51.49" x2="240.18" y2="102.01"/><text class="cls-38" transform="translate(208.03 83.77)">2</text><line class="cls-25" x1="292.74" y1="51.49" x2="292.74" y2="102.01"/><text class="cls-38" transform="translate(260.58 83.77)">3</text><line class="cls-25" x1="345.3" y1="51.49" x2="345.3" y2="102.01"/><text class="cls-38" transform="translate(313.15 83.77)">4</text><line class="cls-25" x1="397.98" y1="51.49" x2="397.98" y2="102.01"/><text class="cls-38" transform="translate(365.83 83.77)">5</text><line class="cls-25" x1="450.54" y1="51.49" x2="450.54" y2="102.01"/><text class="cls-38" transform="translate(418.38 83.77)">6</text><line class="cls-25" x1="503.1" y1="51.49" x2="503.1" y2="102.01"/><text class="cls-38" transform="translate(470.95 83.77)">6</text><line class="cls-25" x1="555.66" y1="51.49" x2="555.66" y2="102.01"/><text class="cls-38" transform="translate(523.52 83.77)">5</text><line class="cls-25" x1="608.34" y1="51.49" x2="608.34" y2="102.01"/><text class="cls-38" transform="translate(576.19 83.77)">4</text><line class="cls-25" x1="660.9" y1="51.49" x2="660.9" y2="102.01"/><text class="cls-38" transform="translate(628.74 83.77)">3</text><line class="cls-25" x1="713.46" y1="51.49" x2="713.46" y2="102.01"/><text class="cls-38" transform="translate(681.31 83.77)">2</text><line class="cls-25" x1="766.02" y1="51.49" x2="766.02" y2="102.01"/><text class="cls-38" transform="translate(733.86 83.77)">1</text><line class="cls-25" x1="818.58" y1="51.49" x2="818.58" y2="102.01"/><text class="cls-38" transform="translate(786.43 83.77)">0</text><line class="cls-25" x1="82.38" y1="102.01" x2="818.58" y2="102.01"/><line class="cls-39" x1="818.58" y1="51.49" x2="818.58" y2="557.41"/><line class="cls-39" x1="0.66" y1="51.49" x2="0.66" y2="557.41"/><line class="cls-39" x1="0.66" y1="51.49" x2="818.58" y2="51.49"/><line class="cls-39" x1="0.66" y1="557.41" x2="818.58" y2="557.41"/><line class="cls-39" x1="82.38" y1="51.49" x2="82.38" y2="557.41"/><line class="cls-39" x1="0.66" y1="102.01" x2="818.58" y2="102.01"/><text class="cls-40" transform="translate(360.67 36.95)">I<tspan class="cls-41" x="10.55" y="0">V</tspan><tspan x="35.14" y="0">-B</tspan></text></g></g></g></g></svg>